SplineFontDB: 3.0
FontName: Jost-Book
FullName: Jost* 400 Book
FamilyName: Jost*
Weight: Book
Copyright: This typeface is licensed under the SIL open font license.
UComments: "2016-6-10: Created with FontForge (http://fontforge.org)"
Version: 003.300
ItalicAngle: 0
UnderlinePosition: -100
UnderlineWidth: 50
Ascent: 800
Descent: 200
InvalidEm: 0
LayerCount: 2
Layer: 0 0 "Back" 1
Layer: 1 0 "Fore" 0
PreferredKerning: 4
XUID: [1021 31 -699969567 16188444]
FSType: 0
OS2Version: 0
OS2_WeightWidthSlopeOnly: 0
OS2_UseTypoMetrics: 0
CreationTime: 1465610489
ModificationTime: 1536029036
PfmFamily: 33
TTFWeight: 400
TTFWidth: 5
LineGap: 100
VLineGap: 0
OS2TypoAscent: 825
OS2TypoAOffset: 0
OS2TypoDescent: -225
OS2TypoDOffset: 0
OS2TypoLinegap: 100
OS2WinAscent: 900
OS2WinAOffset: 0
OS2WinDescent: 300
OS2WinDOffset: 0
HheadAscent: 1030
HheadAOffset: 0
HheadDescent: -350
HheadDOffset: 0
OS2CapHeight: 700
OS2XHeight: 460
OS2Vendor: 'PfEd'
Lookup: 1 0 0 "alt a" { "alt a"  } ['ss01' ('DFLT' <'dflt' > 'latn' <'dflt' > ) ]
Lookup: 1 0 0 "Tabular Numbers lookup" { "Tabular Numbers lookup"  } ['tnum' ('DFLT' <'dflt' > 'grek' <'dflt' > 'latn' <'dflt' > ) ]
Lookup: 258 0 0 "Lets get our kern on" { "kernin like nobodys business" [150,0,4] } ['kern' ('DFLT' <'dflt' > 'latn' <'dflt' > ) ]
MarkAttachClasses: 1
DEI: 91125
KernClass2: 16 14 "kernin like nobodys business"
 15 slash seven V W
 175 quotedbl quotesingle asterisk grave dieresis ordfeminine macron degree acute ordmasculine circumflex breve dotaccent ring tilde quoteleft quoteright quotedblleft quotedblright
 17 nine question F P
 107 A L backslash Agrave Aacute Acircumflex Atilde Adieresis Aring Amacron Abreve Aogonek Lacute uni013B Lslash
 26 three eight B C germandbls
 5 K X Z
 125 at D G O Ograve Oacute Ocircumflex Otilde Odieresis Oslash Dcaron Dcroat Gcircumflex Gbreve Gdotaccent uni0122 Omacron Obreve

StartChar: H
Encoding: 72 72 0
GlifName: H_
Width: 715
VWidth: 0
Flags: HMW
LayerCount: 2
Fore
SplineSet
127 340 m 257
 127 420 l 257
 607 420 l 257
 607 340 l 257
 127 340 l 257
550 700 m 257
 635 700 l 257
 635 0 l 257
 550 0 l 257
 550 700 l 257
80 700 m 257
 165 700 l 257
 165 0 l 257
 80 0 l 257
 80 700 l 257
EndSplineSet
EndChar

StartChar: O
Encoding: 79 79 1
GlifName: O_
Width: 790
VWidth: 0
Flags: HMW
LayerCount: 2
Fore
SplineSet
130 350 m 256
 130 192 242 75 395 75 c 256
 548 75 660 192 660 350 c 256
 660 508 548 625 395 625 c 256
 242 625 130 508 130 350 c 256
40 350 m 256
 40 554 191 710 395 710 c 256
 599 710 750 554 750 350 c 256
 750 146 599 -10 395 -10 c 256
 191 -10 40 146 40 350 c 256
EndSplineSet
EndChar

StartChar: I
Encoding: 73 73 2
GlifName: I_
Width: 245
VWidth: 0
Flags: HMW
LayerCount: 2
Fore
SplineSet
80 700 m 257
 165 700 l 257
 165 0 l 257
 80 0 l 257
 80 700 l 257
EndSplineSet
EndChar

StartChar: C
Encoding: 67 67 3
GlifName: C_
Width: 685
VWidth: 0
Flags: HMW
LayerCount: 2
Fore
SplineSet
130 350 m 256
 130 187 252 75 390 75 c 256
 489 75 566 117 615 179 c 257
 615 67 l 257
 556 15 492 -10 390 -10 c 256
 196 -10 40 141 40 350 c 256
 40 559 196 710 390 710 c 256
 492 710 556 685 615 633 c 257
 615 521 l 257
 566 583 489 625 390 625 c 256
 252 625 130 513 130 350 c 256
EndSplineSet
EndChar

StartChar: E
Encoding: 69 69 4
GlifName: E_
Width: 550
VWidth: 0
Flags: HMW
LayerCount: 2
Fore
SplineSet
127 0 m 257
 127 80 l 257
 480 80 l 257
 480 0 l 257
 127 0 l 257
127 620 m 257
 127 700 l 257
 480 700 l 257
 480 620 l 257
 127 620 l 257
127 340 m 257
 127 420 l 257
 460 420 l 257
 460 340 l 257
 127 340 l 257
80 700 m 257
 165 700 l 257
 165 0 l 257
 80 0 l 257
 80 700 l 257
EndSplineSet
EndChar

StartChar: F
Encoding: 70 70 6
GlifName: F_
Width: 500
VWidth: 0
Flags: HMW
LayerCount: 2
Fore
SplineSet
127 620 m 257
 127 700 l 257
 440 700 l 257
 440 620 l 257
 127 620 l 257
127 340 m 257
 127 420 l 257
 430 420 l 257
 430 340 l 257
 127 340 l 257
80 700 m 257
 165 700 l 257
 165 0 l 257
 80 0 l 257
 80 700 l 257
EndSplineSet
EndChar

StartChar: G
Encoding: 71 71 7
GlifName: G_
Width: 775
VWidth: 0
Flags: HMW
LayerCount: 2
Fore
SplineSet
405 275 m 257
 405 355 l 257
 730 355 l 257
 730 161 609 -10 395 -10 c 256
 191 -10 40 141 40 350 c 256
 40 559 191 710 395 710 c 256
 524 710 626 658 686 561 c 257
 626 506 l 257
 582 580 502 625 395 625 c 256
 247 625 130 513 130 350 c 256
 130 187 247 75 395 75 c 256
 534 75 615 166 638 275 c 257
 405 275 l 257
EndSplineSet
EndChar

StartChar: T
Encoding: 84 84 8
GlifName: T_
Width: 465
VWidth: 0
Flags: HMW
LayerCount: 2
Fore
SplineSet
10 620 m 257
 10 700 l 257
 455 700 l 257
 455 620 l 257
 275 620 l 257
 275 0 l 257
 190 0 l 257
 190 620 l 257
 10 620 l 257
EndSplineSet
EndChar

StartChar: L
Encoding: 76 76 9
GlifName: L_
Width: 450
VWidth: 0
Flags: HMW
LayerCount: 2
Fore
SplineSet
80 700 m 257
 165 700 l 257
 165 80 l 257
 440 80 l 257
 440 0 l 257
 80 0 l 257
 80 700 l 257
EndSplineSet
EndChar

StartChar: D
Encoding: 68 68 10
GlifName: D_
Width: 680
VWidth: 0
Flags: HMW
LayerCount: 2
Fore
SplineSet
80 700 m 257
 165 700 l 257
 165 0 l 257
 80 0 l 257
 80 700 l 257
290 0 m 258
 127 0 l 257
 127 85 l 257
 290 85 l 258
 448 85 555 187 555 350 c 256
 555 513 448 615 290 615 c 258
 127 615 l 257
 127 700 l 257
 290 700 l 258
 494 700 640 559 640 350 c 256
 640 141 494 0 290 0 c 258
EndSplineSet
EndChar

StartChar: Q
Encoding: 81 81 11
GlifName: Q_
Width: 790
VWidth: 0
Flags: HMW
LayerCount: 2
Fore
SplineSet
130 350 m 256
 130 192 242 75 395 75 c 256
 548 75 660 192 660 350 c 256
 660 508 548 625 395 625 c 256
 242 625 130 508 130 350 c 256
40 350 m 256
 40 554 191 710 395 710 c 256
 599 710 750 554 750 350 c 256
 750 146 599 -10 395 -10 c 256
 191 -10 40 146 40 350 c 256
379 300 m 257
 489 300 l 257
 789 0 l 257
 679 0 l 257
 379 300 l 257
EndSplineSet
EndChar

StartChar: A
Encoding: 65 65 12
GlifName: A_
Width: 660
VWidth: 0
Flags: HMW
LayerCount: 2
Fore
SplineSet
147 210 m 257
 177 290 l 257
 487 290 l 257
 517 210 l 257
 147 210 l 257
330 542 m 257
 212 264 l 257
 204 246 l 257
 100 0 l 257
 5 0 l 257
 330 735 l 257
 655 0 l 257
 560 0 l 257
 458 240 l 257
 450 260 l 257
 330 542 l 257
EndSplineSet
EndChar

StartChar: R
Encoding: 82 82 13
GlifName: R_
Width: 560
VWidth: 0
Flags: HMW
LayerCount: 2
Fore
SplineSet
205 345 m 257
 300 345 l 257
 550 0 l 257
 445 0 l 257
 205 345 l 257
80 700 m 257
 165 700 l 257
 165 0 l 257
 80 0 l 257
 80 700 l 257
127 625 m 257
 127 700 l 257
 270 700 l 258
 405 700 508 619 508 490 c 256
 508 361 405 280 270 280 c 258
 127 280 l 257
 127 355 l 257
 270 355 l 258
 360 355 423 404 423 490 c 256
 423 576 360 625 270 625 c 258
 127 625 l 257
EndSplineSet
EndChar

StartChar: V
Encoding: 86 86 14
GlifName: V_
Width: 660
VWidth: 0
Flags: HMW
LayerCount: 2
Fore
SplineSet
330 158 m 257
 560 700 l 257
 655 700 l 257
 330 -35 l 257
 5 700 l 257
 100 700 l 257
 330 158 l 257
EndSplineSet
EndChar

StartChar: M
Encoding: 77 77 15
GlifName: M_
Width: 810
VWidth: 0
Flags: HMW
LayerCount: 2
Fore
SplineSet
177 473 m 257
 125 0 l 257
 40 0 l 257
 125 735 l 257
 405 228 l 257
 685 735 l 257
 770 0 l 257
 685 0 l 257
 633 473 l 257
 405 65 l 257
 177 473 l 257
EndSplineSet
EndChar

StartChar: W
Encoding: 87 87 16
GlifName: W_
Width: 990
VWidth: 0
Flags: HMW
LayerCount: 2
Fore
SplineSet
700 175 m 257
 885 700 l 257
 980 700 l 257
 705 -35 l 257
 495 509 l 257
 285 -35 l 257
 10 700 l 257
 105 700 l 257
 290 175 l 257
 495 735 l 257
 700 175 l 257
EndSplineSet
EndChar

StartChar: N
Encoding: 78 78 17
GlifName: N_
Width: 775
VWidth: 0
Flags: HMW
LayerCount: 2
Fore
SplineSet
610 700 m 257
 695 700 l 257
 695 -35 l 257
 165 521 l 257
 165 0 l 257
 80 0 l 257
 80 735 l 257
 610 179 l 257
 610 700 l 257
EndSplineSet
EndChar

StartChar: a
Encoding: 97 97 18
GlifName: a
Width: 485
VWidth: 0
Flags: HMW
LayerCount: 2
Fore
SplineSet
111 135 m 256
 111 86 154 61 208 61 c 256
 288 61 345 94 345 180 c 257
 361 130 l 257
 361 41 283 -10 188 -10 c 256
 101 -10 30 38 30 132 c 256
 30 229 105 286 226 286 c 256
 314 286 364 242 378 225 c 257
 378 178 l 257
 333 210 288 225 230 225 c 256
 149 225 111 191 111 135 c 256
111 352 m 257
 72 413 l 257
 106 438 165 470 248 470 c 256
 353 470 425 419 425 330 c 258
 425 0 l 257
 345 0 l 257
 345 330 l 258
 345 376 298 400 248 400 c 256
 182 400 133 368 111 352 c 257
EndSplineSet
Substitution2: "alt a" a.alt
EndChar

StartChar: X
Encoding: 88 88 19
GlifName: X_
Width: 555
VWidth: 0
Flags: HMW
LayerCount: 2
Fore
SplineSet
430 700 m 257
 530 700 l 257
 323 367 l 257
 545 0 l 257
 445 0 l 257
 280 293 l 257
 110 0 l 257
 10 0 l 257
 238 367 l 257
 35 700 l 257
 135 700 l 257
 281 441 l 257
 430 700 l 257
EndSplineSet
EndChar

StartChar: K
Encoding: 75 75 20
GlifName: K_
Width: 565
VWidth: 0
Flags: HMW
LayerCount: 2
Fore
SplineSet
80 700 m 257
 165 700 l 257
 165 0 l 257
 80 0 l 257
 80 700 l 257
440 700 m 257
 545 700 l 257
 242 372 l 257
 560 0 l 257
 455 0 l 257
 139 370 l 257
 440 700 l 257
EndSplineSet
EndChar

StartChar: Y
Encoding: 89 89 21
GlifName: Y_
Width: 561
VWidth: 0
Flags: HMW
LayerCount: 2
Fore
SplineSet
461 700 m 257
 556 700 l 257
 323 302 l 257
 323 0 l 257
 238 0 l 257
 238 301 l 257
 5 700 l 257
 100 700 l 257
 280 376 l 257
 461 700 l 257
EndSplineSet
EndChar

StartChar: B
Encoding: 66 66 22
GlifName: B_
Width: 558
VWidth: 0
Flags: HMW
LayerCount: 2
Fore
SplineSet
147 370 m 257
 147 417 l 257
 260 417 l 258
 330 417 383 454 383 520 c 256
 383 586 330 625 260 625 c 258
 165 625 l 257
 165 75 l 257
 270 75 l 258
 360 75 423 124 423 210 c 256
 423 296 360 343 270 343 c 258
 147 343 l 257
 147 390 l 257
 270 390 l 258
 405 390 508 334 508 205 c 256
 508 66 405 0 270 0 c 258
 80 0 l 257
 80 700 l 257
 260 700 l 258
 385 700 468 644 468 525 c 256
 468 426 385 370 260 370 c 258
 147 370 l 257
EndSplineSet
EndChar

StartChar: Z
Encoding: 90 90 23
GlifName: Z_
Width: 545
VWidth: 0
Flags: HMW
LayerCount: 2
Fore
SplineSet
35 620 m 257
 35 700 l 257
 525 700 l 257
 157 80 l 257
 505 80 l 257
 505 0 l 257
 15 0 l 257
 383 620 l 257
 35 620 l 257
EndSplineSet
EndChar

StartChar: o
Encoding: 111 111 24
GlifName: o
Width: 546
VWidth: 0
Flags: HMW
LayerCount: 2
Fore
SplineSet
35 230 m 256
 35 369 138 470 273 470 c 256
 408 470 511 369 511 230 c 256
 511 91 408 -10 273 -10 c 256
 138 -10 35 91 35 230 c 256
116 230 m 256
 116 134 183 65 273 65 c 256
 363 65 430 134 430 230 c 256
 430 326 363 395 273 395 c 256
 183 395 116 326 116 230 c 256
EndSplineSet
EndChar

StartChar: J
Encoding: 74 74 25
GlifName: J_
Width: 240
VWidth: 0
Flags: HMW
LayerCount: 2
Fore
SplineSet
-67 -104 m 257
 -53 -127 -24 -140 12 -140 c 256
 42 -140 80 -116 80 -50 c 258
 80 700 l 257
 160 700 l 257
 160 -60 l 258
 160 -169 101 -220 7 -220 c 256
 -46 -220 -96 -190 -111 -170 c 257
 -67 -104 l 257
EndSplineSet
EndChar

StartChar: t
Encoding: 116 116 26
GlifName: t
Width: 240
VWidth: 0
Flags: HMW
LayerCount: 2
Fore
SplineSet
5 460 m 257
 235 460 l 257
 235 385 l 257
 5 385 l 257
 5 460 l 257
80 620 m 257
 160 620 l 257
 160 0 l 257
 80 0 l 257
 80 620 l 257
EndSplineSet
EndChar

StartChar: d
Encoding: 100 100 27
GlifName: d
Width: 570
VWidth: 0
Flags: HMW
LayerCount: 2
Fore
SplineSet
420 780 m 257
 500 780 l 257
 500 0 l 257
 420 0 l 257
 420 780 l 257
35 230 m 256
 35 379 138 470 263 470 c 256
 378 470 456 379 456 230 c 256
 456 81 378 -10 263 -10 c 256
 138 -10 35 81 35 230 c 256
116 230 m 256
 116 124 188 65 273 65 c 256
 343 65 420 124 420 230 c 256
 420 336 343 395 273 395 c 256
 188 395 116 336 116 230 c 256
EndSplineSet
EndChar

StartChar: l
Encoding: 108 108 28
GlifName: l
Width: 230
VWidth: 0
Flags: HMW
LayerCount: 2
Fore
SplineSet
75 780 m 257
 155 780 l 257
 155 0 l 257
 75 0 l 257
 75 780 l 257
EndSplineSet
EndChar

StartChar: i
Encoding: 105 105 29
GlifName: i
Width: 260
VWidth: 0
Flags: HMW
LayerCount: 2
Fore
SplineSet
75 650 m 256
 75 680 100 705 130 705 c 256
 160 705 185 680 185 650 c 256
 185 620 160 595 130 595 c 256
 100 595 75 620 75 650 c 256
90 460 m 257
 170 460 l 257
 170 0 l 257
 90 0 l 257
 90 460 l 257
EndSplineSet
EndChar

StartChar: r
Encoding: 114 114 30
GlifName: r
Width: 343
VWidth: 0
Flags: HMW
LayerCount: 2
Fore
SplineSet
155 460 m 257
 155 0 l 257
 75 0 l 257
 75 460 l 257
 155 460 l 257
294 372 m 257
 272 388 258 395 232 395 c 256
 172 395 155 346 155 280 c 257
 119 280 l 257
 119 389 187 470 252 470 c 256
 285 470 314 463 338 438 c 257
 294 372 l 257
EndSplineSet
EndChar

StartChar: c
Encoding: 99 99 31
GlifName: c
Width: 478
VWidth: 0
Flags: HMW
LayerCount: 2
Fore
SplineSet
111 230 m 256
 111 134 178 65 268 65 c 256
 342 65 407 104 428 149 c 257
 428 49 l 257
 396 11 331 -10 268 -10 c 256
 133 -10 30 91 30 230 c 256
 30 369 133 470 268 470 c 256
 331 470 396 448 428 411 c 257
 428 311 l 257
 407 356 342 395 268 395 c 256
 178 395 111 326 111 230 c 256
EndSplineSet
EndChar

StartChar: b
Encoding: 98 98 32
GlifName: b
Width: 570
VWidth: 0
Flags: HMW
LayerCount: 2
Fore
SplineSet
150 780 m 257
 150 0 l 257
 70 0 l 257
 70 780 l 257
 150 780 l 257
535 230 m 256
 535 81 432 -10 307 -10 c 256
 192 -10 114 81 114 230 c 256
 114 379 192 470 307 470 c 256
 432 470 535 379 535 230 c 256
454 230 m 256
 454 336 382 395 297 395 c 256
 227 395 150 336 150 230 c 256
 150 124 227 65 297 65 c 256
 382 65 454 124 454 230 c 256
EndSplineSet
EndChar

StartChar: p
Encoding: 112 112 33
GlifName: p
Width: 570
VWidth: 0
Flags: HMW
LayerCount: 2
Fore
SplineSet
150 -220 m 257
 70 -220 l 257
 70 460 l 257
 150 460 l 257
 150 -220 l 257
535 230 m 256
 535 81 432 -10 307 -10 c 256
 192 -10 114 81 114 230 c 256
 114 379 192 470 307 470 c 256
 432 470 535 379 535 230 c 256
454 230 m 256
 454 336 382 395 297 395 c 256
 227 395 150 336 150 230 c 256
 150 124 227 65 297 65 c 256
 382 65 454 124 454 230 c 256
EndSplineSet
EndChar

StartChar: q
Encoding: 113 113 34
GlifName: q
Width: 570
VWidth: 0
Flags: HMW
LayerCount: 2
Fore
SplineSet
420 -220 m 257
 420 460 l 257
 500 460 l 257
 500 -220 l 257
 420 -220 l 257
35 230 m 256
 35 379 138 470 263 470 c 256
 378 470 456 379 456 230 c 256
 456 81 378 -10 263 -10 c 256
 138 -10 35 81 35 230 c 256
116 230 m 256
 116 124 188 65 273 65 c 256
 343 65 420 124 420 230 c 256
 420 336 343 395 273 395 c 256
 188 395 116 336 116 230 c 256
EndSplineSet
EndChar

StartChar: h
Encoding: 104 104 35
GlifName: h
Width: 525
VWidth: 0
Flags: HMW
LayerCount: 2
Fore
SplineSet
155 780 m 257
 155 0 l 257
 75 0 l 257
 75 780 l 257
 155 780 l 257
370 280 m 258
 370 356 337 395 272 395 c 256
 202 395 155 346 155 280 c 257
 129 280 l 257
 129 389 197 470 292 470 c 256
 387 470 450 409 450 290 c 258
 450 0 l 257
 370 0 l 257
 370 280 l 258
EndSplineSet
EndChar

StartChar: n
Encoding: 110 110 36
GlifName: n
Width: 525
VWidth: 0
Flags: HMW
LayerCount: 2
Fore
SplineSet
155 460 m 257
 155 0 l 257
 75 0 l 257
 75 460 l 257
 155 460 l 257
370 280 m 258
 370 356 337 395 272 395 c 256
 202 395 155 346 155 280 c 257
 129 280 l 257
 129 389 197 470 292 470 c 256
 387 470 450 409 450 290 c 258
 450 0 l 257
 370 0 l 257
 370 280 l 258
EndSplineSet
EndChar

StartChar: m
Encoding: 109 109 37
GlifName: m
Width: 780
VWidth: 0
Flags: HMW
LayerCount: 2
Fore
SplineSet
350 280 m 258
 350 356 327 395 262 395 c 256
 192 395 155 346 155 280 c 257
 129 280 l 257
 129 389 187 470 282 470 c 256
 377 470 430 409 430 290 c 258
 430 0 l 257
 350 0 l 257
 350 280 l 258
155 460 m 257
 155 0 l 257
 75 0 l 257
 75 460 l 257
 155 460 l 257
705 290 m 258
 705 0 l 257
 625 0 l 257
 625 280 l 258
 625 356 602 395 537 395 c 256
 467 395 430 346 430 280 c 257
 389 280 l 257
 389 389 462 470 557 470 c 256
 652 470 705 409 705 290 c 258
EndSplineSet
EndChar

StartChar: k
Encoding: 107 107 38
GlifName: k
Width: 440
VWidth: 0
Flags: HMW
LayerCount: 2
Fore
SplineSet
70 780 m 257
 150 780 l 257
 150 0 l 257
 70 0 l 257
 70 780 l 257
320 460 m 257
 420 460 l 257
 220 270 l 257
 440 0 l 257
 340 0 l 257
 120 270 l 257
 320 460 l 257
EndSplineSet
EndChar

StartChar: u
Encoding: 117 117 39
GlifName: u
Width: 525
VWidth: 0
Flags: HMW
LayerCount: 2
Fore
SplineSet
370 0 m 257
 370 460 l 257
 450 460 l 257
 450 0 l 257
 370 0 l 257
155 180 m 258
 155 104 188 65 253 65 c 256
 323 65 370 114 370 180 c 257
 396 180 l 257
 396 71 328 -10 233 -10 c 256
 138 -10 75 51 75 170 c 258
 75 460 l 257
 155 460 l 257
 155 180 l 258
EndSplineSet
EndChar

StartChar: e
Encoding: 101 101 40
GlifName: e
Width: 515
VWidth: 0
Flags: HMW
LayerCount: 2
Fore
SplineSet
86 210 m 257
 86 278 l 257
 393 278 l 257
 385 350 343 400 263 400 c 256
 183 400 118 346 118 260 c 257
 116 230 l 257
 116 124 173 65 263 65 c 256
 330 65 376 98 407 148 c 257
 472 107 l 257
 426 37 372 -10 253 -10 c 256
 128 -10 35 91 35 230 c 256
 35 247 36 263 39 279 c 256
 58 392 144 470 263 470 c 256
 393 470 480 379 480 234 c 256
 480 226 480 218 479 210 c 257
 86 210 l 257
EndSplineSet
EndChar

StartChar: g
Encoding: 103 103 41
GlifName: g
Width: 570
VWidth: 0
Flags: HMW
LayerCount: 2
Fore
SplineSet
44 -30 m 257
 125 -30 l 257
 125 -96 182 -155 272 -155 c 256
 342 -155 420 -106 420 10 c 258
 420 460 l 257
 500 460 l 257
 500 10 l 258
 500 -149 387 -230 272 -230 c 256
 137 -230 44 -149 44 -30 c 257
35 230 m 256
 35 379 138 470 263 470 c 256
 378 470 456 379 456 230 c 256
 456 81 378 -10 263 -10 c 256
 138 -10 35 81 35 230 c 256
116 230 m 256
 116 124 188 65 273 65 c 256
 343 65 420 124 420 230 c 256
 420 336 343 395 273 395 c 256
 188 395 116 336 116 230 c 256
EndSplineSet
EndChar

StartChar: f
Encoding: 102 102 42
GlifName: f
Width: 286
VWidth: 0
Flags: HMW
LayerCount: 2
Fore
SplineSet
40 460 m 257
 270 460 l 257
 270 385 l 257
 40 385 l 257
 40 460 l 257
262 684 m 257
 248 707 229 710 213 710 c 256
 183 710 165 686 165 620 c 258
 165 0 l 257
 85 0 l 257
 85 630 l 258
 85 739 134 790 218 790 c 256
 261 790 291 770 306 750 c 257
 262 684 l 257
EndSplineSet
EndChar

StartChar: s
Encoding: 115 115 43
GlifName: s
Width: 403
VWidth: 0
Flags: HMW
LayerCount: 2
Fore
SplineSet
88 162 m 257
 120 106 171 65 215 65 c 256
 258 65 290 82 290 121 c 256
 290 169 239 190 186 211 c 256
 123 236 54 259 54 346 c 256
 54 432 129 470 203 470 c 256
 276 470 341 431 369 380 c 257
 305 339 l 257
 283 370 241 397 204 397 c 256
 164 397 132 385 132 349 c 256
 132 305 195 291 246 270 c 256
 311 243 373 207 373 130 c 256
 373 31 304 -10 215 -10 c 256
 130 -10 59 48 25 123 c 257
 88 162 l 257
EndSplineSet
EndChar

StartChar: y
Encoding: 121 121 44
GlifName: y
Width: 440
VWidth: 0
Flags: HMW
LayerCount: 2
Fore
SplineSet
440 460 m 257
 140 -220 l 257
 50 -220 l 257
 176 65 l 257
 0 460 l 257
 95 460 l 257
 241 100 l 257
 208 104 l 257
 350 460 l 257
 440 460 l 257
EndSplineSet
EndChar

StartChar: w
Encoding: 119 119 45
GlifName: w
Width: 680
VWidth: 0
Flags: HMW
LayerCount: 2
Fore
SplineSet
5 460 m 257
 95 460 l 257
 210 161 l 257
 335 495 l 257
 469 159 l 257
 585 460 l 257
 675 460 l 257
 475 -35 l 257
 336 300 l 257
 205 -35 l 257
 5 460 l 257
EndSplineSet
EndChar

StartChar: v
Encoding: 118 118 46
GlifName: v
Width: 440
VWidth: 0
Flags: HMW
LayerCount: 2
Fore
SplineSet
0 460 m 257
 90 460 l 257
 220 135 l 257
 350 460 l 257
 440 460 l 257
 220 -35 l 257
 0 460 l 257
EndSplineSet
EndChar

StartChar: x
Encoding: 120 120 47
GlifName: x
Width: 420
VWidth: 0
Flags: HMW
LayerCount: 2
Fore
SplineSet
320 460 m 257
 410 460 l 257
 253 237 l 257
 420 0 l 257
 330 0 l 257
 210 174 l 257
 90 0 l 257
 0 0 l 257
 167 237 l 257
 10 460 l 257
 100 460 l 257
 210 300 l 257
 320 460 l 257
EndSplineSet
EndChar

StartChar: z
Encoding: 122 122 48
GlifName: z
Width: 460
VWidth: 0
Flags: HMW
LayerCount: 2
Fore
SplineSet
300 385 m 257
 45 385 l 257
 45 460 l 257
 445 460 l 257
 160 75 l 257
 425 75 l 257
 425 0 l 257
 15 0 l 257
 300 385 l 257
EndSplineSet
EndChar

StartChar: j
Encoding: 106 106 49
GlifName: j
Width: 250
VWidth: 0
Flags: HMW
LayerCount: 2
Fore
SplineSet
65 650 m 256
 65 680 90 705 120 705 c 256
 150 705 175 680 175 650 c 256
 175 620 150 595 120 595 c 256
 90 595 65 620 65 650 c 256
-17 -114 m 257
 -3 -137 16 -140 32 -140 c 256
 62 -140 80 -116 80 -50 c 258
 80 460 l 257
 160 460 l 257
 160 -60 l 258
 160 -169 111 -220 27 -220 c 256
 -16 -220 -46 -200 -61 -180 c 257
 -17 -114 l 257
EndSplineSet
EndChar

StartChar: P
Encoding: 80 80 50
GlifName: P_
Width: 548
VWidth: 0
Flags: HMW
LayerCount: 2
Fore
SplineSet
80 700 m 257
 165 700 l 257
 165 0 l 257
 80 0 l 257
 80 700 l 257
127 620 m 257
 127 700 l 257
 270 700 l 258
 405 700 508 619 508 490 c 256
 508 361 405 280 270 280 c 258
 127 280 l 257
 127 360 l 257
 270 360 l 258
 360 360 423 404 423 490 c 256
 423 576 360 620 270 620 c 258
 127 620 l 257
EndSplineSet
EndChar

StartChar: U
Encoding: 85 85 51
GlifName: U_
Width: 626
VWidth: 0
Flags: HMW
LayerCount: 2
Fore
SplineSet
75 700 m 257
 160 700 l 257
 160 230 l 258
 160 134 213 70 313 70 c 256
 413 70 466 134 466 230 c 258
 466 700 l 257
 551 700 l 257
 551 230 l 258
 551 91 458 -10 313 -10 c 256
 168 -10 75 91 75 230 c 258
 75 700 l 257
EndSplineSet
EndChar

StartChar: S
Encoding: 83 83 52
GlifName: S_
Width: 548
VWidth: 0
Flags: HMW
LayerCount: 2
Fore
SplineSet
112 226 m 257
 154 130 208 70 295 70 c 256
 375 70 415 113 415 183 c 256
 415 273 331 309 251 338 c 256
 181 363 75 401 75 530 c 256
 75 636 154 710 278 710 c 256
 391 710 457 641 494 560 c 257
 425 514 l 257
 395 572 346 629 269 629 c 256
 199 629 164 590 164 529 c 256
 164 461 241 428 326 396 c 256
 399 369 503 317 503 190 c 256
 503 71 419 -10 290 -10 c 256
 175 -10 84 68 40 183 c 257
 112 226 l 257
EndSplineSet
EndChar

StartChar: at
Encoding: 64 64 53
GlifName: at
Width: 770
VWidth: 0
Flags: HMW
LayerCount: 2
Fore
SplineSet
266 320 m 256
 266 264 293 230 348 230 c 256
 398 230 465 264 465 370 c 256
 465 426 428 460 378 460 c 256
 323 460 266 406 266 320 c 256
190 317 m 256
 190 456 293 530 378 530 c 256
 463 530 501 449 501 370 c 256
 501 231 423 160 328 160 c 256
 255 160 190 218 190 317 c 256
35 320 m 256
 35 539 191 710 415 710 c 256
 629 710 735 549 735 390 c 256
 735 214 631 150 556 150 c 256
 495 150 456 204 466 270 c 257
 459 270 l 257
 495 520 l 257
 570 520 l 257
 529 289 l 258
 528 282 527 270 527 262 c 256
 527 238 533 216 566 216 c 256
 596 216 665 264 665 390 c 256
 665 523 583 645 415 645 c 256
 227 645 105 503 105 320 c 256
 105 157 207 55 365 55 c 256
 435 55 500 65 566 107 c 257
 601 50 l 257
 541 14 479 -10 365 -10 c 256
 151 -10 35 121 35 320 c 256
EndSplineSet
EndChar

StartChar: period
Encoding: 46 46 54
GlifName: period
Width: 300
VWidth: 0
Flags: HMW
LayerCount: 2
Fore
SplineSet
95 40 m 256
 95 70 120 95 150 95 c 256
 180 95 205 70 205 40 c 256
 205 10 180 -15 150 -15 c 256
 120 -15 95 10 95 40 c 256
EndSplineSet
EndChar

StartChar: comma
Encoding: 44 44 55
GlifName: comma
Width: 308
VWidth: 0
Flags: HMW
LayerCount: 2
Fore
SplineSet
148 110 m 257
 228 80 l 257
 118 -170 l 257
 60 -149 l 257
 148 110 l 257
EndSplineSet
EndChar

StartChar: colon
Encoding: 58 58 56
GlifName: colon
Width: 300
VWidth: 0
Flags: HMW
LayerCount: 2
Fore
SplineSet
95 40 m 256
 95 70 120 95 150 95 c 256
 180 95 205 70 205 40 c 256
 205 10 180 -15 150 -15 c 256
 120 -15 95 10 95 40 c 256
95 420 m 256
 95 450 120 475 150 475 c 256
 180 475 205 450 205 420 c 256
 205 390 180 365 150 365 c 256
 120 365 95 390 95 420 c 256
EndSplineSet
EndChar

StartChar: semicolon
Encoding: 59 59 57
GlifName: semicolon
Width: 330
VWidth: 0
Flags: HMW
LayerCount: 2
Fore
SplineSet
125 420 m 256
 125 450 150 475 180 475 c 256
 210 475 235 450 235 420 c 256
 235 390 210 365 180 365 c 256
 150 365 125 390 125 420 c 256
148 110 m 257
 228 80 l 257
 118 -170 l 257
 60 -149 l 257
 148 110 l 257
EndSplineSet
EndChar

StartChar: quotedbl
Encoding: 34 34 58
GlifName: quotedbl
Width: 465
VWidth: 0
Flags: HMW
LayerCount: 2
Fore
SplineSet
130 700 m 257
 225 700 l 257
 135 400 l 257
 80 400 l 257
 130 700 l 257
310 700 m 257
 405 700 l 257
 315 400 l 257
 260 400 l 257
 310 700 l 257
EndSplineSet
EndChar

StartChar: exclam
Encoding: 33 33 59
GlifName: exclam
Width: 300
VWidth: 0
Flags: HMW
LayerCount: 2
Fore
SplineSet
100 700 m 257
 200 700 l 257
 180 200 l 257
 120 200 l 257
 100 700 l 257
95 40 m 256
 95 70 120 95 150 95 c 256
 180 95 205 70 205 40 c 256
 205 10 180 -15 150 -15 c 256
 120 -15 95 10 95 40 c 256
EndSplineSet
EndChar

StartChar: quotesingle
Encoding: 39 39 60
GlifName: quotesingle
Width: 285
VWidth: 0
Flags: HMW
LayerCount: 2
Fore
SplineSet
130 700 m 257
 225 700 l 257
 135 400 l 257
 80 400 l 257
 130 700 l 257
EndSplineSet
EndChar

StartChar: numbersign
Encoding: 35 35 61
GlifName: numbersign
Width: 605
VWidth: 0
Flags: HMW
LayerCount: 2
Fore
SplineSet
75 440 m 257
 75 505 l 257
 570 505 l 257
 570 440 l 257
 430 440 l 256
 416 440 l 256
 224 440 l 256
 210 440 l 256
 75 440 l 257
35 200 m 257
 35 265 l 257
 166 265 l 256
 182 265 l 256
 382 265 l 256
 402 265 l 256
 530 265 l 257
 530 200 l 257
 35 200 l 257
455 700 m 257
 530 700 l 257
 360 0 l 257
 285 0 l 257
 340 228 l 256
 345 246 l 256
 397 462 l 256
 401 478 l 256
 455 700 l 257
245 700 m 257
 320 700 l 257
 267 482 l 256
 263 466 l 256
 209 244 l 256
 205 226 l 256
 150 0 l 257
 75 0 l 257
 245 700 l 257
EndSplineSet
EndChar

StartChar: hyphen
Encoding: 45 45 62
GlifName: hyphen
Width: 210
VWidth: 0
Flags: HMW
LayerCount: 2
Fore
SplineSet
5 200 m 257
 5 275 l 257
 205 275 l 257
 205 200 l 257
 5 200 l 257
EndSplineSet
EndChar

StartChar: dollar
Encoding: 36 36 63
GlifName: dollar
Width: 580
VWidth: 0
Flags: HMW
LayerCount: 2
Fore
SplineSet
259 818 m 257
 333 818 l 257
 333 668 l 257
 259 668 l 257
 259 818 l 257
259 48 m 257
 333 48 l 257
 333 -112 l 257
 259 -112 l 257
 259 48 l 257
440 514 m 257
 410 572 371 629 294 629 c 256
 214 629 179 595 179 534 c 256
 179 458 256 428 341 396 c 256
 414 369 518 317 518 190 c 256
 518 71 444 -10 305 -10 c 256
 190 -10 99 68 55 183 c 257
 127 226 l 257
 169 130 223 70 310 70 c 256
 390 70 430 113 430 183 c 256
 430 273 346 309 266 338 c 256
 196 363 90 413 90 540 c 256
 90 636 179 710 293 710 c 256
 406 710 481 631 509 560 c 257
 440 514 l 257
EndSplineSet
EndChar

StartChar: bar
Encoding: 124 124 64
GlifName: bar
Width: 274
VWidth: 0
Flags: HMW
LayerCount: 2
Fore
SplineSet
100 785 m 257
 174 785 l 257
 174 -215 l 257
 100 -215 l 257
 100 785 l 257
EndSplineSet
EndChar

StartChar: zero
Encoding: 48 48 65
GlifName: zero
Width: 600
VWidth: 0
Flags: HMW
LayerCount: 2
Fore
SplineSet
125 350 m 256
 125 187 192 70 300 70 c 256
 408 70 475 187 475 350 c 256
 475 513 408 630 300 630 c 256
 192 630 125 513 125 350 c 256
40 350 m 256
 40 559 146 710 300 710 c 256
 454 710 560 559 560 350 c 256
 560 141 454 -10 300 -10 c 256
 146 -10 40 141 40 350 c 256
EndSplineSet
Substitution2: "Tabular Numbers lookup" uniFF10
EndChar

StartChar: one
Encoding: 49 49 66
GlifName: one
Width: 450
VWidth: 0
Flags: HMW
LayerCount: 2
Fore
SplineSet
80 562 m 257
 80 650 l 257
 320 710 l 257
 320 0 l 257
 235 0 l 257
 235 608 l 257
 80 562 l 257
EndSplineSet
Substitution2: "Tabular Numbers lookup" uniFF11
EndChar

StartChar: two
Encoding: 50 50 67
GlifName: two
Width: 569
VWidth: 0
Flags: HMW
LayerCount: 2
Fore
SplineSet
20 0 m 257
 351 353 l 258
 397 402 424 450 424 506 c 256
 424 567 374 631 289 631 c 256
 199 631 145 566 145 460 c 257
 60 460 l 257
 60 609 144 711 289 711 c 256
 443 711 511 593 511 509 c 256
 511 437 473 363 418 307 c 258
 195 80 l 257
 514 80 l 257
 514 0 l 257
 20 0 l 257
EndSplineSet
Substitution2: "Tabular Numbers lookup" uniFF12
EndChar

StartChar: four
Encoding: 52 52 68
GlifName: four
Width: 583
VWidth: 0
Flags: HMW
LayerCount: 2
Fore
SplineSet
20 140 m 257
 408 700 l 257
 443 700 l 257
 443 0 l 257
 358 0 l 257
 358 176 l 257
 358 187 l 257
 358 511 l 257
 160 215 l 257
 393 215 l 257
 410 215 l 257
 553 215 l 257
 553 140 l 257
 20 140 l 257
EndSplineSet
Substitution2: "Tabular Numbers lookup" uniFF14
EndChar

StartChar: slash
Encoding: 47 47 69
GlifName: slash
Width: 515
VWidth: 0
Flags: HMW
LayerCount: 2
Fore
SplineSet
420 700 m 257
 500 700 l 257
 95 -150 l 257
 15 -150 l 257
 420 700 l 257
EndSplineSet
EndChar

StartChar: backslash
Encoding: 92 92 70
GlifName: backslash
Width: 515
VWidth: 0
Flags: HMW
LayerCount: 2
Fore
SplineSet
15 700 m 257
 100 700 l 257
 500 0 l 257
 415 0 l 257
 15 700 l 257
EndSplineSet
EndChar

StartChar: eight
Encoding: 56 56 71
GlifName: eight
Width: 546
VWidth: 0
Flags: HMW
LayerCount: 2
Fore
SplineSet
80 531 m 256
 80 630 163 710 273 710 c 256
 383 710 466 630 466 531 c 256
 466 422 388 355 273 355 c 256
 158 355 80 422 80 531 c 256
161 521 m 256
 161 455 213 410 273 410 c 256
 333 410 385 455 385 521 c 256
 385 587 338 635 273 635 c 256
 208 635 161 587 161 521 c 256
55 190 m 256
 55 319 158 390 273 390 c 256
 388 390 491 319 491 190 c 256
 491 81 398 -10 273 -10 c 256
 148 -10 55 81 55 190 c 256
136 200 m 256
 136 114 203 65 273 65 c 256
 343 65 410 114 410 200 c 256
 410 276 343 335 273 335 c 256
 203 335 136 276 136 200 c 256
EndSplineSet
Substitution2: "Tabular Numbers lookup" uniFF18
EndChar

StartChar: nine
Encoding: 57 57 72
GlifName: nine
Width: 576
VWidth: 0
Flags: HMW
LayerCount: 2
Fore
SplineSet
445 470 m 256
 445 566 378 633 288 633 c 256
 198 633 131 566 131 470 c 256
 131 374 198 305 288 305 c 256
 378 305 445 374 445 470 c 256
246 0 m 257
 139 0 l 257
 358 289 l 257
 364 284 l 257
 337 251 302 243 257 243 c 256
 143 243 50 341 50 470 c 256
 50 614 153 710 288 710 c 256
 423 710 526 614 526 470 c 256
 526 413 509 362 482 325 c 258
 246 0 l 257
EndSplineSet
Substitution2: "Tabular Numbers lookup" uniFF19
EndChar

StartChar: three
Encoding: 51 51 73
GlifName: three
Width: 546
VWidth: 0
Flags: HMW
LayerCount: 2
Fore
SplineSet
253 345 m 257
 253 400 l 257
 343 400 394 455 394 521 c 256
 394 587 358 633 288 633 c 256
 223 633 171 587 171 526 c 257
 90 526 l 257
 90 635 172 710 287 710 c 256
 407 710 481 623 481 524 c 256
 481 425 388 345 253 345 c 257
283 -10 m 256
 148 -10 60 76 60 185 c 257
 146 185 l 257
 146 119 203 70 283 70 c 256
 363 70 414 119 414 195 c 256
 414 281 343 325 253 325 c 257
 253 380 l 257
 388 380 501 324 501 185 c 256
 501 66 408 -10 283 -10 c 256
EndSplineSet
Substitution2: "Tabular Numbers lookup" uniFF13
EndChar

StartChar: five
Encoding: 53 53 74
GlifName: five
Width: 564
VWidth: 0
Flags: HMW
LayerCount: 2
Fore
SplineSet
524 230 m 256
 524 71 414 -10 279 -10 c 256
 150 -10 76 57 30 137 c 257
 102 186 l 257
 133 126 202 70 279 70 c 256
 379 70 436 134 436 230 c 256
 436 326 369 390 279 390 c 256
 212 390 171 377 100 327 c 257
 192 700 l 257
 522 700 l 257
 522 625 l 257
 258 625 l 257
 211 440 l 257
 244 457 280 466 315 466 c 256
 435 466 524 369 524 230 c 256
EndSplineSet
Substitution2: "Tabular Numbers lookup" uniFF15
EndChar

StartChar: six
Encoding: 54 54 75
GlifName: six
Width: 576
VWidth: 0
Flags: HMW
LayerCount: 2
Fore
SplineSet
131 230 m 256
 131 134 198 67 288 67 c 256
 378 67 445 134 445 230 c 256
 445 326 378 395 288 395 c 256
 198 395 131 326 131 230 c 256
330 700 m 257
 437 700 l 257
 218 411 l 257
 212 416 l 257
 239 449 274 457 319 457 c 256
 433 457 526 359 526 230 c 256
 526 86 423 -10 288 -10 c 256
 153 -10 50 86 50 230 c 256
 50 287 67 338 94 375 c 258
 330 700 l 257
EndSplineSet
Substitution2: "Tabular Numbers lookup" uniFF16
EndChar

StartChar: seven
Encoding: 55 55 76
GlifName: seven
Width: 525
VWidth: 0
Flags: HMW
LayerCount: 2
Fore
SplineSet
30 620 m 257
 30 700 l 257
 520 700 l 257
 185 0 l 257
 96 0 l 257
 393 620 l 257
 30 620 l 257
EndSplineSet
Substitution2: "Tabular Numbers lookup" uniFF17
EndChar

StartChar: plus
Encoding: 43 43 77
GlifName: plus
Width: 615
VWidth: 0
Flags: HMW
LayerCount: 2
Fore
SplineSet
65 215 m 257
 65 295 l 257
 550 295 l 257
 550 215 l 257
 65 215 l 257
265 500 m 257
 350 500 l 257
 350 10 l 257
 265 10 l 257
 265 500 l 257
EndSplineSet
EndChar

StartChar: equal
Encoding: 61 61 78
GlifName: equal
Width: 615
VWidth: 0
Flags: HMW
LayerCount: 2
Fore
SplineSet
65 140 m 257
 65 215 l 257
 550 215 l 257
 550 140 l 257
 65 140 l 257
65 290 m 257
 65 365 l 257
 550 365 l 257
 550 290 l 257
 65 290 l 257
EndSplineSet
EndChar

StartChar: percent
Encoding: 37 37 79
GlifName: percent
Width: 751
VWidth: 0
Flags: HMW
LayerCount: 2
Fore
SplineSet
35 550 m 256
 35 639 98 710 193 710 c 256
 288 710 351 639 351 550 c 256
 351 461 288 390 193 390 c 256
 98 390 35 461 35 550 c 256
106 550 m 256
 106 499 138 455 193 455 c 256
 248 455 280 499 280 550 c 256
 280 601 248 645 193 645 c 256
 138 645 106 601 106 550 c 256
400 150 m 256
 400 239 463 310 558 310 c 256
 653 310 716 239 716 150 c 256
 716 61 653 -10 558 -10 c 256
 463 -10 400 61 400 150 c 256
471 150 m 256
 471 99 503 55 558 55 c 256
 613 55 645 99 645 150 c 256
 645 201 613 245 558 245 c 256
 503 245 471 201 471 150 c 256
563 700 m 257
 638 700 l 257
 188 0 l 257
 113 0 l 257
 563 700 l 257
EndSplineSet
EndChar

StartChar: ampersand
Encoding: 38 38 80
GlifName: ampersand
Width: 675
VWidth: 0
Flags: HMW
LayerCount: 2
Fore
SplineSet
223 384 m 258
 190 422 117 479 117 556 c 256
 117 650 188 711 288 711 c 256
 393 711 456 638 456 554 c 256
 456 487 402 425 309 370 c 256
 236 327 125 288 125 188 c 256
 125 112 190 64 270 64 c 256
 397 64 507 186 602 316 c 257
 664 277 l 257
 558 137 444 -10 265 -10 c 256
 150 -10 40 64 40 183 c 256
 40 330 186 379 254 417 c 256
 329 459 375 508 375 554 c 256
 375 605 343 640 288 640 c 256
 233 640 201 607 201 556 c 256
 201 510 245 471 285 425 c 258
 655 0 l 257
 559 0 l 257
 223 384 l 258
EndSplineSet
EndChar

StartChar: question
Encoding: 63 63 81
GlifName: question
Width: 557
VWidth: 0
Flags: HMW
LayerCount: 2
Fore
SplineSet
416 500 m 256
 416 586 359 635 269 635 c 256
 202 635 156 602 125 552 c 257
 60 593 l 257
 106 663 160 710 279 710 c 256
 404 710 497 619 497 500 c 256
 497 385 396 296 285 290 c 257
 278 170 l 257
 218 170 l 257
 198 345 l 257
 224 345 l 258
 344 345 416 424 416 500 c 256
195 40 m 256
 195 70 220 95 250 95 c 256
 280 95 305 70 305 40 c 256
 305 10 280 -15 250 -15 c 256
 220 -15 195 10 195 40 c 256
EndSplineSet
EndChar

StartChar: parenleft
Encoding: 40 40 82
GlifName: parenleft
Width: 310
VWidth: 0
Flags: HMW
LayerCount: 2
Fore
SplineSet
205 780 m 257
 280 780 l 257
 210 630 180 460 180 290 c 256
 180 120 210 -50 280 -200 c 257
 205 -200 l 257
 125 -50 90 120 90 290 c 256
 90 460 125 630 205 780 c 257
EndSplineSet
EndChar

StartChar: parenright
Encoding: 41 41 83
GlifName: parenright
Width: 310
VWidth: 0
Flags: HMW
LayerCount: 2
Fore
SplineSet
105 -200 m 257
 30 -200 l 257
 100 -50 130 120 130 290 c 256
 130 460 100 630 30 780 c 257
 105 780 l 257
 185 630 220 460 220 290 c 256
 220 120 185 -50 105 -200 c 257
EndSplineSet
EndChar

StartChar: asterisk
Encoding: 42 42 84
GlifName: asterisk
Width: 592
VWidth: 0
Flags: HMW
LayerCount: 2
Fore
SplineSet
471 599 m 257
 492 532 l 257
 304 481 l 257
 288 529 l 257
 471 599 l 257
439 368 m 257
 382 327 l 257
 276 490 l 257
 316 520 l 257
 439 368 l 257
210 327 m 257
 153 368 l 257
 276 520 l 257
 316 490 l 257
 210 327 l 257
100 532 m 257
 121 599 l 257
 304 529 l 257
 288 481 l 257
 100 532 l 257
261 700 m 257
 331 700 l 257
 321 505 l 257
 271 505 l 257
 261 700 l 257
EndSplineSet
EndChar

StartChar: less
Encoding: 60 60 85
GlifName: less
Width: 640
VWidth: 0
Flags: HMW
LayerCount: 2
Fore
SplineSet
197 262 m 257
 575 95 l 257
 575 15 l 257
 65 235 l 257
 65 280 l 257
 575 500 l 257
 575 420 l 257
 197 262 l 257
EndSplineSet
EndChar

StartChar: greater
Encoding: 62 62 86
GlifName: greater
Width: 640
VWidth: 0
Flags: HMW
LayerCount: 2
Fore
SplineSet
443 253 m 257
 65 420 l 257
 65 500 l 257
 575 280 l 257
 575 235 l 257
 65 15 l 257
 65 95 l 257
 443 253 l 257
EndSplineSet
EndChar

StartChar: bracketleft
Encoding: 91 91 87
GlifName: bracketleft
Width: 300
VWidth: 0
Flags: HMW
LayerCount: 2
Fore
SplineSet
179 705 m 257
 179 -145 l 257
 280 -145 l 257
 280 -220 l 257
 100 -220 l 257
 100 780 l 257
 280 780 l 257
 280 705 l 257
 179 705 l 257
EndSplineSet
EndChar

StartChar: bracketright
Encoding: 93 93 88
GlifName: bracketright
Width: 300
VWidth: 0
Flags: HMW
LayerCount: 2
Fore
SplineSet
121 -145 m 257
 121 705 l 257
 20 705 l 257
 20 780 l 257
 200 780 l 257
 200 -220 l 257
 20 -220 l 257
 20 -145 l 257
 121 -145 l 257
EndSplineSet
EndChar

StartChar: asciicircum
Encoding: 94 94 89
GlifName: asciicircum
Width: 510
VWidth: 0
Flags: HMW
LayerCount: 2
Fore
SplineSet
255 621 m 257
 145 460 l 257
 65 460 l 257
 235 710 l 257
 275 710 l 257
 445 460 l 257
 365 460 l 257
 255 621 l 257
EndSplineSet
EndChar

StartChar: underscore
Encoding: 95 95 90
GlifName: underscore
Width: 500
VWidth: 0
Flags: HMW
LayerCount: 2
Fore
SplineSet
0 -133 m 257
 0 -78 l 257
 500 -78 l 257
 500 -133 l 257
 0 -133 l 257
EndSplineSet
EndChar

StartChar: grave
Encoding: 96 96 91
GlifName: grave
Width: 375
VWidth: 0
Flags: HMW
LayerCount: 2
Fore
SplineSet
75 660 m 257
 150 700 l 257
 300 540 l 257
 255 510 l 257
 75 660 l 257
EndSplineSet
EndChar

StartChar: braceleft
Encoding: 123 123 92
GlifName: braceleft
Width: 311
VWidth: 0
Flags: HMW
LayerCount: 2
Fore
SplineSet
178 660 m 258
 178 490 l 258
 178 401 174 280 65 280 c 257
 65 300 l 257
 174 300 178 179 178 90 c 258
 178 -80 l 258
 178 -106 196 -130 226 -130 c 258
 261 -130 l 257
 261 -200 l 257
 201 -200 l 258
 157 -200 98 -159 98 -60 c 258
 98 150 l 258
 98 226 80 250 50 260 c 257
 50 320 l 257
 80 330 98 354 98 430 c 258
 98 640 l 258
 98 739 157 780 201 780 c 258
 261 780 l 257
 261 710 l 257
 226 710 l 258
 196 710 178 686 178 660 c 258
EndSplineSet
EndChar

StartChar: braceright
Encoding: 125 125 93
GlifName: braceright
Width: 311
VWidth: 0
Flags: HMW
LayerCount: 2
Fore
SplineSet
142 -80 m 258
 142 90 l 258
 142 179 146 300 255 300 c 257
 255 280 l 257
 146 280 142 401 142 490 c 258
 142 660 l 258
 142 686 124 710 94 710 c 258
 59 710 l 257
 59 780 l 257
 119 780 l 258
 163 780 222 739 222 640 c 258
 222 430 l 258
 222 354 240 330 270 320 c 257
 270 260 l 257
 240 250 222 226 222 150 c 258
 222 -60 l 258
 222 -159 163 -200 119 -200 c 258
 59 -200 l 257
 59 -130 l 257
 94 -130 l 258
 124 -130 142 -106 142 -80 c 258
EndSplineSet
EndChar

StartChar: asciitilde
Encoding: 126 126 94
GlifName: asciitilde
Width: 575
VWidth: 0
Flags: HMW
LayerCount: 2
Fore
SplineSet
142 176 m 257
 68 181 l 257
 66 188 65 196 65 205 c 256
 65 226 71 251 89 275 c 256
 115 310 152 327 194 327 c 256
 233 327 275 311 317 279 c 256
 347 256 372 247 390 247 c 256
 419 247 432 264 432 296 c 256
 432 304 431 313 427 323 c 257
 506 318 l 257
 508 310 510 300 510 290 c 256
 510 270 505 242 488 219 c 256
 462 185 430 172 394 172 c 256
 360 172 322 188 279 220 c 256
 249 243 218 253 193 253 c 256
 157 253 138 233 138 198 c 256
 138 191 139 184 142 176 c 257
EndSplineSet
EndChar

StartChar: exclamdown
Encoding: 161 161 95
GlifName: exclamdown
Width: 300
VWidth: 0
Flags: HMW
LayerCount: 2
Fore
SplineSet
200 -245 m 257
 100 -245 l 257
 120 255 l 257
 180 255 l 257
 200 -245 l 257
205 415 m 256
 205 385 180 360 150 360 c 256
 120 360 95 385 95 415 c 256
 95 445 120 470 150 470 c 256
 180 470 205 445 205 415 c 256
EndSplineSet
EndChar

StartChar: cent
Encoding: 162 162 96
GlifName: cent
Width: 580
VWidth: 0
Flags: HMW
LayerCount: 2
Fore
SplineSet
280 38 m 257
 344 38 l 257
 344 -112 l 257
 280 -112 l 257
 280 38 l 257
162 230 m 256
 162 134 229 65 319 65 c 256
 393 65 458 104 479 149 c 257
 479 49 l 257
 447 11 382 -10 319 -10 c 256
 184 -10 81 91 81 230 c 256
 81 369 184 470 319 470 c 256
 382 470 447 448 479 411 c 257
 479 311 l 257
 458 356 393 395 319 395 c 256
 229 395 162 326 162 230 c 256
280 578 m 257
 344 578 l 257
 344 428 l 257
 280 428 l 257
 280 578 l 257
EndSplineSet
EndChar

StartChar: sterling
Encoding: 163 163 97
GlifName: sterling
Width: 580
VWidth: 0
Flags: HMW
LayerCount: 2
Fore
SplineSet
67 370 m 257
 427 370 l 257
 427 295 l 257
 67 295 l 257
 67 370 l 257
450 479 m 257
 446 552 407 626 321 626 c 256
 261 626 203 596 203 520 c 256
 203 404 298 376 298 264 c 256
 298 158 226 70 152 50 c 257
 154 80 l 257
 517 80 l 257
 517 0 l 257
 64 0 l 257
 162 102 217 161 217 249 c 256
 217 343 116 382 116 518 c 256
 116 637 202 710 321 710 c 256
 454 710 516 588 521 508 c 257
 450 479 l 257
EndSplineSet
EndChar

StartChar: currency
Encoding: 164 164 98
GlifName: currency
Width: 580
VWidth: 0
Flags: HMW
LayerCount: 2
Fore
SplineSet
37 503 m 257
 87 553 l 257
 180 459 l 257
 131 410 l 257
 37 503 l 257
87 47 m 257
 37 97 l 257
 131 190 l 257
 180 141 l 257
 87 47 l 257
449 410 m 257
 399 459 l 257
 493 553 l 257
 542 503 l 257
 449 410 l 257
399 141 m 257
 449 190 l 257
 542 97 l 257
 493 47 l 257
 399 141 l 257
52 300 m 256
 52 439 155 540 290 540 c 256
 425 540 528 439 528 300 c 256
 528 161 425 60 290 60 c 256
 155 60 52 161 52 300 c 256
133 300 m 256
 133 204 200 135 290 135 c 256
 380 135 447 204 447 300 c 256
 447 396 380 465 290 465 c 256
 200 465 133 396 133 300 c 256
EndSplineSet
EndChar

StartChar: yen
Encoding: 165 165 99
GlifName: yen
Width: 580
VWidth: 0
Flags: HMW
LayerCount: 2
Fore
SplineSet
45 290 m 257
 45 365 l 257
 530 365 l 257
 530 290 l 257
 45 290 l 257
45 140 m 257
 45 215 l 257
 530 215 l 257
 530 140 l 257
 45 140 l 257
471 700 m 257
 565 700 l 257
 334 306 l 257
 334 0 l 257
 248 0 l 257
 248 303 l 257
 15 700 l 257
 110 700 l 257
 290 376 l 257
 471 700 l 257
EndSplineSet
EndChar

StartChar: brokenbar
Encoding: 166 166 100
GlifName: brokenbar
Width: 274
VWidth: 0
Flags: HMW
LayerCount: 2
Fore
SplineSet
100 695 m 257
 174 695 l 257
 174 455 l 257
 100 455 l 257
 100 695 l 257
174 245 m 257
 174 5 l 257
 100 5 l 257
 100 245 l 257
 174 245 l 257
EndSplineSet
EndChar

StartChar: section
Encoding: 167 167 101
GlifName: section
Width: 408
VWidth: 0
Flags: HMW
LayerCount: 2
Fore
SplineSet
310 579 m 257
 290 617 246 634 209 634 c 256
 169 634 139 620 139 589 c 256
 139 553 200 527 251 506 c 256
 316 479 378 437 378 370 c 256
 378 271 309 240 210 240 c 257
 210 275 l 257
 260 275 295 323 295 363 c 256
 295 413 244 434 191 455 c 256
 128 480 59 512 59 589 c 256
 59 665 134 710 208 710 c 256
 281 710 356 671 374 620 c 257
 310 579 l 257
96 161 m 257
 108 105 158 65 215 65 c 256
 265 65 295 83 295 123 c 256
 295 173 244 194 191 215 c 256
 128 240 59 282 59 359 c 256
 59 435 114 480 228 480 c 257
 228 454 l 257
 168 434 139 410 139 369 c 256
 139 303 200 287 251 266 c 256
 316 239 378 197 378 130 c 256
 378 31 309 -10 210 -10 c 256
 125 -10 44 48 30 123 c 257
 96 161 l 257
EndSplineSet
EndChar

StartChar: dieresis
Encoding: 168 168 102
GlifName: dieresis
Width: 470
VWidth: 0
Flags: HMW
LayerCount: 2
Fore
SplineSet
280 660 m 256
 280 690 305 715 335 715 c 256
 365 715 390 690 390 660 c 256
 390 630 365 605 335 605 c 256
 305 605 280 630 280 660 c 256
80 660 m 256
 80 690 105 715 135 715 c 256
 165 715 190 690 190 660 c 256
 190 630 165 605 135 605 c 256
 105 605 80 630 80 660 c 256
EndSplineSet
EndChar

StartChar: copyright
Encoding: 169 169 103
GlifName: copyright
Width: 800
VWidth: 0
Flags: HMW
LayerCount: 2
Fore
SplineSet
239 350 m 256
 239 252 306 185 395 185 c 256
 454 185 501 210 530 247 c 257
 530 180 l 257
 495 149 456 134 395 134 c 256
 279 134 185 225 185 350 c 256
 185 475 279 566 395 566 c 256
 456 566 495 551 530 520 c 257
 530 453 l 257
 501 490 454 515 395 515 c 256
 306 515 239 448 239 350 c 256
95 350 m 256
 95 172 227 40 400 40 c 256
 573 40 705 172 705 350 c 256
 705 528 573 660 400 660 c 256
 227 660 95 528 95 350 c 256
40 350 m 256
 40 559 196 710 400 710 c 256
 604 710 760 559 760 350 c 256
 760 141 604 -10 400 -10 c 256
 196 -10 40 141 40 350 c 256
EndSplineSet
EndChar

StartChar: registered
Encoding: 174 174 104
GlifName: registered
Width: 800
VWidth: 0
Flags: HMW
LayerCount: 2
Fore
SplineSet
349 357 m 257
 406 357 l 257
 556 150 l 257
 493 150 l 257
 349 357 l 257
274 570 m 257
 325 570 l 257
 325 150 l 257
 274 150 l 257
 274 570 l 257
302 525 m 257
 302 570 l 257
 388 570 l 258
 469 570 531 521 531 444 c 256
 531 367 469 318 388 318 c 258
 302 318 l 257
 302 363 l 257
 388 363 l 258
 442 363 480 392 480 444 c 256
 480 496 442 525 388 525 c 258
 302 525 l 257
95 350 m 256
 95 172 227 40 400 40 c 256
 573 40 705 172 705 350 c 256
 705 528 573 660 400 660 c 256
 227 660 95 528 95 350 c 256
40 350 m 256
 40 559 196 710 400 710 c 256
 604 710 760 559 760 350 c 256
 760 141 604 -10 400 -10 c 256
 196 -10 40 141 40 350 c 256
EndSplineSet
EndChar

StartChar: ordfeminine
Encoding: 170 170 105
GlifName: ordfeminine
Width: 238
VWidth: 0
Flags: HMW
LayerCount: 2
Fore
SplineSet
61 532 m 256
 61 510 73 491 110 491 c 256
 145 491 178 507 178 550 c 257
 186 525 l 257
 186 481 148 455 100 455 c 256
 58 455 20 483 20 532 c 256
 20 580 68 613 118 613 c 256
 162 613 187 591 194 583 c 257
 194 559 l 257
 172 575 149 583 120 583 c 256
 84 583 61 560 61 532 c 256
61 646 m 257
 42 677 l 257
 59 689 88 705 130 705 c 256
 182 705 218 679 218 635 c 258
 218 460 l 257
 178 460 l 257
 178 635 l 258
 178 658 155 670 130 670 c 256
 97 670 72 654 61 646 c 257
EndSplineSet
EndChar

StartChar: ordmasculine
Encoding: 186 186 106
GlifName: ordmasculine
Width: 278
VWidth: 0
Flags: HMW
LayerCount: 2
Fore
SplineSet
20 580 m 256
 20 650 71 700 139 700 c 256
 207 700 258 650 258 580 c 256
 258 510 207 460 139 460 c 256
 71 460 20 510 20 580 c 256
60 580 m 256
 60 532 94 498 139 498 c 256
 184 498 218 532 218 580 c 256
 218 628 184 662 139 662 c 256
 94 662 60 628 60 580 c 256
EndSplineSet
EndChar

StartChar: guillemotleft
Encoding: 171 171 107
GlifName: guillemotleft
Width: 510
VWidth: 0
Flags: HMW
LayerCount: 2
Fore
SplineSet
290 259 m 257
 440 65 l 257
 390 20 l 257
 200 255 l 257
 390 490 l 257
 440 445 l 257
 290 259 l 257
130 259 m 257
 280 65 l 257
 230 20 l 257
 40 255 l 257
 230 490 l 257
 280 445 l 257
 130 259 l 257
EndSplineSet
EndChar

StartChar: guillemotright
Encoding: 187 187 108
GlifName: guillemotright
Width: 510
VWidth: 0
Flags: HMW
LayerCount: 2
Fore
SplineSet
220 251 m 257
 70 445 l 257
 120 490 l 257
 310 255 l 257
 120 20 l 257
 70 65 l 257
 220 251 l 257
380 251 m 257
 230 445 l 257
 280 490 l 257
 470 255 l 257
 280 20 l 257
 230 65 l 257
 380 251 l 257
EndSplineSet
EndChar

StartChar: uni00AD
Encoding: 173 173 109
GlifName: uni00A_D_
Width: 210
VWidth: 0
Flags: HMW
LayerCount: 2
Fore
SplineSet
5 200 m 257
 5 275 l 257
 205 275 l 257
 205 200 l 257
 5 200 l 257
EndSplineSet
EndChar

StartChar: logicalnot
Encoding: 172 172 110
GlifName: logicalnot
Width: 620
VWidth: 0
Flags: HMW
LayerCount: 2
Fore
SplineSet
65 300 m 257
 65 375 l 257
 555 375 l 257
 555 175 l 257
 480 175 l 257
 480 300 l 257
 65 300 l 257
EndSplineSet
EndChar

StartChar: macron
Encoding: 175 175 111
GlifName: macron
Width: 510
VWidth: 0
Flags: HMW
LayerCount: 2
Fore
SplineSet
80 600 m 257
 80 675 l 257
 430 675 l 257
 430 600 l 257
 80 600 l 257
EndSplineSet
EndChar

StartChar: degree
Encoding: 176 176 112
GlifName: degree
Width: 278
VWidth: 0
Flags: HMW
LayerCount: 2
Fore
SplineSet
20 600 m 256
 20 670 71 720 139 720 c 256
 207 720 258 670 258 600 c 256
 258 530 207 480 139 480 c 256
 71 480 20 530 20 600 c 256
60 600 m 256
 60 552 94 518 139 518 c 256
 184 518 218 552 218 600 c 256
 218 648 184 682 139 682 c 256
 94 682 60 648 60 600 c 256
EndSplineSet
EndChar

StartChar: plusminus
Encoding: 177 177 113
GlifName: plusminus
Width: 615
VWidth: 0
Flags: HMW
LayerCount: 2
Fore
SplineSet
65 0 m 257
 65 80 l 257
 550 80 l 257
 550 0 l 257
 65 0 l 257
65 345 m 257
 65 425 l 257
 550 425 l 257
 550 345 l 257
 65 345 l 257
265 620 m 257
 350 620 l 257
 350 150 l 257
 265 150 l 257
 265 620 l 257
EndSplineSet
EndChar

StartChar: uni00B2
Encoding: 178 178 114
GlifName: uni00B_2
Width: 346
VWidth: 0
Flags: HMW
LayerCount: 2
Fore
SplineSet
25 282 m 257
 223 494 l 258
 251 523 267 552 267 586 c 256
 267 623 242 661 191 661 c 256
 137 661 100 622 100 558 c 257
 49 558 l 257
 49 647 104 709 191 709 c 256
 283 709 319 638 319 582 c 256
 319 539 296 500 263 466 c 258
 130 330 l 257
 321 330 l 257
 321 282 l 257
 25 282 l 257
EndSplineSet
EndChar

StartChar: uni00B3
Encoding: 179 179 115
GlifName: uni00B_3
Width: 312
VWidth: 0
Flags: HMW
LayerCount: 2
Fore
SplineSet
141 487 m 257
 141 520 l 257
 195 520 226 553 226 593 c 256
 226 633 204 660 162 660 c 256
 123 660 92 633 92 596 c 257
 43 596 l 257
 43 661 93 706 162 706 c 256
 234 706 278 653 278 594 c 256
 278 535 222 487 141 487 c 257
159 274 m 256
 78 274 25 326 25 391 c 257
 77 391 l 257
 77 351 111 322 159 322 c 256
 207 322 238 351 238 397 c 256
 238 449 195 475 141 475 c 257
 141 508 l 257
 222 508 290 474 290 391 c 256
 290 320 234 274 159 274 c 256
EndSplineSet
EndChar

StartChar: acute
Encoding: 180 180 116
GlifName: acute
Width: 375
VWidth: 0
Flags: HMW
LayerCount: 2
Fore
SplineSet
300 660 m 257
 120 510 l 257
 75 540 l 257
 225 700 l 257
 300 660 l 257
EndSplineSet
EndChar

StartChar: mu
Encoding: 181 181 117
GlifName: mu
Width: 525
VWidth: 0
Flags: HMW
LayerCount: 2
Fore
SplineSet
370 0 m 257
 370 460 l 257
 450 460 l 257
 450 0 l 257
 370 0 l 257
155 180 m 258
 155 104 188 65 253 65 c 256
 323 65 370 114 370 180 c 257
 406 180 l 257
 406 71 328 -10 233 -10 c 256
 138 -10 75 51 75 170 c 258
 75 460 l 257
 155 460 l 257
 155 180 l 258
75 460 m 257
 155 460 l 257
 155 -320 l 257
 75 -320 l 257
 75 460 l 257
EndSplineSet
EndChar

StartChar: paragraph
Encoding: 182 182 118
GlifName: paragraph
Width: 578
VWidth: 0
Flags: HMW
LayerCount: 2
Fore
SplineSet
288 635 m 257
 288 700 l 257
 488 700 l 257
 488 635 l 257
 288 635 l 257
448 700 m 257
 518 700 l 257
 518 -220 l 257
 448 -220 l 257
 448 700 l 257
288 700 m 257
 358 700 l 257
 358 -220 l 257
 288 -220 l 257
 288 700 l 257
288 270 m 257
 163 270 60 346 60 485 c 256
 60 624 163 700 288 700 c 257
 288 270 l 257
EndSplineSet
EndChar

StartChar: periodcentered
Encoding: 183 183 119
GlifName: periodcentered
Width: 300
VWidth: 0
Flags: HMW
LayerCount: 2
Fore
SplineSet
95 240 m 256
 95 270 120 295 150 295 c 256
 180 295 205 270 205 240 c 256
 205 210 180 185 150 185 c 256
 120 185 95 210 95 240 c 256
EndSplineSet
EndChar

StartChar: uni00B9
Encoding: 185 185 120
GlifName: uni00B_9
Width: 470
VWidth: 0
Flags: HMW
LayerCount: 2
Fore
SplineSet
152 611 m 257
 152 664 l 257
 296 700 l 257
 296 274 l 257
 245 274 l 257
 245 639 l 257
 152 611 l 257
EndSplineSet
EndChar

StartChar: cedilla
Encoding: 184 184 121
GlifName: cedilla
Width: 350
VWidth: 0
Flags: HMW
LayerCount: 2
Fore
SplineSet
196 60 m 257
 257 60 l 257
 193 -52 l 257
 196 -52 199 -52 202 -52 c 256
 235 -52 275 -77 275 -126 c 256
 275 -187 223 -220 168 -220 c 256
 131 -220 107 -210 79 -182 c 257
 112 -142 l 257
 131 -158 142 -166 168 -166 c 256
 202 -166 218 -150 218 -126 c 256
 218 -102 202 -90 168 -90 c 256
 158 -90 132 -94 111 -108 c 257
 196 60 l 257
EndSplineSet
EndChar

StartChar: questiondown
Encoding: 191 191 122
GlifName: questiondown
Width: 557
VWidth: 0
Flags: HMW
LayerCount: 2
Fore
SplineSet
141 200 m 256
 141 114 198 65 288 65 c 256
 355 65 401 98 432 148 c 257
 497 107 l 257
 451 37 397 -10 278 -10 c 256
 153 -10 60 81 60 200 c 256
 60 315 161 404 272 410 c 257
 279 530 l 257
 339 530 l 257
 359 355 l 257
 333 355 l 258
 213 355 141 276 141 200 c 256
362 660 m 256
 362 630 337 605 307 605 c 256
 277 605 252 630 252 660 c 256
 252 690 277 715 307 715 c 256
 337 715 362 690 362 660 c 256
EndSplineSet
EndChar

StartChar: multiply
Encoding: 215 215 123
GlifName: multiply
Width: 596
VWidth: 0
Flags: HMW
LayerCount: 2
Fore
SplineSet
121 22 m 257
 65 78 l 257
 247 255 l 257
 65 432 l 257
 121 488 l 257
 298 306 l 257
 475 488 l 257
 531 432 l 257
 349 255 l 257
 531 78 l 257
 475 22 l 257
 298 204 l 257
 121 22 l 257
EndSplineSet
EndChar

StartChar: Oslash
Encoding: 216 216 124
GlifName: O_slash
Width: 790
VWidth: 0
Flags: HMW
LayerCount: 2
Fore
SplineSet
130 350 m 256
 130 192 242 75 395 75 c 256
 548 75 660 192 660 350 c 256
 660 508 548 625 395 625 c 256
 242 625 130 508 130 350 c 256
40 350 m 256
 40 554 191 710 395 710 c 256
 599 710 750 554 750 350 c 256
 750 146 599 -10 395 -10 c 256
 191 -10 40 146 40 350 c 256
688 750 m 257
 747 710 l 257
 98 -50 l 257
 40 -10 l 257
 688 750 l 257
EndSplineSet
EndChar

StartChar: Thorn
Encoding: 222 222 125
GlifName: T_horn
Width: 550
VWidth: 0
Flags: HMW
LayerCount: 2
Fore
SplineSet
80 700 m 257
 165 700 l 257
 165 0 l 257
 80 0 l 257
 80 700 l 257
127 480 m 257
 127 560 l 257
 270 560 l 258
 405 560 508 479 508 350 c 256
 508 221 405 140 270 140 c 258
 127 140 l 257
 127 220 l 257
 270 220 l 258
 360 220 423 264 423 350 c 256
 423 436 360 480 270 480 c 258
 127 480 l 257
EndSplineSet
EndChar

StartChar: divide
Encoding: 247 247 126
GlifName: divide
Width: 623
VWidth: 0
Flags: HMW
LayerCount: 2
Fore
SplineSet
255 450 m 256
 255 480 280 505 310 505 c 256
 340 505 365 480 365 450 c 256
 365 420 340 395 310 395 c 256
 280 395 255 420 255 450 c 256
255 70 m 256
 255 100 280 125 310 125 c 256
 340 125 365 100 365 70 c 256
 365 40 340 15 310 15 c 256
 280 15 255 40 255 70 c 256
60 225 m 257
 60 305 l 257
 560 305 l 257
 560 225 l 257
 60 225 l 257
EndSplineSet
EndChar

StartChar: oslash
Encoding: 248 248 127
GlifName: oslash
Width: 546
VWidth: 0
Flags: HMW
LayerCount: 2
Fore
SplineSet
35 230 m 256
 35 369 138 470 273 470 c 256
 408 470 511 369 511 230 c 256
 511 91 408 -10 273 -10 c 256
 138 -10 35 91 35 230 c 256
116 230 m 256
 116 134 183 65 273 65 c 256
 363 65 430 134 430 230 c 256
 430 326 363 395 273 395 c 256
 183 395 116 326 116 230 c 256
440 500 m 257
 485 480 l 257
 95 -44 l 257
 50 -24 l 257
 440 500 l 257
EndSplineSet
EndChar

StartChar: circumflex
Encoding: 710 710 128
GlifName: circumflex
Width: 480
VWidth: 0
Flags: HMW
LayerCount: 2
Fore
SplineSet
240 645 m 257
 130 550 l 257
 80 590 l 257
 240 730 l 257
 400 590 l 257
 350 550 l 257
 240 645 l 257
EndSplineSet
EndChar

StartChar: ogonek
Encoding: 731 731 129
GlifName: ogonek
Width: 260
VWidth: 0
Flags: HMW
LayerCount: 2
Fore
SplineSet
194 -130 m 257
 227 -180 l 257
 212 -200 182 -220 139 -220 c 256
 55 -220 16 -179 16 -120 c 256
 16 -61 78 -11 148 25 c 257
 189 0 l 257
 137 -22 96 -63 96 -100 c 256
 96 -136 114 -150 144 -150 c 256
 170 -150 180 -143 194 -130 c 257
EndSplineSet
EndChar

StartChar: tilde
Encoding: 732 732 130
GlifName: tilde
Width: 530
VWidth: 0
Flags: HMW
LayerCount: 2
Fore
SplineSet
100 625 m 257
 110 674 159 707 204 707 c 256
 269 707 274 660 328 660 c 256
 347 660 364 676 384 708 c 257
 430 665 l 257
 414 628 374 592 324 592 c 256
 269 592 248 639 203 639 c 256
 162 639 153 603 153 588 c 257
 100 625 l 257
EndSplineSet
EndChar

StartChar: ring
Encoding: 730 730 131
GlifName: ring
Width: 278
VWidth: 0
Flags: HMW
LayerCount: 2
Fore
SplineSet
37 785 m 256
 37 845 87 885 139 885 c 256
 191 885 241 845 241 785 c 256
 241 725 191 685 139 685 c 256
 87 685 37 725 37 785 c 256
88 785 m 256
 88 752 114 732 139 732 c 256
 164 732 190 752 190 785 c 256
 190 818 164 838 139 838 c 256
 114 838 88 818 88 785 c 256
EndSplineSet
EndChar

StartChar: dotaccent
Encoding: 729 729 132
GlifName: dotaccent
Width: 300
VWidth: 0
Flags: HMW
LayerCount: 2
Fore
SplineSet
95 790 m 256
 95 820 120 845 150 845 c 256
 180 845 205 820 205 790 c 256
 205 760 180 735 150 735 c 256
 120 735 95 760 95 790 c 256
EndSplineSet
EndChar

StartChar: uni2010
Encoding: 8208 8208 133
GlifName: uni2010
Width: 210
VWidth: 0
Flags: HMW
LayerCount: 2
Fore
SplineSet
5 200 m 257
 5 275 l 257
 205 275 l 257
 205 200 l 257
 5 200 l 257
EndSplineSet
EndChar

StartChar: endash
Encoding: 8211 8211 134
GlifName: endash
Width: 740
VWidth: 0
Flags: HMW
LayerCount: 2
Fore
SplineSet
70 200 m 257
 70 275 l 257
 670 275 l 257
 670 200 l 257
 70 200 l 257
EndSplineSet
EndChar

StartChar: figuredash
Encoding: 8210 8210 135
GlifName: figuredash
Width: 590
VWidth: 0
Flags: HMW
LayerCount: 2
Fore
SplineSet
70 200 m 257
 70 275 l 257
 520 275 l 257
 520 200 l 257
 70 200 l 257
EndSplineSet
EndChar

StartChar: emdash
Encoding: 8212 8212 136
GlifName: emdash
Width: 890
VWidth: 0
Flags: HMW
LayerCount: 2
Fore
SplineSet
70 200 m 257
 70 275 l 257
 820 275 l 257
 820 200 l 257
 70 200 l 257
EndSplineSet
EndChar

StartChar: minus
Encoding: 8722 8722 137
GlifName: minus
Width: 590
VWidth: 0
Flags: HMW
LayerCount: 2
Fore
SplineSet
70 200 m 257
 70 275 l 257
 520 275 l 257
 520 200 l 257
 70 200 l 257
EndSplineSet
EndChar

StartChar: quoteright
Encoding: 8217 8217 138
GlifName: quoteright
Width: 275
VWidth: 0
Flags: HMW
LayerCount: 2
Fore
SplineSet
110 700 m 257
 205 700 l 257
 105 470 l 257
 50 470 l 257
 110 700 l 257
EndSplineSet
EndChar

StartChar: quoteleft
Encoding: 8216 8216 139
GlifName: quoteleft
Width: 275
VWidth: 0
Flags: HMW
LayerCount: 2
Fore
SplineSet
165 470 m 257
 70 470 l 257
 170 700 l 257
 225 700 l 257
 165 470 l 257
EndSplineSet
EndChar

StartChar: quotesinglbase
Encoding: 8218 8218 140
GlifName: quotesinglbase
Width: 275
VWidth: 0
Flags: HMW
LayerCount: 2
Fore
SplineSet
120 80 m 257
 215 80 l 257
 115 -150 l 257
 60 -150 l 257
 120 80 l 257
EndSplineSet
EndChar

StartChar: quotedblleft
Encoding: 8220 8220 141
GlifName: quotedblleft
Width: 475
VWidth: 0
Flags: HMW
LayerCount: 2
Fore
SplineSet
165 470 m 257
 70 470 l 257
 170 700 l 257
 225 700 l 257
 165 470 l 257
365 470 m 257
 270 470 l 257
 370 700 l 257
 425 700 l 257
 365 470 l 257
EndSplineSet
EndChar

StartChar: quotedblright
Encoding: 8221 8221 142
GlifName: quotedblright
Width: 475
VWidth: 0
Flags: HMW
LayerCount: 2
Fore
SplineSet
110 700 m 257
 205 700 l 257
 105 470 l 257
 50 470 l 257
 110 700 l 257
310 700 m 257
 405 700 l 257
 305 470 l 257
 250 470 l 257
 310 700 l 257
EndSplineSet
EndChar

StartChar: perthousand
Encoding: 8240 8240 143
GlifName: perthousand
Width: 1131
VWidth: 0
Flags: HMW
LayerCount: 2
Fore
SplineSet
780 150 m 256
 780 239 843 310 938 310 c 256
 1033 310 1096 239 1096 150 c 256
 1096 61 1033 -10 938 -10 c 256
 843 -10 780 61 780 150 c 256
851 150 m 256
 851 99 883 55 938 55 c 256
 993 55 1025 99 1025 150 c 256
 1025 201 993 245 938 245 c 256
 883 245 851 201 851 150 c 256
35 550 m 256
 35 639 98 710 193 710 c 256
 288 710 351 639 351 550 c 256
 351 461 288 390 193 390 c 256
 98 390 35 461 35 550 c 256
106 550 m 256
 106 499 138 455 193 455 c 256
 248 455 280 499 280 550 c 256
 280 601 248 645 193 645 c 256
 138 645 106 601 106 550 c 256
400 150 m 256
 400 239 463 310 558 310 c 256
 653 310 716 239 716 150 c 256
 716 61 653 -10 558 -10 c 256
 463 -10 400 61 400 150 c 256
471 150 m 256
 471 99 503 55 558 55 c 256
 613 55 645 99 645 150 c 256
 645 201 613 245 558 245 c 256
 503 245 471 201 471 150 c 256
563 700 m 257
 638 700 l 257
 188 0 l 257
 113 0 l 257
 563 700 l 257
EndSplineSet
EndChar

StartChar: guilsinglleft
Encoding: 8249 8249 144
GlifName: guilsinglleft
Width: 350
VWidth: 0
Flags: HMW
LayerCount: 2
Fore
SplineSet
130 259 m 257
 280 65 l 257
 230 20 l 257
 40 255 l 257
 230 490 l 257
 280 445 l 257
 130 259 l 257
EndSplineSet
EndChar

StartChar: guilsinglright
Encoding: 8250 8250 145
GlifName: guilsinglright
Width: 350
VWidth: 0
Flags: HMW
LayerCount: 2
Fore
SplineSet
220 251 m 257
 70 445 l 257
 120 490 l 257
 310 255 l 257
 120 20 l 257
 70 65 l 257
 220 251 l 257
EndSplineSet
EndChar

StartChar: uni2031
Encoding: 8241 8241 146
GlifName: uni2031
Width: 1511
VWidth: 0
Flags: HMW
LayerCount: 2
Fore
SplineSet
1160 150 m 256
 1160 239 1223 310 1318 310 c 256
 1413 310 1476 239 1476 150 c 256
 1476 61 1413 -10 1318 -10 c 256
 1223 -10 1160 61 1160 150 c 256
1231 150 m 256
 1231 99 1263 55 1318 55 c 256
 1373 55 1405 99 1405 150 c 256
 1405 201 1373 245 1318 245 c 256
 1263 245 1231 201 1231 150 c 256
780 150 m 256
 780 239 843 310 938 310 c 256
 1033 310 1096 239 1096 150 c 256
 1096 61 1033 -10 938 -10 c 256
 843 -10 780 61 780 150 c 256
851 150 m 256
 851 99 883 55 938 55 c 256
 993 55 1025 99 1025 150 c 256
 1025 201 993 245 938 245 c 256
 883 245 851 201 851 150 c 256
35 550 m 256
 35 639 98 710 193 710 c 256
 288 710 351 639 351 550 c 256
 351 461 288 390 193 390 c 256
 98 390 35 461 35 550 c 256
106 550 m 256
 106 499 138 455 193 455 c 256
 248 455 280 499 280 550 c 256
 280 601 248 645 193 645 c 256
 138 645 106 601 106 550 c 256
400 150 m 256
 400 239 463 310 558 310 c 256
 653 310 716 239 716 150 c 256
 716 61 653 -10 558 -10 c 256
 463 -10 400 61 400 150 c 256
471 150 m 256
 471 99 503 55 558 55 c 256
 613 55 645 99 645 150 c 256
 645 201 613 245 558 245 c 256
 503 245 471 201 471 150 c 256
563 700 m 257
 638 700 l 257
 188 0 l 257
 113 0 l 257
 563 700 l 257
EndSplineSet
EndChar

StartChar: uni203D
Encoding: 8253 8253 147
GlifName: uni203D_
Width: 557
VWidth: 0
Flags: HMW
LayerCount: 2
Fore
SplineSet
416 500 m 256
 416 586 359 635 269 635 c 256
 202 635 156 602 125 552 c 257
 60 593 l 257
 106 663 160 710 279 710 c 256
 404 710 497 619 497 500 c 256
 497 381 389 290 274 290 c 257
 224 345 l 257
 344 345 416 424 416 500 c 256
200 510 m 257
 300 510 l 257
 280 170 l 257
 220 170 l 257
 200 510 l 257
195 40 m 256
 195 70 220 95 250 95 c 256
 280 95 305 70 305 40 c 256
 305 10 280 -15 250 -15 c 256
 220 -15 195 10 195 40 c 256
EndSplineSet
EndChar

StartChar: Euro
Encoding: 8364 8364 148
GlifName: E_uro
Width: 580
VWidth: 0
Flags: HMW
LayerCount: 2
Fore
SplineSet
15 407 m 257
 15 455 l 257
 516 455 l 257
 516 407 l 257
 15 407 l 257
15 287 m 257
 15 335 l 257
 490 335 l 257
 490 287 l 257
 15 287 l 257
155 350 m 256
 155 187 242 70 370 70 c 256
 427 70 479 92 520 132 c 257
 520 31 l 257
 475 5 424 -10 370 -10 c 256
 196 -10 70 141 70 350 c 256
 70 559 196 710 370 710 c 256
 424 710 475 695 520 669 c 257
 520 568 l 257
 479 608 427 630 370 630 c 256
 242 630 155 513 155 350 c 256
EndSplineSet
EndChar

StartChar: fraction
Encoding: 8260 8260 149
GlifName: fraction
Width: 705
VWidth: 0
Flags: HMW
LayerCount: 2
Fore
SplineSet
580 700 m 257
 645 700 l 257
 125 0 l 257
 60 0 l 257
 580 700 l 257
EndSplineSet
EndChar

StartChar: onequarter
Encoding: 188 188 150
GlifName: onequarter
Width: 754
VWidth: 0
Flags: HMW
LayerCount: 2
Fore
SplineSet
618 700 m 257
 683 700 l 257
 163 0 l 257
 98 0 l 257
 618 700 l 257
30 611 m 257
 30 664 l 257
 174 700 l 257
 174 274 l 257
 123 274 l 257
 123 639 l 257
 30 611 l 257
398 84 m 257
 440 129 l 257
 622 129 l 256
 632 129 l 256
 718 129 l 257
 718 84 l 257
 398 84 l 257
452 84 m 257
 398 84 l 257
 631 420 l 257
 652 420 l 257
 652 0 l 257
 601 0 l 257
 601 106 l 256
 601 112 l 256
 601 307 l 257
 452 84 l 257
EndSplineSet
EndChar

StartChar: onehalf
Encoding: 189 189 151
GlifName: onehalf
Width: 819
VWidth: 0
Flags: HMW
LayerCount: 2
Fore
SplineSet
618 700 m 257
 683 700 l 257
 163 0 l 257
 98 0 l 257
 618 700 l 257
30 611 m 257
 30 664 l 257
 174 700 l 257
 174 274 l 257
 123 274 l 257
 123 639 l 257
 30 611 l 257
493 2 m 257
 691 214 l 258
 719 243 735 272 735 306 c 256
 735 343 710 381 659 381 c 256
 605 381 568 342 568 278 c 257
 517 278 l 257
 517 367 572 429 659 429 c 256
 751 429 787 358 787 302 c 256
 787 259 764 220 731 186 c 258
 598 50 l 257
 789 50 l 257
 789 2 l 257
 493 2 l 257
EndSplineSet
EndChar

StartChar: threequarters
Encoding: 190 190 152
GlifName: threequarters
Width: 820
VWidth: 0
Flags: HMW
LayerCount: 2
Fore
SplineSet
685 700 m 257
 750 700 l 257
 230 0 l 257
 165 0 l 257
 685 700 l 257
146 487 m 257
 146 520 l 257
 200 520 231 553 231 593 c 256
 231 633 209 660 167 660 c 256
 128 660 97 633 97 596 c 257
 48 596 l 257
 48 661 98 706 167 706 c 256
 239 706 283 653 283 594 c 256
 283 535 227 487 146 487 c 257
164 274 m 256
 83 274 30 326 30 391 c 257
 82 391 l 257
 82 351 116 322 164 322 c 256
 212 322 243 351 243 397 c 256
 243 449 200 475 146 475 c 257
 146 508 l 257
 227 508 295 474 295 391 c 256
 295 320 239 274 164 274 c 256
465 84 m 257
 507 129 l 257
 689 129 l 256
 699 129 l 256
 785 129 l 257
 785 84 l 257
 465 84 l 257
519 84 m 257
 465 84 l 257
 698 420 l 257
 719 420 l 257
 719 0 l 257
 668 0 l 257
 668 106 l 256
 668 112 l 256
 668 307 l 257
 519 84 l 257
EndSplineSet
EndChar

StartChar: uni2150
Encoding: 8528 8528 153
GlifName: uni2150
Width: 842
VWidth: 0
Flags: HMW
LayerCount: 2
Fore
SplineSet
568 700 m 257
 633 700 l 257
 113 0 l 257
 48 0 l 257
 568 700 l 257
30 611 m 257
 30 664 l 257
 174 700 l 257
 174 274 l 257
 123 274 l 257
 123 639 l 257
 30 611 l 257
518 372 m 257
 518 420 l 257
 812 420 l 257
 611 0 l 257
 558 0 l 257
 736 372 l 257
 518 372 l 257
EndSplineSet
EndChar

StartChar: uni2151
Encoding: 8529 8529 154
GlifName: uni2151
Width: 784
VWidth: 0
Flags: HMW
LayerCount: 2
Fore
SplineSet
568 700 m 257
 633 700 l 257
 113 0 l 257
 48 0 l 257
 568 700 l 257
30 611 m 257
 30 664 l 257
 174 700 l 257
 174 274 l 257
 123 274 l 257
 123 639 l 257
 30 611 l 257
717 284 m 256
 717 342 677 382 623 382 c 256
 569 382 529 342 529 284 c 256
 529 226 569 185 623 185 c 256
 677 185 717 226 717 284 c 256
598 2 m 257
 533 2 l 257
 665 175 l 257
 668 172 l 257
 652 152 631 148 604 148 c 256
 536 148 480 207 480 284 c 256
 480 370 542 428 623 428 c 256
 704 428 766 370 766 284 c 256
 766 250 755 219 739 197 c 258
 598 2 l 257
EndSplineSet
EndChar

StartChar: uni2152
Encoding: 8530 8530 155
GlifName: uni2152
Width: 1080
VWidth: 0
Flags: HMW
LayerCount: 2
Fore
SplineSet
568 700 m 257
 633 700 l 257
 113 0 l 257
 48 0 l 257
 568 700 l 257
30 611 m 257
 30 664 l 257
 174 700 l 257
 174 274 l 257
 123 274 l 257
 123 639 l 257
 30 611 l 257
488 338 m 257
 488 391 l 257
 632 427 l 257
 632 1 l 257
 581 1 l 257
 581 366 l 257
 488 338 l 257
789 210 m 256
 789 112 829 42 894 42 c 256
 959 42 999 112 999 210 c 256
 999 308 959 378 894 378 c 256
 829 378 789 308 789 210 c 256
738 210 m 256
 738 335 802 426 894 426 c 256
 986 426 1050 335 1050 210 c 256
 1050 85 986 -6 894 -6 c 256
 802 -6 738 85 738 210 c 256
EndSplineSet
EndChar

StartChar: onethird
Encoding: 8531 8531 156
GlifName: onethird
Width: 755
VWidth: 0
Flags: HMW
LayerCount: 2
Fore
SplineSet
568 700 m 257
 633 700 l 257
 113 0 l 257
 48 0 l 257
 568 700 l 257
30 611 m 257
 30 664 l 257
 174 700 l 257
 174 274 l 257
 123 274 l 257
 123 639 l 257
 30 611 l 257
579 207 m 257
 579 240 l 257
 633 240 664 273 664 313 c 256
 664 353 642 380 600 380 c 256
 561 380 530 353 530 316 c 257
 481 316 l 257
 481 381 531 426 600 426 c 256
 672 426 716 373 716 314 c 256
 716 255 660 207 579 207 c 257
597 -6 m 256
 516 -6 463 46 463 111 c 257
 515 111 l 257
 515 71 549 42 597 42 c 256
 645 42 676 71 676 117 c 256
 676 169 633 195 579 195 c 257
 579 228 l 257
 660 228 728 194 728 111 c 256
 728 40 672 -6 597 -6 c 256
EndSplineSet
EndChar

StartChar: twothirds
Encoding: 8532 8532 157
GlifName: twothirds
Width: 882
VWidth: 0
Flags: HMW
LayerCount: 2
Fore
SplineSet
695 700 m 257
 760 700 l 257
 240 0 l 257
 175 0 l 257
 695 700 l 257
30 282 m 257
 228 494 l 258
 256 523 272 552 272 586 c 256
 272 623 247 661 196 661 c 256
 142 661 105 622 105 558 c 257
 54 558 l 257
 54 647 109 709 196 709 c 256
 288 709 324 638 324 582 c 256
 324 539 301 500 268 466 c 258
 135 330 l 257
 326 330 l 257
 326 282 l 257
 30 282 l 257
706 207 m 257
 706 240 l 257
 760 240 791 273 791 313 c 256
 791 353 769 380 727 380 c 256
 688 380 657 353 657 316 c 257
 608 316 l 257
 608 381 658 426 727 426 c 256
 799 426 843 373 843 314 c 256
 843 255 787 207 706 207 c 257
724 -6 m 256
 643 -6 590 46 590 111 c 257
 642 111 l 257
 642 71 676 42 724 42 c 256
 772 42 803 71 803 117 c 256
 803 169 760 195 706 195 c 257
 706 228 l 257
 787 228 855 194 855 111 c 256
 855 40 799 -6 724 -6 c 256
EndSplineSet
EndChar

StartChar: uni2155
Encoding: 8533 8533 158
GlifName: uni2155
Width: 744
VWidth: 0
Flags: HMW
LayerCount: 2
Fore
SplineSet
568 700 m 257
 633 700 l 257
 113 0 l 257
 48 0 l 257
 568 700 l 257
30 611 m 257
 30 664 l 257
 174 700 l 257
 174 274 l 257
 123 274 l 257
 123 639 l 257
 30 611 l 257
714 136 m 256
 714 41 648 -8 567 -8 c 256
 490 -8 446 32 418 80 c 257
 461 110 l 257
 480 74 521 40 567 40 c 256
 627 40 661 78 661 136 c 256
 661 194 621 232 567 232 c 256
 527 232 503 224 460 194 c 257
 490 234 l 257
 518 264 554 278 589 278 c 256
 661 278 714 219 714 136 c 256
554 373 m 257
 523 248 l 257
 460 194 l 257
 515 418 l 257
 713 418 l 257
 713 373 l 257
 554 373 l 257
EndSplineSet
EndChar

StartChar: uni2156
Encoding: 8534 8534 159
GlifName: uni2156
Width: 871
VWidth: 0
Flags: HMW
LayerCount: 2
Fore
SplineSet
695 700 m 257
 760 700 l 257
 240 0 l 257
 175 0 l 257
 695 700 l 257
30 282 m 257
 228 494 l 258
 256 523 272 552 272 586 c 256
 272 623 247 661 196 661 c 256
 142 661 105 622 105 558 c 257
 54 558 l 257
 54 647 109 709 196 709 c 256
 288 709 324 638 324 582 c 256
 324 539 301 500 268 466 c 258
 135 330 l 257
 326 330 l 257
 326 282 l 257
 30 282 l 257
841 136 m 256
 841 41 775 -8 694 -8 c 256
 617 -8 573 32 545 80 c 257
 588 110 l 257
 607 74 648 40 694 40 c 256
 754 40 788 78 788 136 c 256
 788 194 748 232 694 232 c 256
 654 232 630 224 587 194 c 257
 617 234 l 257
 645 264 681 278 716 278 c 256
 788 278 841 219 841 136 c 256
681 373 m 257
 650 248 l 257
 587 194 l 257
 642 418 l 257
 840 418 l 257
 840 373 l 257
 681 373 l 257
EndSplineSet
EndChar

StartChar: uni2157
Encoding: 8535 8535 160
GlifName: uni2157
Width: 831
VWidth: 0
Flags: HMW
LayerCount: 2
Fore
SplineSet
655 700 m 257
 720 700 l 257
 200 0 l 257
 135 0 l 257
 655 700 l 257
146 487 m 257
 146 520 l 257
 200 520 231 553 231 593 c 256
 231 633 209 660 167 660 c 256
 128 660 97 633 97 596 c 257
 48 596 l 257
 48 661 98 706 167 706 c 256
 239 706 283 653 283 594 c 256
 283 535 227 487 146 487 c 257
164 274 m 256
 83 274 30 326 30 391 c 257
 82 391 l 257
 82 351 116 322 164 322 c 256
 212 322 243 351 243 397 c 256
 243 449 200 475 146 475 c 257
 146 508 l 257
 227 508 295 474 295 391 c 256
 295 320 239 274 164 274 c 256
801 136 m 256
 801 41 735 -8 654 -8 c 256
 577 -8 533 32 505 80 c 257
 548 110 l 257
 567 74 608 40 654 40 c 256
 714 40 748 78 748 136 c 256
 748 194 708 232 654 232 c 256
 614 232 590 224 547 194 c 257
 577 234 l 257
 605 264 641 278 676 278 c 256
 748 278 801 219 801 136 c 256
641 373 m 257
 610 248 l 257
 547 194 l 257
 602 418 l 257
 800 418 l 257
 800 373 l 257
 641 373 l 257
EndSplineSet
EndChar

StartChar: uni2158
Encoding: 8536 8536 161
GlifName: uni2158
Width: 866
VWidth: 0
Flags: HMW
LayerCount: 2
Fore
SplineSet
690 700 m 257
 755 700 l 257
 235 0 l 257
 170 0 l 257
 690 700 l 257
30 364 m 257
 72 409 l 257
 254 409 l 256
 264 409 l 256
 350 409 l 257
 350 364 l 257
 30 364 l 257
84 364 m 257
 30 364 l 257
 263 700 l 257
 284 700 l 257
 284 280 l 257
 233 280 l 257
 233 386 l 256
 233 392 l 256
 233 587 l 257
 84 364 l 257
836 136 m 256
 836 41 770 -8 689 -8 c 256
 612 -8 568 32 540 80 c 257
 583 110 l 257
 602 74 643 40 689 40 c 256
 749 40 783 78 783 136 c 256
 783 194 743 232 689 232 c 256
 649 232 625 224 582 194 c 257
 612 234 l 257
 640 264 676 278 711 278 c 256
 783 278 836 219 836 136 c 256
676 373 m 257
 645 248 l 257
 582 194 l 257
 637 418 l 257
 835 418 l 257
 835 373 l 257
 676 373 l 257
EndSplineSet
EndChar

StartChar: uni2159
Encoding: 8537 8537 162
GlifName: uni2159
Width: 734
VWidth: 0
Flags: HMW
LayerCount: 2
Fore
SplineSet
568 700 m 257
 633 700 l 257
 113 0 l 257
 48 0 l 257
 568 700 l 257
30 611 m 257
 30 664 l 257
 174 700 l 257
 174 274 l 257
 123 274 l 257
 123 639 l 257
 30 611 l 257
473 136 m 256
 473 78 513 38 567 38 c 256
 621 38 661 78 661 136 c 256
 661 194 621 235 567 235 c 256
 513 235 473 194 473 136 c 256
592 418 m 257
 657 418 l 257
 525 245 l 257
 522 248 l 257
 538 268 559 272 586 272 c 256
 654 272 710 213 710 136 c 256
 710 50 648 -8 567 -8 c 256
 486 -8 424 50 424 136 c 256
 424 170 435 201 451 223 c 258
 592 418 l 257
EndSplineSet
EndChar

StartChar: uni215A
Encoding: 8538 8538 163
GlifName: uni215A_
Width: 856
VWidth: 0
Flags: HMW
LayerCount: 2
Fore
SplineSet
690 700 m 257
 755 700 l 257
 235 0 l 257
 170 0 l 257
 690 700 l 257
326 416 m 256
 326 321 260 272 179 272 c 256
 102 272 58 312 30 360 c 257
 73 390 l 257
 92 354 133 320 179 320 c 256
 239 320 273 358 273 416 c 256
 273 474 233 512 179 512 c 256
 139 512 115 504 72 474 c 257
 102 514 l 257
 130 544 166 558 201 558 c 256
 273 558 326 499 326 416 c 256
166 653 m 257
 135 528 l 257
 72 474 l 257
 127 698 l 257
 325 698 l 257
 325 653 l 257
 166 653 l 257
595 136 m 256
 595 78 635 38 689 38 c 256
 743 38 783 78 783 136 c 256
 783 194 743 235 689 235 c 256
 635 235 595 194 595 136 c 256
714 418 m 257
 779 418 l 257
 647 245 l 257
 644 248 l 257
 660 268 681 272 708 272 c 256
 776 272 832 213 832 136 c 256
 832 50 770 -8 689 -8 c 256
 608 -8 546 50 546 136 c 256
 546 170 557 201 573 223 c 258
 714 418 l 257
EndSplineSet
EndChar

StartChar: oneeighth
Encoding: 8539 8539 164
GlifName: oneeighth
Width: 760
VWidth: 0
Flags: HMW
LayerCount: 2
Fore
SplineSet
568 700 m 257
 633 700 l 257
 113 0 l 257
 48 0 l 257
 568 700 l 257
30 611 m 257
 30 664 l 257
 174 700 l 257
 174 274 l 257
 123 274 l 257
 123 639 l 257
 30 611 l 257
483 319 m 256
 483 378 533 426 599 426 c 256
 665 426 715 378 715 319 c 256
 715 254 668 213 599 213 c 256
 530 213 483 254 483 319 c 256
532 313 m 256
 532 273 563 246 599 246 c 256
 635 246 666 273 666 313 c 256
 666 353 638 381 599 381 c 256
 560 381 532 353 532 313 c 256
468 114 m 256
 468 191 530 234 599 234 c 256
 668 234 730 191 730 114 c 256
 730 49 674 -6 599 -6 c 256
 524 -6 468 49 468 114 c 256
517 120 m 256
 517 68 557 39 599 39 c 256
 641 39 681 68 681 120 c 256
 681 166 641 201 599 201 c 256
 557 201 517 166 517 120 c 256
EndSplineSet
EndChar

StartChar: threeeighths
Encoding: 8540 8540 165
GlifName: threeeighths
Width: 847
VWidth: 0
Flags: HMW
LayerCount: 2
Fore
SplineSet
655 700 m 257
 720 700 l 257
 200 0 l 257
 135 0 l 257
 655 700 l 257
146 487 m 257
 146 520 l 257
 200 520 231 553 231 593 c 256
 231 633 209 660 167 660 c 256
 128 660 97 633 97 596 c 257
 48 596 l 257
 48 661 98 706 167 706 c 256
 239 706 283 653 283 594 c 256
 283 535 227 487 146 487 c 257
164 274 m 256
 83 274 30 326 30 391 c 257
 82 391 l 257
 82 351 116 322 164 322 c 256
 212 322 243 351 243 397 c 256
 243 449 200 475 146 475 c 257
 146 508 l 257
 227 508 295 474 295 391 c 256
 295 320 239 274 164 274 c 256
570 319 m 256
 570 378 620 426 686 426 c 256
 752 426 802 378 802 319 c 256
 802 254 755 213 686 213 c 256
 617 213 570 254 570 319 c 256
619 313 m 256
 619 273 650 246 686 246 c 256
 722 246 753 273 753 313 c 256
 753 353 725 381 686 381 c 256
 647 381 619 353 619 313 c 256
555 114 m 256
 555 191 617 234 686 234 c 256
 755 234 817 191 817 114 c 256
 817 49 761 -6 686 -6 c 256
 611 -6 555 49 555 114 c 256
604 120 m 256
 604 68 644 39 686 39 c 256
 728 39 768 68 768 120 c 256
 768 166 728 201 686 201 c 256
 644 201 604 166 604 120 c 256
EndSplineSet
EndChar

StartChar: fiveeighths
Encoding: 8541 8541 166
GlifName: fiveeighths
Width: 882
VWidth: 0
Flags: HMW
LayerCount: 2
Fore
SplineSet
690 700 m 257
 755 700 l 257
 235 0 l 257
 170 0 l 257
 690 700 l 257
326 416 m 256
 326 321 260 272 179 272 c 256
 102 272 58 312 30 360 c 257
 73 390 l 257
 92 354 133 320 179 320 c 256
 239 320 273 358 273 416 c 256
 273 474 233 512 179 512 c 256
 139 512 115 504 72 474 c 257
 102 514 l 257
 130 544 166 558 201 558 c 256
 273 558 326 499 326 416 c 256
166 653 m 257
 135 528 l 257
 72 474 l 257
 127 698 l 257
 325 698 l 257
 325 653 l 257
 166 653 l 257
605 319 m 256
 605 378 655 426 721 426 c 256
 787 426 837 378 837 319 c 256
 837 254 790 213 721 213 c 256
 652 213 605 254 605 319 c 256
654 313 m 256
 654 273 685 246 721 246 c 256
 757 246 788 273 788 313 c 256
 788 353 760 381 721 381 c 256
 682 381 654 353 654 313 c 256
590 114 m 256
 590 191 652 234 721 234 c 256
 790 234 852 191 852 114 c 256
 852 49 796 -6 721 -6 c 256
 646 -6 590 49 590 114 c 256
639 120 m 256
 639 68 679 39 721 39 c 256
 763 39 803 68 803 120 c 256
 803 166 763 201 721 201 c 256
 679 201 639 166 639 120 c 256
EndSplineSet
EndChar

StartChar: seveneighths
Encoding: 8542 8542 167
GlifName: seveneighths
Width: 772
VWidth: 0
Flags: HMW
LayerCount: 2
Fore
SplineSet
580 700 m 257
 645 700 l 257
 125 0 l 257
 60 0 l 257
 580 700 l 257
30 652 m 257
 30 700 l 257
 324 700 l 257
 123 280 l 257
 70 280 l 257
 248 652 l 257
 30 652 l 257
495 319 m 256
 495 378 545 426 611 426 c 256
 677 426 727 378 727 319 c 256
 727 254 680 213 611 213 c 256
 542 213 495 254 495 319 c 256
544 313 m 256
 544 273 575 246 611 246 c 256
 647 246 678 273 678 313 c 256
 678 353 650 381 611 381 c 256
 572 381 544 353 544 313 c 256
480 114 m 256
 480 191 542 234 611 234 c 256
 680 234 742 191 742 114 c 256
 742 49 686 -6 611 -6 c 256
 536 -6 480 49 480 114 c 256
529 120 m 256
 529 68 569 39 611 39 c 256
 653 39 693 68 693 120 c 256
 693 166 653 201 611 201 c 256
 569 201 529 166 529 120 c 256
EndSplineSet
EndChar

StartChar: uni2074
Encoding: 8308 8308 168
GlifName: uni2074
Width: 386
VWidth: 0
Flags: HMW
LayerCount: 2
Fore
SplineSet
30 364 m 257
 72 409 l 257
 254 409 l 256
 264 409 l 256
 350 409 l 257
 350 364 l 257
 30 364 l 257
84 364 m 257
 30 364 l 257
 263 700 l 257
 284 700 l 257
 284 280 l 257
 233 280 l 257
 233 386 l 256
 233 392 l 256
 233 587 l 257
 84 364 l 257
EndSplineSet
EndChar

StartChar: uni2075
Encoding: 8309 8309 169
GlifName: uni2075
Width: 356
VWidth: 0
Flags: HMW
LayerCount: 2
Fore
SplineSet
326 416 m 256
 326 321 260 272 179 272 c 256
 102 272 58 312 30 360 c 257
 73 390 l 257
 92 354 133 320 179 320 c 256
 239 320 273 358 273 416 c 256
 273 474 233 512 179 512 c 256
 139 512 115 504 72 474 c 257
 102 514 l 257
 130 544 166 558 201 558 c 256
 273 558 326 499 326 416 c 256
166 653 m 257
 135 528 l 257
 72 474 l 257
 127 698 l 257
 325 698 l 257
 325 653 l 257
 166 653 l 257
EndSplineSet
EndChar

StartChar: uni2076
Encoding: 8310 8310 170
GlifName: uni2076
Width: 346
VWidth: 0
Flags: HMW
LayerCount: 2
Fore
SplineSet
85 416 m 256
 85 358 125 318 179 318 c 256
 233 318 273 358 273 416 c 256
 273 474 233 515 179 515 c 256
 125 515 85 474 85 416 c 256
204 698 m 257
 269 698 l 257
 137 525 l 257
 134 528 l 257
 150 548 171 552 198 552 c 256
 266 552 322 493 322 416 c 256
 322 330 260 272 179 272 c 256
 98 272 36 330 36 416 c 256
 36 450 47 481 63 503 c 258
 204 698 l 257
EndSplineSet
EndChar

StartChar: uni2077
Encoding: 8311 8311 171
GlifName: uni2077
Width: 354
VWidth: 0
Flags: HMW
LayerCount: 2
Fore
SplineSet
30 652 m 257
 30 700 l 257
 324 700 l 257
 123 280 l 257
 70 280 l 257
 248 652 l 257
 30 652 l 257
EndSplineSet
EndChar

StartChar: uni2078
Encoding: 8312 8312 172
GlifName: uni2078
Width: 322
VWidth: 0
Flags: HMW
LayerCount: 2
Fore
SplineSet
45 599 m 256
 45 658 95 706 161 706 c 256
 227 706 277 658 277 599 c 256
 277 534 230 493 161 493 c 256
 92 493 45 534 45 599 c 256
94 593 m 256
 94 553 125 526 161 526 c 256
 197 526 228 553 228 593 c 256
 228 633 200 661 161 661 c 256
 122 661 94 633 94 593 c 256
30 394 m 256
 30 471 92 514 161 514 c 256
 230 514 292 471 292 394 c 256
 292 329 236 274 161 274 c 256
 86 274 30 329 30 394 c 256
79 400 m 256
 79 348 119 319 161 319 c 256
 203 319 243 348 243 400 c 256
 243 446 203 481 161 481 c 256
 119 481 79 446 79 400 c 256
EndSplineSet
EndChar

StartChar: uni2079
Encoding: 8313 8313 173
GlifName: uni2079
Width: 346
VWidth: 0
Flags: HMW
LayerCount: 2
Fore
SplineSet
279 564 m 256
 279 622 239 662 185 662 c 256
 131 662 91 622 91 564 c 256
 91 506 131 465 185 465 c 256
 239 465 279 506 279 564 c 256
160 282 m 257
 95 282 l 257
 227 455 l 257
 230 452 l 257
 214 432 193 428 166 428 c 256
 98 428 42 487 42 564 c 256
 42 650 104 708 185 708 c 256
 266 708 328 650 328 564 c 256
 328 530 317 499 301 477 c 258
 160 282 l 257
EndSplineSet
EndChar

StartChar: uni2070
Encoding: 8304 8304 174
GlifName: uni2070
Width: 372
VWidth: 0
Flags: HMW
LayerCount: 2
Fore
SplineSet
81 490 m 256
 81 392 121 322 186 322 c 256
 251 322 291 392 291 490 c 256
 291 588 251 658 186 658 c 256
 121 658 81 588 81 490 c 256
30 490 m 256
 30 615 94 706 186 706 c 256
 278 706 342 615 342 490 c 256
 342 365 278 274 186 274 c 256
 94 274 30 365 30 490 c 256
EndSplineSet
EndChar

StartChar: uni2080
Encoding: 8320 8320 175
GlifName: uni2080
Width: 372
VWidth: 0
Flags: HMW
LayerCount: 2
Fore
SplineSet
81 210 m 256
 81 112 121 42 186 42 c 256
 251 42 291 112 291 210 c 256
 291 308 251 378 186 378 c 256
 121 378 81 308 81 210 c 256
30 210 m 256
 30 335 94 426 186 426 c 256
 278 426 342 335 342 210 c 256
 342 85 278 -6 186 -6 c 256
 94 -6 30 85 30 210 c 256
EndSplineSet
EndChar

StartChar: uni2084
Encoding: 8324 8324 176
GlifName: uni2084
Width: 386
VWidth: 0
Flags: HMW
LayerCount: 2
Fore
SplineSet
30 84 m 257
 72 129 l 257
 254 129 l 256
 264 129 l 256
 350 129 l 257
 350 84 l 257
 30 84 l 257
84 84 m 257
 30 84 l 257
 263 420 l 257
 284 420 l 257
 284 0 l 257
 233 0 l 257
 233 106 l 256
 233 112 l 256
 233 307 l 257
 84 84 l 257
EndSplineSet
EndChar

StartChar: uni2085
Encoding: 8325 8325 177
GlifName: uni2085
Width: 356
VWidth: 0
Flags: HMW
LayerCount: 2
Fore
SplineSet
326 136 m 256
 326 41 260 -8 179 -8 c 256
 102 -8 58 32 30 80 c 257
 73 110 l 257
 92 74 133 40 179 40 c 256
 239 40 273 78 273 136 c 256
 273 194 233 232 179 232 c 256
 139 232 115 224 72 194 c 257
 102 234 l 257
 130 264 166 278 201 278 c 256
 273 278 326 219 326 136 c 256
166 373 m 257
 135 248 l 257
 72 194 l 257
 127 418 l 257
 325 418 l 257
 325 373 l 257
 166 373 l 257
EndSplineSet
EndChar

StartChar: uni2086
Encoding: 8326 8326 178
GlifName: uni2086
Width: 346
VWidth: 0
Flags: HMW
LayerCount: 2
Fore
SplineSet
84 136 m 256
 84 78 124 38 178 38 c 256
 232 38 272 78 272 136 c 256
 272 194 232 235 178 235 c 256
 124 235 84 194 84 136 c 256
203 418 m 257
 268 418 l 257
 136 245 l 257
 133 248 l 257
 149 268 170 272 197 272 c 256
 265 272 321 213 321 136 c 256
 321 50 259 -8 178 -8 c 256
 97 -8 35 50 35 136 c 256
 35 170 46 201 62 223 c 258
 203 418 l 257
EndSplineSet
EndChar

StartChar: uni2087
Encoding: 8327 8327 179
GlifName: uni2087
Width: 354
VWidth: 0
Flags: HMW
LayerCount: 2
Fore
SplineSet
30 372 m 257
 30 420 l 257
 324 420 l 257
 123 0 l 257
 70 0 l 257
 248 372 l 257
 30 372 l 257
EndSplineSet
EndChar

StartChar: uni2088
Encoding: 8328 8328 180
GlifName: uni2088
Width: 322
VWidth: 0
Flags: HMW
LayerCount: 2
Fore
SplineSet
45 319 m 256
 45 378 95 426 161 426 c 256
 227 426 277 378 277 319 c 256
 277 254 230 213 161 213 c 256
 92 213 45 254 45 319 c 256
94 313 m 256
 94 273 125 246 161 246 c 256
 197 246 228 273 228 313 c 256
 228 353 200 381 161 381 c 256
 122 381 94 353 94 313 c 256
30 114 m 256
 30 191 92 234 161 234 c 256
 230 234 292 191 292 114 c 256
 292 49 236 -6 161 -6 c 256
 86 -6 30 49 30 114 c 256
79 120 m 256
 79 68 119 39 161 39 c 256
 203 39 243 68 243 120 c 256
 243 166 203 201 161 201 c 256
 119 201 79 166 79 120 c 256
EndSplineSet
EndChar

StartChar: uni2089
Encoding: 8329 8329 181
GlifName: uni2089
Width: 346
VWidth: 0
Flags: HMW
LayerCount: 2
Fore
SplineSet
262 284 m 256
 262 342 222 382 168 382 c 256
 114 382 74 342 74 284 c 256
 74 226 114 185 168 185 c 256
 222 185 262 226 262 284 c 256
143 2 m 257
 78 2 l 257
 210 175 l 257
 213 172 l 257
 197 152 176 148 149 148 c 256
 81 148 25 207 25 284 c 256
 25 370 87 428 168 428 c 256
 249 428 311 370 311 284 c 256
 311 250 300 219 284 197 c 258
 143 2 l 257
EndSplineSet
EndChar

StartChar: uni2081
Encoding: 8321 8321 182
GlifName: uni2081
Width: 314
VWidth: 0
Flags: HMW
LayerCount: 2
Fore
SplineSet
90 338 m 257
 90 391 l 257
 234 427 l 257
 234 1 l 257
 183 1 l 257
 183 366 l 257
 90 338 l 257
EndSplineSet
EndChar

StartChar: uni2082
Encoding: 8322 8322 183
GlifName: uni2082
Width: 346
VWidth: 0
Flags: HMW
LayerCount: 2
Fore
SplineSet
25 2 m 257
 223 214 l 258
 251 243 267 272 267 306 c 256
 267 343 242 381 191 381 c 256
 137 381 100 342 100 278 c 257
 49 278 l 257
 49 367 104 429 191 429 c 256
 283 429 319 358 319 302 c 256
 319 259 296 220 263 186 c 258
 130 50 l 257
 321 50 l 257
 321 2 l 257
 25 2 l 257
EndSplineSet
EndChar

StartChar: uni2083
Encoding: 8323 8323 184
GlifName: uni2083
Width: 312
VWidth: 0
Flags: HMW
LayerCount: 2
Fore
SplineSet
141 207 m 257
 141 240 l 257
 195 240 226 273 226 313 c 256
 226 353 204 380 162 380 c 256
 123 380 92 353 92 316 c 257
 43 316 l 257
 43 381 93 426 162 426 c 256
 234 426 278 373 278 314 c 256
 278 255 222 207 141 207 c 257
159 -6 m 256
 78 -6 25 46 25 111 c 257
 77 111 l 257
 77 71 111 42 159 42 c 256
 207 42 238 71 238 117 c 256
 238 169 195 195 141 195 c 257
 141 228 l 257
 222 228 290 194 290 111 c 256
 290 40 234 -6 159 -6 c 256
EndSplineSet
EndChar

StartChar: Agrave
Encoding: 192 192 185
GlifName: A_grave
Width: 660
VWidth: 0
Flags: HMW
LayerCount: 2
Fore
SplineSet
147 210 m 257
 177 290 l 257
 487 290 l 257
 517 210 l 257
 147 210 l 257
330 542 m 257
 212 264 l 257
 204 246 l 257
 100 0 l 257
 5 0 l 257
 330 735 l 257
 655 0 l 257
 560 0 l 257
 458 240 l 257
 450 260 l 257
 330 542 l 257
200 945 m 257
 275 985 l 257
 425 825 l 257
 380 795 l 257
 200 945 l 257
EndSplineSet
EndChar

StartChar: Aacute
Encoding: 193 193 186
GlifName: A_acute
Width: 660
VWidth: 0
Flags: HMW
LayerCount: 2
Fore
SplineSet
147 210 m 257
 177 290 l 257
 487 290 l 257
 517 210 l 257
 147 210 l 257
330 542 m 257
 212 264 l 257
 204 246 l 257
 100 0 l 257
 5 0 l 257
 330 735 l 257
 655 0 l 257
 560 0 l 257
 458 240 l 257
 450 260 l 257
 330 542 l 257
460 945 m 257
 280 795 l 257
 235 825 l 257
 385 985 l 257
 460 945 l 257
EndSplineSet
EndChar

StartChar: Acircumflex
Encoding: 194 194 187
GlifName: A_circumflex
Width: 660
VWidth: 0
Flags: HMW
LayerCount: 2
Fore
SplineSet
147 210 m 257
 177 290 l 257
 487 290 l 257
 517 210 l 257
 147 210 l 257
330 542 m 257
 212 264 l 257
 204 246 l 257
 100 0 l 257
 5 0 l 257
 330 735 l 257
 655 0 l 257
 560 0 l 257
 458 240 l 257
 450 260 l 257
 330 542 l 257
330 850 m 257
 220 755 l 257
 170 795 l 257
 330 935 l 257
 490 795 l 257
 440 755 l 257
 330 850 l 257
EndSplineSet
EndChar

StartChar: Atilde
Encoding: 195 195 188
GlifName: A_tilde
Width: 660
VWidth: 0
Flags: HMW
LayerCount: 2
Fore
SplineSet
147 210 m 257
 177 290 l 257
 487 290 l 257
 517 210 l 257
 147 210 l 257
330 542 m 257
 212 264 l 257
 204 246 l 257
 100 0 l 257
 5 0 l 257
 330 735 l 257
 655 0 l 257
 560 0 l 257
 458 240 l 257
 450 260 l 257
 330 542 l 257
165 812 m 257
 175 861 224 894 269 894 c 256
 334 894 339 847 393 847 c 256
 412 847 429 863 449 895 c 257
 495 852 l 257
 479 815 439 779 389 779 c 256
 334 779 313 826 268 826 c 256
 227 826 218 790 218 775 c 257
 165 812 l 257
EndSplineSet
EndChar

StartChar: Adieresis
Encoding: 196 196 189
GlifName: A_dieresis
Width: 660
VWidth: 0
Flags: HMW
LayerCount: 2
Fore
SplineSet
147 210 m 257
 177 290 l 257
 487 290 l 257
 517 210 l 257
 147 210 l 257
330 542 m 257
 212 264 l 257
 204 246 l 257
 100 0 l 257
 5 0 l 257
 330 735 l 257
 655 0 l 257
 560 0 l 257
 458 240 l 257
 450 260 l 257
 330 542 l 257
375 850 m 256
 375 880 400 905 430 905 c 256
 460 905 485 880 485 850 c 256
 485 820 460 795 430 795 c 256
 400 795 375 820 375 850 c 256
175 850 m 256
 175 880 200 905 230 905 c 256
 260 905 285 880 285 850 c 256
 285 820 260 795 230 795 c 256
 200 795 175 820 175 850 c 256
EndSplineSet
EndChar

StartChar: Aring
Encoding: 197 197 190
GlifName: A_ring
Width: 660
VWidth: 0
Flags: HMW
LayerCount: 2
Fore
SplineSet
147 210 m 257
 177 290 l 257
 487 290 l 257
 517 210 l 257
 147 210 l 257
330 542 m 257
 212 264 l 257
 204 246 l 257
 100 0 l 257
 5 0 l 257
 330 735 l 257
 655 0 l 257
 560 0 l 257
 458 240 l 257
 450 260 l 257
 330 542 l 257
228 798 m 256
 228 858 278 898 330 898 c 256
 382 898 432 858 432 798 c 256
 432 738 382 698 330 698 c 256
 278 698 228 738 228 798 c 256
279 798 m 256
 279 765 305 745 330 745 c 256
 355 745 381 765 381 798 c 256
 381 831 355 851 330 851 c 256
 305 851 279 831 279 798 c 256
EndSplineSet
EndChar

StartChar: AE
Encoding: 198 198 191
GlifName: A_E_
Width: 960
VWidth: 0
Flags: HMW
LayerCount: 2
Fore
SplineSet
217 210 m 257
 217 290 l 257
 517 290 l 257
 517 210 l 257
 217 210 l 257
435 700 m 257
 504 660 l 257
 100 0 l 257
 5 0 l 257
 435 700 l 257
537 0 m 257
 537 80 l 257
 890 80 l 257
 890 0 l 257
 537 0 l 257
545 620 m 257
 435 700 l 257
 890 700 l 257
 890 620 l 257
 545 620 l 257
537 340 m 257
 537 420 l 257
 870 420 l 257
 870 340 l 257
 537 340 l 257
490 700 m 257
 575 700 l 257
 575 0 l 257
 490 0 l 257
 490 700 l 257
EndSplineSet
EndChar

StartChar: Ccedilla
Encoding: 199 199 192
GlifName: C_cedilla
Width: 685
VWidth: 0
Flags: HMW
LayerCount: 2
Fore
SplineSet
130 350 m 256
 130 187 252 75 390 75 c 256
 489 75 566 117 615 179 c 257
 615 67 l 257
 556 15 492 -10 390 -10 c 256
 196 -10 40 141 40 350 c 256
 40 559 196 710 390 710 c 256
 492 710 556 685 615 633 c 257
 615 521 l 257
 566 583 489 625 390 625 c 256
 252 625 130 513 130 350 c 256
380 59 m 257
 440 59 l 257
 377 -53 l 257
 380 -53 383 -53 386 -53 c 256
 419 -53 458 -78 458 -127 c 256
 458 -188 407 -221 352 -221 c 256
 315 -221 290 -211 262 -183 c 257
 296 -143 l 257
 315 -159 326 -167 352 -167 c 256
 386 -167 402 -151 402 -127 c 256
 402 -103 386 -91 352 -91 c 256
 342 -91 315 -95 294 -109 c 257
 380 59 l 257
EndSplineSet
EndChar

StartChar: Egrave
Encoding: 200 200 193
GlifName: E_grave
Width: 550
VWidth: 0
Flags: HMW
LayerCount: 2
Fore
SplineSet
127 0 m 257
 127 80 l 257
 480 80 l 257
 480 0 l 257
 127 0 l 257
127 620 m 257
 127 700 l 257
 480 700 l 257
 480 620 l 257
 127 620 l 257
127 340 m 257
 127 420 l 257
 460 420 l 257
 460 340 l 257
 127 340 l 257
80 700 m 257
 165 700 l 257
 165 0 l 257
 80 0 l 257
 80 700 l 257
150 920 m 257
 225 960 l 257
 375 800 l 257
 330 770 l 257
 150 920 l 257
EndSplineSet
EndChar

StartChar: Eacute
Encoding: 201 201 194
GlifName: E_acute
Width: 550
VWidth: 0
Flags: HMW
LayerCount: 2
Fore
SplineSet
127 0 m 257
 127 80 l 257
 480 80 l 257
 480 0 l 257
 127 0 l 257
127 620 m 257
 127 700 l 257
 480 700 l 257
 480 620 l 257
 127 620 l 257
127 340 m 257
 127 420 l 257
 460 420 l 257
 460 340 l 257
 127 340 l 257
80 700 m 257
 165 700 l 257
 165 0 l 257
 80 0 l 257
 80 700 l 257
410 920 m 257
 230 770 l 257
 185 800 l 257
 335 960 l 257
 410 920 l 257
EndSplineSet
EndChar

StartChar: Ecircumflex
Encoding: 202 202 195
GlifName: E_circumflex
Width: 550
VWidth: 0
Flags: HMW
LayerCount: 2
Fore
SplineSet
127 0 m 257
 127 80 l 257
 480 80 l 257
 480 0 l 257
 127 0 l 257
127 620 m 257
 127 700 l 257
 480 700 l 257
 480 620 l 257
 127 620 l 257
127 340 m 257
 127 420 l 257
 460 420 l 257
 460 340 l 257
 127 340 l 257
80 700 m 257
 165 700 l 257
 165 0 l 257
 80 0 l 257
 80 700 l 257
290 865 m 257
 180 770 l 257
 130 810 l 257
 290 950 l 257
 450 810 l 257
 400 770 l 257
 290 865 l 257
EndSplineSet
EndChar

StartChar: Edieresis
Encoding: 203 203 196
GlifName: E_dieresis
Width: 550
VWidth: 0
Flags: HMW
LayerCount: 2
Fore
SplineSet
127 0 m 257
 127 80 l 257
 480 80 l 257
 480 0 l 257
 127 0 l 257
127 620 m 257
 127 700 l 257
 480 700 l 257
 480 620 l 257
 127 620 l 257
127 340 m 257
 127 420 l 257
 460 420 l 257
 460 340 l 257
 127 340 l 257
80 700 m 257
 165 700 l 257
 165 0 l 257
 80 0 l 257
 80 700 l 257
335 845 m 256
 335 875 360 900 390 900 c 256
 420 900 445 875 445 845 c 256
 445 815 420 790 390 790 c 256
 360 790 335 815 335 845 c 256
135 845 m 256
 135 875 160 900 190 900 c 256
 220 900 245 875 245 845 c 256
 245 815 220 790 190 790 c 256
 160 790 135 815 135 845 c 256
EndSplineSet
EndChar

StartChar: Igrave
Encoding: 204 204 197
GlifName: I_grave
Width: 245
VWidth: 0
Flags: HMW
LayerCount: 2
Fore
SplineSet
80 700 m 257
 165 700 l 257
 165 0 l 257
 80 0 l 257
 80 700 l 257
-8 920 m 257
 68 960 l 257
 218 800 l 257
 172 770 l 257
 -8 920 l 257
EndSplineSet
EndChar

StartChar: Iacute
Encoding: 205 205 198
GlifName: I_acute
Width: 245
VWidth: 0
Flags: HMW
LayerCount: 2
Fore
SplineSet
80 700 m 257
 165 700 l 257
 165 0 l 257
 80 0 l 257
 80 700 l 257
252 920 m 257
 72 770 l 257
 28 800 l 257
 178 960 l 257
 252 920 l 257
EndSplineSet
EndChar

StartChar: Icircumflex
Encoding: 206 206 199
GlifName: I_circumflex
Width: 245
VWidth: 0
Flags: HMW
LayerCount: 2
Fore
SplineSet
80 700 m 257
 165 700 l 257
 165 0 l 257
 80 0 l 257
 80 700 l 257
122 865 m 257
 12 770 l 257
 -38 810 l 257
 122 950 l 257
 282 810 l 257
 232 770 l 257
 122 865 l 257
EndSplineSet
EndChar

StartChar: Idieresis
Encoding: 207 207 200
GlifName: I_dieresis
Width: 245
VWidth: 0
Flags: HMW
LayerCount: 2
Fore
SplineSet
80 700 m 257
 165 700 l 257
 165 0 l 257
 80 0 l 257
 80 700 l 257
168 825 m 256
 168 855 192 880 222 880 c 256
 252 880 278 855 278 825 c 256
 278 795 252 770 222 770 c 256
 192 770 168 795 168 825 c 256
-32 825 m 256
 -32 855 -8 880 22 880 c 256
 52 880 78 855 78 825 c 256
 78 795 52 770 22 770 c 256
 -8 770 -32 795 -32 825 c 256
EndSplineSet
EndChar

StartChar: Ntilde
Encoding: 209 209 201
GlifName: N_tilde
Width: 775
VWidth: 0
Flags: HMW
LayerCount: 2
Fore
SplineSet
610 700 m 257
 695 700 l 257
 695 -35 l 257
 165 521 l 257
 165 0 l 257
 80 0 l 257
 80 735 l 257
 610 179 l 257
 610 700 l 257
215 792 m 257
 225 841 274 874 319 874 c 256
 384 874 389 827 443 827 c 256
 462 827 479 843 499 875 c 257
 545 832 l 257
 529 795 489 759 439 759 c 256
 384 759 363 806 318 806 c 256
 277 806 268 770 268 755 c 257
 215 792 l 257
EndSplineSet
EndChar

StartChar: Eth
Encoding: 208 208 202
GlifName: E_th
Width: 680
VWidth: 0
Flags: HMW
LayerCount: 2
Fore
SplineSet
5 310 m 257
 5 385 l 257
 305 385 l 257
 305 310 l 257
 5 310 l 257
80 700 m 257
 165 700 l 257
 165 0 l 257
 80 0 l 257
 80 700 l 257
290 0 m 258
 127 0 l 257
 127 85 l 257
 290 85 l 258
 448 85 555 187 555 350 c 256
 555 513 448 615 290 615 c 258
 127 615 l 257
 127 700 l 257
 290 700 l 258
 494 700 640 559 640 350 c 256
 640 141 494 0 290 0 c 258
EndSplineSet
EndChar

StartChar: Ograve
Encoding: 210 210 203
GlifName: O_grave
Width: 790
VWidth: 0
Flags: HMW
LayerCount: 2
Fore
SplineSet
130 350 m 256
 130 192 242 75 395 75 c 256
 548 75 660 192 660 350 c 256
 660 508 548 625 395 625 c 256
 242 625 130 508 130 350 c 256
40 350 m 256
 40 554 191 710 395 710 c 256
 599 710 750 554 750 350 c 256
 750 146 599 -10 395 -10 c 256
 191 -10 40 146 40 350 c 256
275 920 m 257
 350 960 l 257
 500 800 l 257
 455 770 l 257
 275 920 l 257
EndSplineSet
EndChar

StartChar: Oacute
Encoding: 211 211 204
GlifName: O_acute
Width: 790
VWidth: 0
Flags: HMW
LayerCount: 2
Fore
SplineSet
130 350 m 256
 130 192 242 75 395 75 c 256
 548 75 660 192 660 350 c 256
 660 508 548 625 395 625 c 256
 242 625 130 508 130 350 c 256
40 350 m 256
 40 554 191 710 395 710 c 256
 599 710 750 554 750 350 c 256
 750 146 599 -10 395 -10 c 256
 191 -10 40 146 40 350 c 256
515 920 m 257
 335 770 l 257
 290 800 l 257
 440 960 l 257
 515 920 l 257
EndSplineSet
EndChar

StartChar: Ocircumflex
Encoding: 212 212 205
GlifName: O_circumflex
Width: 790
VWidth: 0
Flags: HMW
LayerCount: 2
Fore
SplineSet
130 350 m 256
 130 192 242 75 395 75 c 256
 548 75 660 192 660 350 c 256
 660 508 548 625 395 625 c 256
 242 625 130 508 130 350 c 256
40 350 m 256
 40 554 191 710 395 710 c 256
 599 710 750 554 750 350 c 256
 750 146 599 -10 395 -10 c 256
 191 -10 40 146 40 350 c 256
395 865 m 257
 285 770 l 257
 235 810 l 257
 395 950 l 257
 555 810 l 257
 505 770 l 257
 395 865 l 257
EndSplineSet
EndChar

StartChar: Otilde
Encoding: 213 213 206
GlifName: O_tilde
Width: 790
VWidth: 0
Flags: HMW
LayerCount: 2
Fore
SplineSet
130 350 m 256
 130 192 242 75 395 75 c 256
 548 75 660 192 660 350 c 256
 660 508 548 625 395 625 c 256
 242 625 130 508 130 350 c 256
40 350 m 256
 40 554 191 710 395 710 c 256
 599 710 750 554 750 350 c 256
 750 146 599 -10 395 -10 c 256
 191 -10 40 146 40 350 c 256
230 807 m 257
 240 856 289 889 334 889 c 256
 399 889 404 842 458 842 c 256
 477 842 494 858 514 890 c 257
 560 847 l 257
 544 810 504 774 454 774 c 256
 399 774 378 821 333 821 c 256
 292 821 283 785 283 770 c 257
 230 807 l 257
EndSplineSet
EndChar

StartChar: Odieresis
Encoding: 214 214 207
GlifName: O_dieresis
Width: 790
VWidth: 0
Flags: HMW
LayerCount: 2
Fore
SplineSet
130 350 m 256
 130 192 242 75 395 75 c 256
 548 75 660 192 660 350 c 256
 660 508 548 625 395 625 c 256
 242 625 130 508 130 350 c 256
40 350 m 256
 40 554 191 710 395 710 c 256
 599 710 750 554 750 350 c 256
 750 146 599 -10 395 -10 c 256
 191 -10 40 146 40 350 c 256
440 825 m 256
 440 855 465 880 495 880 c 256
 525 880 550 855 550 825 c 256
 550 795 525 770 495 770 c 256
 465 770 440 795 440 825 c 256
240 825 m 256
 240 855 265 880 295 880 c 256
 325 880 350 855 350 825 c 256
 350 795 325 770 295 770 c 256
 265 770 240 795 240 825 c 256
EndSplineSet
EndChar

StartChar: Ugrave
Encoding: 217 217 208
GlifName: U_grave
Width: 626
VWidth: 0
Flags: HMW
LayerCount: 2
Fore
SplineSet
75 700 m 257
 160 700 l 257
 160 230 l 258
 160 134 213 70 313 70 c 256
 413 70 466 134 466 230 c 258
 466 700 l 257
 551 700 l 257
 551 230 l 258
 551 91 458 -10 313 -10 c 256
 168 -10 75 91 75 230 c 258
 75 700 l 257
183 920 m 257
 258 960 l 257
 408 800 l 257
 363 770 l 257
 183 920 l 257
EndSplineSet
EndChar

StartChar: Uacute
Encoding: 218 218 209
GlifName: U_acute
Width: 626
VWidth: 0
Flags: HMW
LayerCount: 2
Fore
SplineSet
75 700 m 257
 160 700 l 257
 160 230 l 258
 160 134 213 70 313 70 c 256
 413 70 466 134 466 230 c 258
 466 700 l 257
 551 700 l 257
 551 230 l 258
 551 91 458 -10 313 -10 c 256
 168 -10 75 91 75 230 c 258
 75 700 l 257
443 920 m 257
 263 770 l 257
 218 800 l 257
 368 960 l 257
 443 920 l 257
EndSplineSet
EndChar

StartChar: Ucircumflex
Encoding: 219 219 210
GlifName: U_circumflex
Width: 626
VWidth: 0
Flags: HMW
LayerCount: 2
Fore
SplineSet
75 700 m 257
 160 700 l 257
 160 230 l 258
 160 134 213 70 313 70 c 256
 413 70 466 134 466 230 c 258
 466 700 l 257
 551 700 l 257
 551 230 l 258
 551 91 458 -10 313 -10 c 256
 168 -10 75 91 75 230 c 258
 75 700 l 257
313 865 m 257
 203 770 l 257
 153 810 l 257
 313 950 l 257
 473 810 l 257
 423 770 l 257
 313 865 l 257
EndSplineSet
EndChar

StartChar: Udieresis
Encoding: 220 220 211
GlifName: U_dieresis
Width: 626
VWidth: 0
Flags: HMW
LayerCount: 2
Fore
SplineSet
75 700 m 257
 160 700 l 257
 160 230 l 258
 160 134 213 70 313 70 c 256
 413 70 466 134 466 230 c 258
 466 700 l 257
 551 700 l 257
 551 230 l 258
 551 91 458 -10 313 -10 c 256
 168 -10 75 91 75 230 c 258
 75 700 l 257
358 825 m 256
 358 855 383 880 413 880 c 256
 443 880 468 855 468 825 c 256
 468 795 443 770 413 770 c 256
 383 770 358 795 358 825 c 256
158 825 m 256
 158 855 183 880 213 880 c 256
 243 880 268 855 268 825 c 256
 268 795 243 770 213 770 c 256
 183 770 158 795 158 825 c 256
EndSplineSet
EndChar

StartChar: Yacute
Encoding: 221 221 212
GlifName: Y_acute
Width: 561
VWidth: 0
Flags: HMW
LayerCount: 2
Fore
SplineSet
410 920 m 257
 230 770 l 257
 186 800 l 257
 336 960 l 257
 410 920 l 257
461 700 m 257
 556 700 l 257
 323 302 l 257
 323 0 l 257
 238 0 l 257
 238 301 l 257
 5 700 l 257
 100 700 l 257
 280 376 l 257
 461 700 l 257
EndSplineSet
EndChar

StartChar: agrave
Encoding: 224 224 213
GlifName: agrave
Width: 485
VWidth: 0
Flags: HMW
LayerCount: 2
Fore
SplineSet
111 135 m 256
 111 86 144 61 208 61 c 256
 288 61 345 94 345 180 c 257
 361 130 l 257
 361 41 283 -10 188 -10 c 256
 93 -10 30 41 30 125 c 256
 30 232 115 286 226 286 c 256
 314 286 364 242 378 225 c 257
 378 178 l 257
 333 210 288 225 230 225 c 256
 149 225 111 191 111 135 c 256
111 352 m 257
 72 413 l 257
 106 438 165 470 248 470 c 256
 353 470 425 419 425 330 c 258
 425 0 l 257
 345 0 l 257
 345 330 l 258
 345 376 298 400 248 400 c 256
 182 400 133 368 111 352 c 257
88 680 m 257
 163 720 l 257
 313 560 l 257
 268 530 l 257
 88 680 l 257
EndSplineSet
Substitution2: "alt a" agrave.alt
EndChar

StartChar: aacute
Encoding: 225 225 214
GlifName: aacute
Width: 485
VWidth: 0
Flags: HMW
LayerCount: 2
Fore
SplineSet
111 135 m 256
 111 86 144 61 208 61 c 256
 288 61 345 94 345 180 c 257
 361 130 l 257
 361 41 283 -10 188 -10 c 256
 93 -10 30 41 30 125 c 256
 30 232 115 286 226 286 c 256
 314 286 364 242 378 225 c 257
 378 178 l 257
 333 210 288 225 230 225 c 256
 149 225 111 191 111 135 c 256
111 352 m 257
 72 413 l 257
 106 438 165 470 248 470 c 256
 353 470 425 419 425 330 c 258
 425 0 l 257
 345 0 l 257
 345 330 l 258
 345 376 298 400 248 400 c 256
 182 400 133 368 111 352 c 257
408 680 m 257
 228 530 l 257
 183 560 l 257
 333 720 l 257
 408 680 l 257
EndSplineSet
Substitution2: "alt a" aacute.alt
EndChar

StartChar: acircumflex
Encoding: 226 226 215
GlifName: acircumflex
Width: 485
VWidth: 0
Flags: HMW
LayerCount: 2
Fore
SplineSet
111 135 m 256
 111 86 144 61 208 61 c 256
 288 61 345 94 345 180 c 257
 361 130 l 257
 361 41 283 -10 188 -10 c 256
 93 -10 30 41 30 125 c 256
 30 232 115 286 226 286 c 256
 314 286 364 242 378 225 c 257
 378 178 l 257
 333 210 288 225 230 225 c 256
 149 225 111 191 111 135 c 256
111 352 m 257
 72 413 l 257
 106 438 165 470 248 470 c 256
 353 470 425 419 425 330 c 258
 425 0 l 257
 345 0 l 257
 345 330 l 258
 345 376 298 400 248 400 c 256
 182 400 133 368 111 352 c 257
248 625 m 257
 138 530 l 257
 88 570 l 257
 248 710 l 257
 408 570 l 257
 358 530 l 257
 248 625 l 257
EndSplineSet
Substitution2: "alt a" acircumflex.alt
EndChar

StartChar: atilde
Encoding: 227 227 216
GlifName: atilde
Width: 485
VWidth: 0
Flags: HMW
LayerCount: 2
Fore
SplineSet
111 135 m 256
 111 86 144 61 208 61 c 256
 288 61 345 94 345 180 c 257
 361 130 l 257
 361 41 283 -10 188 -10 c 256
 93 -10 30 41 30 125 c 256
 30 232 115 286 226 286 c 256
 314 286 364 242 378 225 c 257
 378 178 l 257
 333 210 288 225 230 225 c 256
 149 225 111 191 111 135 c 256
111 352 m 257
 72 413 l 257
 106 438 165 470 248 470 c 256
 353 470 425 419 425 330 c 258
 425 0 l 257
 345 0 l 257
 345 330 l 258
 345 376 298 400 248 400 c 256
 182 400 133 368 111 352 c 257
83 567 m 257
 93 616 142 649 187 649 c 256
 252 649 257 602 311 602 c 256
 330 602 347 618 367 650 c 257
 413 607 l 257
 397 570 357 534 307 534 c 256
 252 534 231 581 186 581 c 256
 145 581 136 545 136 530 c 257
 83 567 l 257
EndSplineSet
Substitution2: "alt a" atilde.alt
EndChar

StartChar: adieresis
Encoding: 228 228 217
GlifName: adieresis
Width: 485
VWidth: 0
Flags: HMW
LayerCount: 2
Fore
SplineSet
111 135 m 256
 111 86 144 61 208 61 c 256
 288 61 345 94 345 180 c 257
 361 130 l 257
 361 41 283 -10 188 -10 c 256
 93 -10 30 41 30 125 c 256
 30 232 115 286 226 286 c 256
 314 286 364 242 378 225 c 257
 378 178 l 257
 333 210 288 225 230 225 c 256
 149 225 111 191 111 135 c 256
111 352 m 257
 72 413 l 257
 106 438 165 470 248 470 c 256
 353 470 425 419 425 330 c 258
 425 0 l 257
 345 0 l 257
 345 330 l 258
 345 376 298 400 248 400 c 256
 182 400 133 368 111 352 c 257
293 585 m 256
 293 615 318 640 348 640 c 256
 378 640 403 615 403 585 c 256
 403 555 378 530 348 530 c 256
 318 530 293 555 293 585 c 256
93 585 m 256
 93 615 118 640 148 640 c 256
 178 640 203 615 203 585 c 256
 203 555 178 530 148 530 c 256
 118 530 93 555 93 585 c 256
EndSplineSet
Substitution2: "alt a" adieresis.alt
EndChar

StartChar: aring
Encoding: 229 229 218
GlifName: aring
Width: 485
VWidth: 0
Flags: HMW
LayerCount: 2
Fore
SplineSet
111 135 m 256
 111 86 144 61 208 61 c 256
 288 61 345 94 345 180 c 257
 361 130 l 257
 361 41 283 -10 188 -10 c 256
 93 -10 30 41 30 125 c 256
 30 232 115 286 226 286 c 256
 314 286 364 242 378 225 c 257
 378 178 l 257
 333 210 288 225 230 225 c 256
 149 225 111 191 111 135 c 256
111 352 m 257
 72 413 l 257
 106 438 165 470 248 470 c 256
 353 470 425 419 425 330 c 258
 425 0 l 257
 345 0 l 257
 345 330 l 258
 345 376 298 400 248 400 c 256
 182 400 133 368 111 352 c 257
146 630 m 256
 146 690 196 730 248 730 c 256
 300 730 350 690 350 630 c 256
 350 570 300 530 248 530 c 256
 196 530 146 570 146 630 c 256
197 630 m 256
 197 597 223 577 248 577 c 256
 273 577 299 597 299 630 c 256
 299 663 273 683 248 683 c 256
 223 683 197 663 197 630 c 256
EndSplineSet
Substitution2: "alt a" aring.alt
EndChar

StartChar: germandbls
Encoding: 223 223 219
GlifName: germandbls
Width: 570
VWidth: 0
Flags: HMW
LayerCount: 2
Fore
SplineSet
272 65 m 257
 352 65 444 129 444 235 c 256
 444 321 362 405 252 405 c 257
 252 460 l 257
 407 460 525 364 525 225 c 256
 525 86 407 -10 272 -10 c 257
 272 65 l 257
252 425 m 257
 252 480 l 257
 362 480 404 540 404 596 c 256
 404 662 367 715 277 715 c 256
 217 715 160 682 160 606 c 258
 160 0 l 257
 80 0 l 257
 80 606 l 258
 80 715 172 790 277 790 c 256
 412 790 485 715 485 606 c 256
 485 487 407 425 252 425 c 257
EndSplineSet
EndChar

StartChar: ae
Encoding: 230 230 220
GlifName: ae
Width: 825
VWidth: 0
Flags: HMW
LayerCount: 2
Fore
SplineSet
111 135 m 256
 111 86 144 61 208 61 c 256
 288 61 345 94 345 180 c 257
 391 130 l 257
 391 41 303 -10 208 -10 c 256
 93 -10 30 41 30 125 c 256
 30 232 115 286 226 286 c 256
 314 286 364 242 378 225 c 257
 378 178 l 257
 333 210 288 225 230 225 c 256
 149 225 111 191 111 135 c 256
111 352 m 257
 72 413 l 257
 106 438 165 470 248 470 c 256
 353 470 405 419 405 330 c 258
 405 130 l 257
 345 130 l 257
 345 320 l 258
 345 366 298 400 248 400 c 256
 182 400 133 368 111 352 c 257
406 210 m 257
 406 278 l 257
 769 278 l 257
 789 210 l 257
 406 210 l 257
705 250 m 258
 705 336 663 400 573 400 c 256
 493 400 428 346 428 260 c 257
 426 230 l 257
 426 124 483 65 573 65 c 256
 640 65 686 98 717 148 c 257
 782 107 l 257
 736 37 682 -10 563 -10 c 256
 438 -10 355 91 355 230 c 256
 355 247 366 263 369 279 c 256
 388 392 464 470 583 470 c 256
 693 470 790 379 790 234 c 256
 790 226 790 218 789 210 c 257
 705 230 l 257
 705 250 l 258
EndSplineSet
EndChar

StartChar: ccedilla
Encoding: 231 231 221
GlifName: ccedilla
Width: 478
VWidth: 0
Flags: HMW
LayerCount: 2
Fore
SplineSet
111 230 m 256
 111 134 178 65 268 65 c 256
 342 65 407 104 428 149 c 257
 428 49 l 257
 396 11 331 -10 268 -10 c 256
 133 -10 30 91 30 230 c 256
 30 369 133 470 268 470 c 256
 331 470 396 448 428 411 c 257
 428 311 l 257
 407 356 342 395 268 395 c 256
 178 395 111 326 111 230 c 256
258 59 m 257
 318 59 l 257
 255 -53 l 257
 258 -53 261 -53 264 -53 c 256
 297 -53 336 -78 336 -127 c 256
 336 -188 285 -221 230 -221 c 256
 193 -221 168 -211 140 -183 c 257
 174 -143 l 257
 193 -159 204 -167 230 -167 c 256
 264 -167 280 -151 280 -127 c 256
 280 -103 264 -91 230 -91 c 256
 220 -91 193 -95 172 -109 c 257
 258 59 l 257
EndSplineSet
EndChar

StartChar: egrave
Encoding: 232 232 222
GlifName: egrave
Width: 515
VWidth: 0
Flags: HMW
LayerCount: 2
Fore
SplineSet
86 210 m 257
 86 278 l 257
 393 278 l 257
 385 350 343 400 263 400 c 256
 183 400 118 346 118 260 c 257
 116 230 l 257
 116 124 173 65 263 65 c 256
 330 65 376 98 407 148 c 257
 472 107 l 257
 426 37 372 -10 253 -10 c 256
 128 -10 35 91 35 230 c 256
 35 247 36 263 39 279 c 256
 58 392 144 470 263 470 c 256
 393 470 480 379 480 234 c 256
 480 226 480 218 479 210 c 257
 86 210 l 257
123 690 m 257
 198 730 l 257
 348 570 l 257
 303 540 l 257
 123 690 l 257
EndSplineSet
EndChar

StartChar: eacute
Encoding: 233 233 223
GlifName: eacute
Width: 515
VWidth: 0
Flags: HMW
LayerCount: 2
Fore
SplineSet
86 210 m 257
 86 278 l 257
 393 278 l 257
 385 350 343 400 263 400 c 256
 183 400 118 346 118 260 c 257
 116 230 l 257
 116 124 173 65 263 65 c 256
 330 65 376 98 407 148 c 257
 472 107 l 257
 426 37 372 -10 253 -10 c 256
 128 -10 35 91 35 230 c 256
 35 247 36 263 39 279 c 256
 58 392 144 470 263 470 c 256
 393 470 480 379 480 234 c 256
 480 226 480 218 479 210 c 257
 86 210 l 257
423 690 m 257
 243 540 l 257
 198 570 l 257
 348 730 l 257
 423 690 l 257
EndSplineSet
EndChar

StartChar: ecircumflex
Encoding: 234 234 224
GlifName: ecircumflex
Width: 515
VWidth: 0
Flags: HMW
LayerCount: 2
Fore
SplineSet
86 210 m 257
 86 278 l 257
 393 278 l 257
 385 350 343 400 263 400 c 256
 183 400 118 346 118 260 c 257
 116 230 l 257
 116 124 173 65 263 65 c 256
 330 65 376 98 407 148 c 257
 472 107 l 257
 426 37 372 -10 253 -10 c 256
 128 -10 35 91 35 230 c 256
 35 247 36 263 39 279 c 256
 58 392 144 470 263 470 c 256
 393 470 480 379 480 234 c 256
 480 226 480 218 479 210 c 257
 86 210 l 257
263 625 m 257
 153 530 l 257
 103 570 l 257
 263 710 l 257
 423 570 l 257
 373 530 l 257
 263 625 l 257
EndSplineSet
EndChar

StartChar: edieresis
Encoding: 235 235 225
GlifName: edieresis
Width: 515
VWidth: 0
Flags: HMW
LayerCount: 2
Fore
SplineSet
86 210 m 257
 86 278 l 257
 393 278 l 257
 385 350 343 400 263 400 c 256
 183 400 118 346 118 260 c 257
 116 230 l 257
 116 124 173 65 263 65 c 256
 330 65 376 98 407 148 c 257
 472 107 l 257
 426 37 372 -10 253 -10 c 256
 128 -10 35 91 35 230 c 256
 35 247 36 263 39 279 c 256
 58 392 144 470 263 470 c 256
 393 470 480 379 480 234 c 256
 480 226 480 218 479 210 c 257
 86 210 l 257
308 585 m 256
 308 615 333 640 363 640 c 256
 393 640 418 615 418 585 c 256
 418 555 393 530 363 530 c 256
 333 530 308 555 308 585 c 256
108 585 m 256
 108 615 133 640 163 640 c 256
 193 640 218 615 218 585 c 256
 218 555 193 530 163 530 c 256
 133 530 108 555 108 585 c 256
EndSplineSet
EndChar

StartChar: igrave
Encoding: 236 236 226
GlifName: igrave
Width: 260
VWidth: 0
Flags: HMW
LayerCount: 2
Fore
SplineSet
90 460 m 257
 170 460 l 257
 170 0 l 257
 90 0 l 257
 90 460 l 257
-30 700 m 257
 45 740 l 257
 195 580 l 257
 150 550 l 257
 -30 700 l 257
EndSplineSet
EndChar

StartChar: dotlessi
Encoding: 305 305 227
GlifName: dotlessi
Width: 260
VWidth: 0
Flags: HMW
LayerCount: 2
Fore
SplineSet
90 460 m 257
 170 460 l 257
 170 0 l 257
 90 0 l 257
 90 460 l 257
EndSplineSet
EndChar

StartChar: kgreenlandic
Encoding: 312 312 228
GlifName: kgreenlandic
Width: 440
VWidth: 0
Flags: HMW
LayerCount: 2
Fore
SplineSet
70 460 m 257
 150 460 l 257
 150 0 l 257
 70 0 l 257
 70 460 l 257
320 460 m 257
 420 460 l 257
 220 270 l 257
 440 0 l 257
 340 0 l 257
 120 270 l 257
 320 460 l 257
EndSplineSet
EndChar

StartChar: iacute
Encoding: 237 237 229
GlifName: iacute
Width: 260
VWidth: 0
Flags: HMW
LayerCount: 2
Fore
SplineSet
90 460 m 257
 170 460 l 257
 170 0 l 257
 90 0 l 257
 90 460 l 257
290 700 m 257
 110 550 l 257
 65 580 l 257
 215 740 l 257
 290 700 l 257
EndSplineSet
EndChar

StartChar: icircumflex
Encoding: 238 238 230
GlifName: icircumflex
Width: 260
VWidth: 0
Flags: HMW
LayerCount: 2
Fore
SplineSet
90 460 m 257
 170 460 l 257
 170 0 l 257
 90 0 l 257
 90 460 l 257
130 635 m 257
 20 540 l 257
 -30 580 l 257
 130 720 l 257
 290 580 l 257
 240 540 l 257
 130 635 l 257
EndSplineSet
EndChar

StartChar: idieresis
Encoding: 239 239 231
GlifName: idieresis
Width: 260
VWidth: 0
Flags: HMW
LayerCount: 2
Fore
SplineSet
90 460 m 257
 170 460 l 257
 170 0 l 257
 90 0 l 257
 90 460 l 257
175 615 m 256
 175 645 200 670 230 670 c 256
 260 670 285 645 285 615 c 256
 285 585 260 560 230 560 c 256
 200 560 175 585 175 615 c 256
-25 615 m 256
 -25 645 0 670 30 670 c 256
 60 670 85 645 85 615 c 256
 85 585 60 560 30 560 c 256
 0 560 -25 585 -25 615 c 256
EndSplineSet
EndChar

StartChar: ntilde
Encoding: 241 241 232
GlifName: ntilde
Width: 525
VWidth: 0
Flags: HMW
LayerCount: 2
Fore
SplineSet
155 460 m 257
 155 0 l 257
 75 0 l 257
 75 460 l 257
 155 460 l 257
370 280 m 258
 370 356 337 395 272 395 c 256
 202 395 155 346 155 280 c 257
 119 280 l 257
 119 389 197 470 292 470 c 256
 387 470 450 409 450 290 c 258
 450 0 l 257
 370 0 l 257
 370 280 l 258
98 567 m 257
 108 616 157 649 202 649 c 256
 267 649 272 602 326 602 c 256
 345 602 362 618 382 650 c 257
 428 607 l 257
 412 570 372 534 322 534 c 256
 267 534 246 581 201 581 c 256
 160 581 151 545 151 530 c 257
 98 567 l 257
EndSplineSet
EndChar

StartChar: ograve
Encoding: 242 242 233
GlifName: ograve
Width: 546
VWidth: 0
Flags: HMW
LayerCount: 2
Fore
SplineSet
35 230 m 256
 35 369 138 470 273 470 c 256
 408 470 511 369 511 230 c 256
 511 91 408 -10 273 -10 c 256
 138 -10 35 91 35 230 c 256
116 230 m 256
 116 134 183 65 273 65 c 256
 363 65 430 134 430 230 c 256
 430 326 363 395 273 395 c 256
 183 395 116 326 116 230 c 256
113 700 m 257
 188 740 l 257
 338 580 l 257
 293 550 l 257
 113 700 l 257
EndSplineSet
EndChar

StartChar: oacute
Encoding: 243 243 234
GlifName: oacute
Width: 546
VWidth: 0
Flags: HMW
LayerCount: 2
Fore
SplineSet
35 230 m 256
 35 369 138 470 273 470 c 256
 408 470 511 369 511 230 c 256
 511 91 408 -10 273 -10 c 256
 138 -10 35 91 35 230 c 256
116 230 m 256
 116 134 183 65 273 65 c 256
 363 65 430 134 430 230 c 256
 430 326 363 395 273 395 c 256
 183 395 116 326 116 230 c 256
433 700 m 257
 253 550 l 257
 208 580 l 257
 358 740 l 257
 433 700 l 257
EndSplineSet
EndChar

StartChar: ocircumflex
Encoding: 244 244 235
GlifName: ocircumflex
Width: 546
VWidth: 0
Flags: HMW
LayerCount: 2
Fore
SplineSet
35 230 m 256
 35 369 138 470 273 470 c 256
 408 470 511 369 511 230 c 256
 511 91 408 -10 273 -10 c 256
 138 -10 35 91 35 230 c 256
116 230 m 256
 116 134 183 65 273 65 c 256
 363 65 430 134 430 230 c 256
 430 326 363 395 273 395 c 256
 183 395 116 326 116 230 c 256
273 645 m 257
 163 550 l 257
 113 590 l 257
 273 730 l 257
 433 590 l 257
 383 550 l 257
 273 645 l 257
EndSplineSet
EndChar

StartChar: otilde
Encoding: 245 245 236
GlifName: otilde
Width: 546
VWidth: 0
Flags: HMW
LayerCount: 2
Fore
SplineSet
35 230 m 256
 35 369 138 470 273 470 c 256
 408 470 511 369 511 230 c 256
 511 91 408 -10 273 -10 c 256
 138 -10 35 91 35 230 c 256
116 230 m 256
 116 134 183 65 273 65 c 256
 363 65 430 134 430 230 c 256
 430 326 363 395 273 395 c 256
 183 395 116 326 116 230 c 256
108 567 m 257
 118 616 167 649 212 649 c 256
 277 649 282 602 336 602 c 256
 355 602 372 618 392 650 c 257
 438 607 l 257
 422 570 382 534 332 534 c 256
 277 534 256 581 211 581 c 256
 170 581 161 545 161 530 c 257
 108 567 l 257
EndSplineSet
EndChar

StartChar: odieresis
Encoding: 246 246 237
GlifName: odieresis
Width: 546
VWidth: 0
Flags: HMW
LayerCount: 2
Fore
SplineSet
35 230 m 256
 35 369 138 470 273 470 c 256
 408 470 511 369 511 230 c 256
 511 91 408 -10 273 -10 c 256
 138 -10 35 91 35 230 c 256
116 230 m 256
 116 134 183 65 273 65 c 256
 363 65 430 134 430 230 c 256
 430 326 363 395 273 395 c 256
 183 395 116 326 116 230 c 256
318 615 m 256
 318 645 343 670 373 670 c 256
 403 670 428 645 428 615 c 256
 428 585 403 560 373 560 c 256
 343 560 318 585 318 615 c 256
118 615 m 256
 118 645 143 670 173 670 c 256
 203 670 228 645 228 615 c 256
 228 585 203 560 173 560 c 256
 143 560 118 585 118 615 c 256
EndSplineSet
EndChar

StartChar: ugrave
Encoding: 249 249 238
GlifName: ugrave
Width: 525
VWidth: 0
Flags: HMW
LayerCount: 2
Fore
SplineSet
370 0 m 257
 370 460 l 257
 450 460 l 257
 450 0 l 257
 370 0 l 257
155 180 m 258
 155 104 188 65 253 65 c 256
 323 65 370 114 370 180 c 257
 406 180 l 257
 406 71 328 -10 233 -10 c 256
 138 -10 75 51 75 170 c 258
 75 460 l 257
 155 460 l 257
 155 180 l 258
142 700 m 257
 218 740 l 257
 368 580 l 257
 322 550 l 257
 142 700 l 257
EndSplineSet
EndChar

StartChar: uacute
Encoding: 250 250 239
GlifName: uacute
Width: 525
VWidth: 0
Flags: HMW
LayerCount: 2
Fore
SplineSet
370 0 m 257
 370 460 l 257
 450 460 l 257
 450 0 l 257
 370 0 l 257
155 180 m 258
 155 104 188 65 253 65 c 256
 323 65 370 114 370 180 c 257
 406 180 l 257
 406 71 328 -10 233 -10 c 256
 138 -10 75 51 75 170 c 258
 75 460 l 257
 155 460 l 257
 155 180 l 258
382 700 m 257
 202 550 l 257
 158 580 l 257
 308 740 l 257
 382 700 l 257
EndSplineSet
EndChar

StartChar: ucircumflex
Encoding: 251 251 240
GlifName: ucircumflex
Width: 525
VWidth: 0
Flags: HMW
LayerCount: 2
Fore
SplineSet
370 0 m 257
 370 460 l 257
 450 460 l 257
 450 0 l 257
 370 0 l 257
155 180 m 258
 155 104 188 65 253 65 c 256
 323 65 370 114 370 180 c 257
 406 180 l 257
 406 71 328 -10 233 -10 c 256
 138 -10 75 51 75 170 c 258
 75 460 l 257
 155 460 l 257
 155 180 l 258
262 645 m 257
 152 550 l 257
 102 590 l 257
 262 730 l 257
 422 590 l 257
 372 550 l 257
 262 645 l 257
EndSplineSet
EndChar

StartChar: udieresis
Encoding: 252 252 241
GlifName: udieresis
Width: 525
VWidth: 0
Flags: HMW
LayerCount: 2
Fore
SplineSet
370 0 m 257
 370 460 l 257
 450 460 l 257
 450 0 l 257
 370 0 l 257
155 180 m 258
 155 104 188 65 253 65 c 256
 323 65 370 114 370 180 c 257
 406 180 l 257
 406 71 328 -10 233 -10 c 256
 138 -10 75 51 75 170 c 258
 75 460 l 257
 155 460 l 257
 155 180 l 258
308 605 m 256
 308 635 332 660 362 660 c 256
 392 660 418 635 418 605 c 256
 418 575 392 550 362 550 c 256
 332 550 308 575 308 605 c 256
108 605 m 256
 108 635 132 660 162 660 c 256
 192 660 218 635 218 605 c 256
 218 575 192 550 162 550 c 256
 132 550 108 575 108 605 c 256
EndSplineSet
EndChar

StartChar: yacute
Encoding: 253 253 242
GlifName: yacute
Width: 440
VWidth: 0
Flags: HMW
LayerCount: 2
Fore
SplineSet
440 460 m 257
 140 -220 l 257
 50 -220 l 257
 176 65 l 257
 0 460 l 257
 95 460 l 257
 241 100 l 257
 208 104 l 257
 350 460 l 257
 440 460 l 257
350 700 m 257
 170 550 l 257
 125 580 l 257
 275 740 l 257
 350 700 l 257
EndSplineSet
EndChar

StartChar: thorn
Encoding: 254 254 243
GlifName: thorn
Width: 570
VWidth: 0
Flags: HMW
LayerCount: 2
Fore
SplineSet
150 -220 m 257
 70 -220 l 257
 70 780 l 257
 150 780 l 257
 150 -220 l 257
535 230 m 256
 535 81 432 -10 307 -10 c 256
 192 -10 114 81 114 230 c 256
 114 379 192 470 307 470 c 256
 432 470 535 379 535 230 c 256
454 230 m 256
 454 336 382 395 297 395 c 256
 227 395 150 336 150 230 c 256
 150 124 227 65 297 65 c 256
 382 65 454 124 454 230 c 256
EndSplineSet
EndChar

StartChar: ydieresis
Encoding: 255 255 244
GlifName: ydieresis
Width: 440
VWidth: 0
Flags: HMW
LayerCount: 2
Fore
SplineSet
440 460 m 257
 140 -220 l 257
 50 -220 l 257
 176 65 l 257
 0 460 l 257
 95 460 l 257
 241 100 l 257
 208 104 l 257
 350 460 l 257
 440 460 l 257
265 585 m 256
 265 615 290 640 320 640 c 256
 350 640 375 615 375 585 c 256
 375 555 350 530 320 530 c 256
 290 530 265 555 265 585 c 256
65 585 m 256
 65 615 90 640 120 640 c 256
 150 640 175 615 175 585 c 256
 175 555 150 530 120 530 c 256
 90 530 65 555 65 585 c 256
EndSplineSet
EndChar

StartChar: Amacron
Encoding: 256 256 245
GlifName: A_macron
Width: 660
VWidth: 0
Flags: HMW
LayerCount: 2
Fore
SplineSet
147 210 m 257
 177 290 l 257
 487 290 l 257
 517 210 l 257
 147 210 l 257
330 542 m 257
 212 264 l 257
 204 246 l 257
 100 0 l 257
 5 0 l 257
 330 735 l 257
 655 0 l 257
 560 0 l 257
 458 240 l 257
 450 260 l 257
 330 542 l 257
155 795 m 257
 155 870 l 257
 505 870 l 257
 505 795 l 257
 155 795 l 257
EndSplineSet
EndChar

StartChar: amacron
Encoding: 257 257 246
GlifName: amacron
Width: 485
VWidth: 0
Flags: HMW
LayerCount: 2
Fore
SplineSet
111 135 m 256
 111 86 144 61 208 61 c 256
 288 61 345 94 345 180 c 257
 361 130 l 257
 361 41 283 -10 188 -10 c 256
 93 -10 30 41 30 125 c 256
 30 232 115 286 226 286 c 256
 314 286 364 242 378 225 c 257
 378 178 l 257
 333 210 288 225 230 225 c 256
 149 225 111 191 111 135 c 256
111 352 m 257
 72 413 l 257
 106 438 165 470 248 470 c 256
 353 470 425 419 425 330 c 258
 425 0 l 257
 345 0 l 257
 345 330 l 258
 345 376 298 400 248 400 c 256
 182 400 133 368 111 352 c 257
73 550 m 257
 73 625 l 257
 423 625 l 257
 423 550 l 257
 73 550 l 257
EndSplineSet
Substitution2: "alt a" amacron.alt
EndChar

StartChar: breve
Encoding: 728 728 247
GlifName: breve
Width: 546
VWidth: 0
Flags: HMW
LayerCount: 2
Fore
SplineSet
115 850 m 257
 186 850 l 257
 186 824 203 775 273 775 c 256
 343 775 360 824 360 850 c 257
 431 850 l 257
 431 781 378 710 273 710 c 256
 168 710 115 781 115 850 c 257
EndSplineSet
EndChar

StartChar: Abreve
Encoding: 258 258 248
GlifName: A_breve
Width: 660
VWidth: 0
Flags: HMW
LayerCount: 2
Fore
SplineSet
147 210 m 257
 177 290 l 257
 487 290 l 257
 517 210 l 257
 147 210 l 257
330 542 m 257
 212 264 l 257
 204 246 l 257
 100 0 l 257
 5 0 l 257
 330 735 l 257
 655 0 l 257
 560 0 l 257
 458 240 l 257
 450 260 l 257
 330 542 l 257
172 935 m 257
 243 935 l 257
 243 909 260 860 330 860 c 256
 400 860 417 909 417 935 c 257
 488 935 l 257
 488 866 435 795 330 795 c 256
 225 795 172 866 172 935 c 257
EndSplineSet
EndChar

StartChar: abreve
Encoding: 259 259 249
GlifName: abreve
Width: 485
VWidth: 0
Flags: HMW
LayerCount: 2
Fore
SplineSet
111 135 m 256
 111 86 144 61 208 61 c 256
 288 61 345 94 345 180 c 257
 361 130 l 257
 361 41 283 -10 188 -10 c 256
 93 -10 30 41 30 125 c 256
 30 232 115 286 226 286 c 256
 314 286 364 242 378 225 c 257
 378 178 l 257
 333 210 288 225 230 225 c 256
 149 225 111 191 111 135 c 256
111 352 m 257
 72 413 l 257
 106 438 165 470 248 470 c 256
 353 470 425 419 425 330 c 258
 425 0 l 257
 345 0 l 257
 345 330 l 258
 345 376 298 400 248 400 c 256
 182 400 133 368 111 352 c 257
90 670 m 257
 161 670 l 257
 161 644 178 595 248 595 c 256
 318 595 335 644 335 670 c 257
 406 670 l 257
 406 601 353 530 248 530 c 256
 143 530 90 601 90 670 c 257
EndSplineSet
Substitution2: "alt a" abreve.alt
EndChar

StartChar: Aogonek
Encoding: 260 260 250
GlifName: A_ogonek
Width: 660
VWidth: 0
Flags: HMW
LayerCount: 2
Fore
SplineSet
147 210 m 257
 177 290 l 257
 487 290 l 257
 517 210 l 257
 147 210 l 257
330 542 m 257
 212 264 l 257
 204 246 l 257
 100 0 l 257
 5 0 l 257
 330 735 l 257
 655 0 l 257
 560 0 l 257
 458 240 l 257
 450 260 l 257
 330 542 l 257
660 -130 m 257
 693 -180 l 257
 678 -200 648 -220 605 -220 c 256
 521 -220 482 -179 482 -120 c 256
 482 -61 544 -11 614 25 c 257
 655 0 l 257
 603 -22 562 -63 562 -100 c 256
 562 -136 580 -150 610 -150 c 256
 636 -150 646 -143 660 -130 c 257
EndSplineSet
EndChar

StartChar: aogonek
Encoding: 261 261 251
GlifName: aogonek
Width: 485
VWidth: 0
Flags: HMW
LayerCount: 2
Fore
SplineSet
111 135 m 256
 111 86 154 61 208 61 c 256
 288 61 345 94 345 180 c 257
 361 130 l 257
 361 41 283 -10 188 -10 c 256
 101 -10 30 38 30 132 c 256
 30 229 105 286 226 286 c 256
 314 286 364 242 378 225 c 257
 378 178 l 257
 333 210 288 225 230 225 c 256
 149 225 111 191 111 135 c 256
111 352 m 257
 72 413 l 257
 106 438 165 470 248 470 c 256
 353 470 425 419 425 330 c 258
 425 0 l 257
 345 0 l 257
 345 330 l 258
 345 376 298 400 248 400 c 256
 182 400 133 368 111 352 c 257
430 -130 m 257
 463 -180 l 257
 448 -200 418 -220 375 -220 c 256
 291 -220 252 -179 252 -120 c 256
 252 -61 314 -11 384 25 c 257
 425 0 l 257
 373 -22 332 -63 332 -100 c 256
 332 -136 350 -150 380 -150 c 256
 406 -150 416 -143 430 -130 c 257
EndSplineSet
Substitution2: "alt a" aogonek.alt
EndChar

StartChar: Cacute
Encoding: 262 262 252
GlifName: C_acute
Width: 685
VWidth: 0
Flags: HMW
LayerCount: 2
Fore
SplineSet
130 350 m 256
 130 187 252 75 390 75 c 256
 489 75 566 117 615 179 c 257
 615 67 l 257
 556 15 492 -10 390 -10 c 256
 196 -10 40 141 40 350 c 256
 40 559 196 710 390 710 c 256
 492 710 556 685 615 633 c 257
 615 521 l 257
 566 583 489 625 390 625 c 256
 252 625 130 513 130 350 c 256
520 920 m 257
 340 770 l 257
 295 800 l 257
 445 960 l 257
 520 920 l 257
EndSplineSet
EndChar

StartChar: cacute
Encoding: 263 263 253
GlifName: cacute
Width: 478
VWidth: 0
Flags: HMW
LayerCount: 2
Fore
SplineSet
111 230 m 256
 111 134 178 65 268 65 c 256
 342 65 407 104 428 149 c 257
 428 49 l 257
 396 11 331 -10 268 -10 c 256
 133 -10 30 91 30 230 c 256
 30 369 133 470 268 470 c 256
 331 470 396 448 428 411 c 257
 428 311 l 257
 407 356 342 395 268 395 c 256
 178 395 111 326 111 230 c 256
398 680 m 257
 218 530 l 257
 173 560 l 257
 323 720 l 257
 398 680 l 257
EndSplineSet
EndChar

StartChar: Ccircumflex
Encoding: 264 264 254
GlifName: C_circumflex
Width: 685
VWidth: 0
Flags: HMW
LayerCount: 2
Fore
SplineSet
130 350 m 256
 130 187 252 75 390 75 c 256
 489 75 566 117 615 179 c 257
 615 67 l 257
 556 15 492 -10 390 -10 c 256
 196 -10 40 141 40 350 c 256
 40 559 196 710 390 710 c 256
 492 710 556 685 615 633 c 257
 615 521 l 257
 566 583 489 625 390 625 c 256
 252 625 130 513 130 350 c 256
390 865 m 257
 280 770 l 257
 230 810 l 257
 390 950 l 257
 550 810 l 257
 500 770 l 257
 390 865 l 257
EndSplineSet
EndChar

StartChar: ccircumflex
Encoding: 265 265 255
GlifName: ccircumflex
Width: 478
VWidth: 0
Flags: HMW
LayerCount: 2
Fore
SplineSet
111 230 m 256
 111 134 178 65 268 65 c 256
 342 65 407 104 428 149 c 257
 428 49 l 257
 396 11 331 -10 268 -10 c 256
 133 -10 30 91 30 230 c 256
 30 369 133 470 268 470 c 256
 331 470 396 448 428 411 c 257
 428 311 l 257
 407 356 342 395 268 395 c 256
 178 395 111 326 111 230 c 256
268 625 m 257
 158 530 l 257
 108 570 l 257
 268 710 l 257
 428 570 l 257
 378 530 l 257
 268 625 l 257
EndSplineSet
EndChar

StartChar: Cdotaccent
Encoding: 266 266 256
GlifName: C_dotaccent
Width: 685
VWidth: 0
Flags: HMW
LayerCount: 2
Fore
SplineSet
130 350 m 256
 130 187 252 75 390 75 c 256
 489 75 566 117 615 179 c 257
 615 67 l 257
 556 15 492 -10 390 -10 c 256
 196 -10 40 141 40 350 c 256
 40 559 196 710 390 710 c 256
 492 710 556 685 615 633 c 257
 615 521 l 257
 566 583 489 625 390 625 c 256
 252 625 130 513 130 350 c 256
335 825 m 256
 335 855 360 880 390 880 c 256
 420 880 445 855 445 825 c 256
 445 795 420 770 390 770 c 256
 360 770 335 795 335 825 c 256
EndSplineSet
EndChar

StartChar: cdotaccent
Encoding: 267 267 257
GlifName: cdotaccent
Width: 478
VWidth: 0
Flags: HMW
LayerCount: 2
Fore
SplineSet
111 230 m 256
 111 134 178 65 268 65 c 256
 342 65 407 104 428 149 c 257
 428 49 l 257
 396 11 331 -10 268 -10 c 256
 133 -10 30 91 30 230 c 256
 30 369 133 470 268 470 c 256
 331 470 396 448 428 411 c 257
 428 311 l 257
 407 356 342 395 268 395 c 256
 178 395 111 326 111 230 c 256
213 585 m 256
 213 615 238 640 268 640 c 256
 298 640 323 615 323 585 c 256
 323 555 298 530 268 530 c 256
 238 530 213 555 213 585 c 256
EndSplineSet
EndChar

StartChar: Ccaron
Encoding: 268 268 258
GlifName: C_caron
Width: 685
VWidth: 0
Flags: HMW
LayerCount: 2
Fore
SplineSet
130 350 m 256
 130 187 252 75 390 75 c 256
 489 75 566 117 615 179 c 257
 615 67 l 257
 556 15 492 -10 390 -10 c 256
 196 -10 40 141 40 350 c 256
 40 559 196 710 390 710 c 256
 492 710 556 685 615 633 c 257
 615 521 l 257
 566 583 489 625 390 625 c 256
 252 625 130 513 130 350 c 256
390 855 m 257
 500 950 l 257
 550 910 l 257
 390 770 l 257
 230 910 l 257
 280 950 l 257
 390 855 l 257
EndSplineSet
EndChar

StartChar: ccaron
Encoding: 269 269 259
GlifName: ccaron
Width: 478
VWidth: 0
Flags: HMW
LayerCount: 2
Fore
SplineSet
111 230 m 256
 111 134 178 65 268 65 c 256
 342 65 407 104 428 149 c 257
 428 49 l 257
 396 11 331 -10 268 -10 c 256
 133 -10 30 91 30 230 c 256
 30 369 133 470 268 470 c 256
 331 470 396 448 428 411 c 257
 428 311 l 257
 407 356 342 395 268 395 c 256
 178 395 111 326 111 230 c 256
268 615 m 257
 378 710 l 257
 428 670 l 257
 268 530 l 257
 108 670 l 257
 158 710 l 257
 268 615 l 257
EndSplineSet
EndChar

StartChar: Dcaron
Encoding: 270 270 260
GlifName: D_caron
Width: 680
VWidth: 0
Flags: HMW
LayerCount: 2
Fore
SplineSet
80 700 m 257
 165 700 l 257
 165 0 l 257
 80 0 l 257
 80 700 l 257
290 0 m 258
 127 0 l 257
 127 85 l 257
 290 85 l 258
 448 85 555 187 555 350 c 256
 555 513 448 615 290 615 c 258
 127 615 l 257
 127 700 l 257
 290 700 l 258
 494 700 640 559 640 350 c 256
 640 141 494 0 290 0 c 258
330 855 m 257
 440 950 l 257
 490 910 l 257
 330 770 l 257
 170 910 l 257
 220 950 l 257
 330 855 l 257
EndSplineSet
EndChar

StartChar: dcaron
Encoding: 271 271 261
GlifName: dcaron
Width: 570
VWidth: 0
Flags: HMW
LayerCount: 2
Fore
SplineSet
420 780 m 257
 500 780 l 257
 500 0 l 257
 420 0 l 257
 420 780 l 257
35 230 m 256
 35 379 138 470 263 470 c 256
 378 470 456 379 456 230 c 256
 456 81 378 -10 263 -10 c 256
 138 -10 35 81 35 230 c 256
116 230 m 256
 116 124 188 65 273 65 c 256
 343 65 420 124 420 230 c 256
 420 336 343 395 273 395 c 256
 188 395 116 336 116 230 c 256
618 780 m 257
 698 750 l 257
 588 500 l 257
 530 521 l 257
 618 780 l 257
EndSplineSet
EndChar

StartChar: Dcroat
Encoding: 272 272 262
GlifName: D_croat
Width: 680
VWidth: 0
Flags: HMW
LayerCount: 2
Fore
SplineSet
5 310 m 257
 5 385 l 257
 305 385 l 257
 305 310 l 257
 5 310 l 257
80 700 m 257
 165 700 l 257
 165 0 l 257
 80 0 l 257
 80 700 l 257
290 0 m 258
 127 0 l 257
 127 85 l 257
 290 85 l 258
 448 85 555 187 555 350 c 256
 555 513 448 615 290 615 c 258
 127 615 l 257
 127 700 l 257
 290 700 l 258
 494 700 640 559 640 350 c 256
 640 141 494 0 290 0 c 258
EndSplineSet
EndChar

StartChar: dcroat
Encoding: 273 273 263
GlifName: dcroat
Width: 570
VWidth: 0
Flags: HMW
LayerCount: 2
Fore
SplineSet
295 590 m 257
 295 665 l 257
 595 665 l 257
 595 590 l 257
 295 590 l 257
420 780 m 257
 500 780 l 257
 500 0 l 257
 420 0 l 257
 420 780 l 257
35 230 m 256
 35 379 138 470 263 470 c 256
 378 470 456 379 456 230 c 256
 456 81 378 -10 263 -10 c 256
 138 -10 35 81 35 230 c 256
116 230 m 256
 116 124 188 65 273 65 c 256
 343 65 420 124 420 230 c 256
 420 336 343 395 273 395 c 256
 188 395 116 336 116 230 c 256
EndSplineSet
EndChar

StartChar: Emacron
Encoding: 274 274 264
GlifName: E_macron
Width: 550
VWidth: 0
Flags: HMW
LayerCount: 2
Fore
SplineSet
127 0 m 257
 127 80 l 257
 480 80 l 257
 480 0 l 257
 127 0 l 257
127 620 m 257
 127 700 l 257
 480 700 l 257
 480 620 l 257
 127 620 l 257
127 340 m 257
 127 420 l 257
 460 420 l 257
 460 340 l 257
 127 340 l 257
80 700 m 257
 165 700 l 257
 165 0 l 257
 80 0 l 257
 80 700 l 257
105 770 m 257
 105 845 l 257
 455 845 l 257
 455 770 l 257
 105 770 l 257
EndSplineSet
EndChar

StartChar: emacron
Encoding: 275 275 265
GlifName: emacron
Width: 515
VWidth: 0
Flags: HMW
LayerCount: 2
Fore
SplineSet
86 210 m 257
 86 278 l 257
 393 278 l 257
 385 350 343 400 263 400 c 256
 183 400 118 346 118 260 c 257
 116 230 l 257
 116 124 173 65 263 65 c 256
 330 65 376 98 407 148 c 257
 472 107 l 257
 426 37 372 -10 253 -10 c 256
 128 -10 35 91 35 230 c 256
 35 247 36 263 39 279 c 256
 58 392 144 470 263 470 c 256
 393 470 480 379 480 234 c 256
 480 226 480 218 479 210 c 257
 86 210 l 257
88 530 m 257
 88 605 l 257
 438 605 l 257
 438 530 l 257
 88 530 l 257
EndSplineSet
EndChar

StartChar: Ebreve
Encoding: 276 276 266
GlifName: E_breve
Width: 550
VWidth: 0
Flags: HMW
LayerCount: 2
Fore
SplineSet
127 0 m 257
 127 80 l 257
 480 80 l 257
 480 0 l 257
 127 0 l 257
127 620 m 257
 127 700 l 257
 480 700 l 257
 480 620 l 257
 127 620 l 257
127 340 m 257
 127 420 l 257
 460 420 l 257
 460 340 l 257
 127 340 l 257
80 700 m 257
 165 700 l 257
 165 0 l 257
 80 0 l 257
 80 700 l 257
122 910 m 257
 193 910 l 257
 193 884 210 835 280 835 c 256
 350 835 367 884 367 910 c 257
 438 910 l 257
 438 841 385 770 280 770 c 256
 175 770 122 841 122 910 c 257
EndSplineSet
EndChar

StartChar: ebreve
Encoding: 277 277 267
GlifName: ebreve
Width: 515
VWidth: 0
Flags: HMW
LayerCount: 2
Fore
SplineSet
86 210 m 257
 86 278 l 257
 393 278 l 257
 385 350 343 400 263 400 c 256
 183 400 118 346 118 260 c 257
 116 230 l 257
 116 124 173 65 263 65 c 256
 330 65 376 98 407 148 c 257
 472 107 l 257
 426 37 372 -10 253 -10 c 256
 128 -10 35 91 35 230 c 256
 35 247 36 263 39 279 c 256
 58 392 144 470 263 470 c 256
 393 470 480 379 480 234 c 256
 480 226 480 218 479 210 c 257
 86 210 l 257
105 670 m 257
 176 670 l 257
 176 644 193 595 263 595 c 256
 333 595 350 644 350 670 c 257
 421 670 l 257
 421 601 368 530 263 530 c 256
 158 530 105 601 105 670 c 257
EndSplineSet
EndChar

StartChar: Edotaccent
Encoding: 278 278 268
GlifName: E_dotaccent
Width: 550
VWidth: 0
Flags: HMW
LayerCount: 2
Fore
SplineSet
127 0 m 257
 127 80 l 257
 480 80 l 257
 480 0 l 257
 127 0 l 257
127 620 m 257
 127 700 l 257
 480 700 l 257
 480 620 l 257
 127 620 l 257
127 340 m 257
 127 420 l 257
 460 420 l 257
 460 340 l 257
 127 340 l 257
80 700 m 257
 165 700 l 257
 165 0 l 257
 80 0 l 257
 80 700 l 257
225 825 m 256
 225 855 250 880 280 880 c 256
 310 880 335 855 335 825 c 256
 335 795 310 770 280 770 c 256
 250 770 225 795 225 825 c 256
EndSplineSet
EndChar

StartChar: edotaccent
Encoding: 279 279 269
GlifName: edotaccent
Width: 515
VWidth: 0
Flags: HMW
LayerCount: 2
Fore
SplineSet
86 210 m 257
 86 278 l 257
 393 278 l 257
 385 350 343 400 263 400 c 256
 183 400 118 346 118 260 c 257
 116 230 l 257
 116 124 173 65 263 65 c 256
 330 65 376 98 407 148 c 257
 472 107 l 257
 426 37 372 -10 253 -10 c 256
 128 -10 35 91 35 230 c 256
 35 247 36 263 39 279 c 256
 58 392 144 470 263 470 c 256
 393 470 480 379 480 234 c 256
 480 226 480 218 479 210 c 257
 86 210 l 257
208 585 m 256
 208 615 233 640 263 640 c 256
 293 640 318 615 318 585 c 256
 318 555 293 530 263 530 c 256
 233 530 208 555 208 585 c 256
EndSplineSet
EndChar

StartChar: Eogonek
Encoding: 280 280 270
GlifName: E_ogonek
Width: 550
VWidth: 0
Flags: HMW
LayerCount: 2
Fore
SplineSet
127 0 m 257
 127 80 l 257
 480 80 l 257
 480 0 l 257
 127 0 l 257
127 620 m 257
 127 700 l 257
 480 700 l 257
 480 620 l 257
 127 620 l 257
127 340 m 257
 127 420 l 257
 460 420 l 257
 460 340 l 257
 127 340 l 257
80 700 m 257
 165 700 l 257
 165 0 l 257
 80 0 l 257
 80 700 l 257
365 -130 m 257
 398 -180 l 257
 383 -200 353 -220 310 -220 c 256
 226 -220 187 -179 187 -120 c 256
 187 -61 249 -11 319 25 c 257
 360 0 l 257
 308 -22 267 -63 267 -100 c 256
 267 -136 285 -150 315 -150 c 256
 341 -150 351 -143 365 -130 c 257
EndSplineSet
EndChar

StartChar: eogonek
Encoding: 281 281 271
GlifName: eogonek
Width: 515
VWidth: 0
Flags: HMW
LayerCount: 2
Fore
SplineSet
86 210 m 257
 86 278 l 257
 393 278 l 257
 385 350 343 400 263 400 c 256
 183 400 118 346 118 260 c 257
 116 230 l 257
 116 124 173 65 263 65 c 256
 330 65 376 98 407 148 c 257
 472 107 l 257
 426 37 372 -10 253 -10 c 256
 128 -10 35 91 35 230 c 256
 35 247 36 263 39 279 c 256
 58 392 144 470 263 470 c 256
 393 470 480 379 480 234 c 256
 480 226 480 218 479 210 c 257
 86 210 l 257
299 -131 m 257
 332 -181 l 257
 317 -201 287 -221 244 -221 c 256
 160 -221 121 -180 121 -121 c 256
 121 -62 183 -12 253 24 c 257
 294 -1 l 257
 242 -23 201 -64 201 -101 c 256
 201 -137 219 -151 249 -151 c 256
 275 -151 285 -144 299 -131 c 257
EndSplineSet
EndChar

StartChar: Ecaron
Encoding: 282 282 272
GlifName: E_caron
Width: 550
VWidth: 0
Flags: HMW
LayerCount: 2
Fore
SplineSet
127 0 m 257
 127 80 l 257
 480 80 l 257
 480 0 l 257
 127 0 l 257
127 620 m 257
 127 700 l 257
 480 700 l 257
 480 620 l 257
 127 620 l 257
127 340 m 257
 127 420 l 257
 460 420 l 257
 460 340 l 257
 127 340 l 257
80 700 m 257
 165 700 l 257
 165 0 l 257
 80 0 l 257
 80 700 l 257
280 855 m 257
 390 950 l 257
 440 910 l 257
 280 770 l 257
 120 910 l 257
 170 950 l 257
 280 855 l 257
EndSplineSet
EndChar

StartChar: ecaron
Encoding: 283 283 273
GlifName: ecaron
Width: 515
VWidth: 0
Flags: HMW
LayerCount: 2
Fore
SplineSet
86 210 m 257
 86 278 l 257
 393 278 l 257
 385 350 343 400 263 400 c 256
 183 400 118 346 118 260 c 257
 116 230 l 257
 116 124 173 65 263 65 c 256
 330 65 376 98 407 148 c 257
 472 107 l 257
 426 37 372 -10 253 -10 c 256
 128 -10 35 91 35 230 c 256
 35 247 36 263 39 279 c 256
 58 392 144 470 263 470 c 256
 393 470 480 379 480 234 c 256
 480 226 480 218 479 210 c 257
 86 210 l 257
263 615 m 257
 373 710 l 257
 423 670 l 257
 263 530 l 257
 103 670 l 257
 153 710 l 257
 263 615 l 257
EndSplineSet
EndChar

StartChar: Gcircumflex
Encoding: 284 284 274
GlifName: G_circumflex
Width: 775
VWidth: 0
Flags: HMW
LayerCount: 2
Fore
SplineSet
405 275 m 257
 405 355 l 257
 730 355 l 257
 730 161 609 -10 395 -10 c 256
 191 -10 40 141 40 350 c 256
 40 559 191 710 395 710 c 256
 524 710 626 658 686 561 c 257
 626 506 l 257
 582 580 502 625 395 625 c 256
 247 625 130 513 130 350 c 256
 130 187 247 75 395 75 c 256
 534 75 615 166 638 275 c 257
 405 275 l 257
395 865 m 257
 285 770 l 257
 235 810 l 257
 395 950 l 257
 555 810 l 257
 505 770 l 257
 395 865 l 257
EndSplineSet
EndChar

StartChar: gcircumflex
Encoding: 285 285 275
GlifName: gcircumflex
Width: 570
VWidth: 0
Flags: HMW
LayerCount: 2
Fore
SplineSet
44 -30 m 257
 125 -30 l 257
 125 -96 182 -155 272 -155 c 256
 342 -155 420 -106 420 10 c 258
 420 460 l 257
 500 460 l 257
 500 10 l 258
 500 -149 387 -230 272 -230 c 256
 137 -230 44 -149 44 -30 c 257
35 230 m 256
 35 379 138 470 263 470 c 256
 378 470 456 379 456 230 c 256
 456 81 378 -10 263 -10 c 256
 138 -10 35 81 35 230 c 256
116 230 m 256
 116 124 188 65 273 65 c 256
 343 65 420 124 420 230 c 256
 420 336 343 395 273 395 c 256
 188 395 116 336 116 230 c 256
263 625 m 257
 153 530 l 257
 103 570 l 257
 263 710 l 257
 423 570 l 257
 373 530 l 257
 263 625 l 257
EndSplineSet
EndChar

StartChar: Gbreve
Encoding: 286 286 276
GlifName: G_breve
Width: 775
VWidth: 0
Flags: HMW
LayerCount: 2
Fore
SplineSet
405 275 m 257
 405 355 l 257
 730 355 l 257
 730 161 609 -10 395 -10 c 256
 191 -10 40 141 40 350 c 256
 40 559 191 710 395 710 c 256
 524 710 626 658 686 561 c 257
 626 506 l 257
 582 580 502 625 395 625 c 256
 247 625 130 513 130 350 c 256
 130 187 247 75 395 75 c 256
 534 75 615 166 638 275 c 257
 405 275 l 257
237 910 m 257
 308 910 l 257
 308 884 325 835 395 835 c 256
 465 835 482 884 482 910 c 257
 553 910 l 257
 553 841 500 770 395 770 c 256
 290 770 237 841 237 910 c 257
EndSplineSet
EndChar

StartChar: gbreve
Encoding: 287 287 277
GlifName: gbreve
Width: 570
VWidth: 0
Flags: HMW
LayerCount: 2
Fore
SplineSet
44 -30 m 257
 125 -30 l 257
 125 -96 182 -155 272 -155 c 256
 342 -155 420 -106 420 10 c 258
 420 460 l 257
 500 460 l 257
 500 10 l 258
 500 -149 387 -230 272 -230 c 256
 137 -230 44 -149 44 -30 c 257
35 230 m 256
 35 379 138 470 263 470 c 256
 378 470 456 379 456 230 c 256
 456 81 378 -10 263 -10 c 256
 138 -10 35 81 35 230 c 256
116 230 m 256
 116 124 188 65 273 65 c 256
 343 65 420 124 420 230 c 256
 420 336 343 395 273 395 c 256
 188 395 116 336 116 230 c 256
105 670 m 257
 176 670 l 257
 176 644 193 595 263 595 c 256
 333 595 350 644 350 670 c 257
 421 670 l 257
 421 601 368 530 263 530 c 256
 158 530 105 601 105 670 c 257
EndSplineSet
EndChar

StartChar: Gdotaccent
Encoding: 288 288 278
GlifName: G_dotaccent
Width: 775
VWidth: 0
Flags: HMW
LayerCount: 2
Fore
SplineSet
405 275 m 257
 405 355 l 257
 730 355 l 257
 730 161 609 -10 395 -10 c 256
 191 -10 40 141 40 350 c 256
 40 559 191 710 395 710 c 256
 524 710 626 658 686 561 c 257
 626 506 l 257
 582 580 502 625 395 625 c 256
 247 625 130 513 130 350 c 256
 130 187 247 75 395 75 c 256
 534 75 615 166 638 275 c 257
 405 275 l 257
340 825 m 256
 340 855 365 880 395 880 c 256
 425 880 450 855 450 825 c 256
 450 795 425 770 395 770 c 256
 365 770 340 795 340 825 c 256
EndSplineSet
EndChar

StartChar: gdotaccent
Encoding: 289 289 279
GlifName: gdotaccent
Width: 570
VWidth: 0
Flags: HMW
LayerCount: 2
Fore
SplineSet
44 -30 m 257
 125 -30 l 257
 125 -96 182 -155 272 -155 c 256
 342 -155 420 -106 420 10 c 258
 420 460 l 257
 500 460 l 257
 500 10 l 258
 500 -149 387 -230 272 -230 c 256
 137 -230 44 -149 44 -30 c 257
35 230 m 256
 35 379 138 470 263 470 c 256
 378 470 456 379 456 230 c 256
 456 81 378 -10 263 -10 c 256
 138 -10 35 81 35 230 c 256
116 230 m 256
 116 124 188 65 273 65 c 256
 343 65 420 124 420 230 c 256
 420 336 343 395 273 395 c 256
 188 395 116 336 116 230 c 256
228 625 m 256
 228 655 253 680 283 680 c 256
 313 680 338 655 338 625 c 256
 338 595 313 570 283 570 c 256
 253 570 228 595 228 625 c 256
EndSplineSet
EndChar

StartChar: uni0122
Encoding: 290 290 280
GlifName: uni0122
Width: 775
VWidth: 0
Flags: HMW
LayerCount: 2
Fore
SplineSet
405 275 m 257
 405 355 l 257
 730 355 l 257
 730 161 609 -10 395 -10 c 256
 191 -10 40 141 40 350 c 256
 40 559 191 710 395 710 c 256
 524 710 626 658 686 561 c 257
 626 506 l 257
 582 580 502 625 395 625 c 256
 247 625 130 513 130 350 c 256
 130 187 247 75 395 75 c 256
 534 75 615 166 638 275 c 257
 405 275 l 257
399 -70 m 257
 479 -100 l 257
 369 -350 l 257
 311 -329 l 257
 399 -70 l 257
EndSplineSet
EndChar

StartChar: Hcircumflex
Encoding: 292 292 281
GlifName: H_circumflex
Width: 715
VWidth: 0
Flags: HMW
LayerCount: 2
Fore
SplineSet
127 340 m 257
 127 420 l 257
 607 420 l 257
 607 340 l 257
 127 340 l 257
550 700 m 257
 635 700 l 257
 635 0 l 257
 550 0 l 257
 550 700 l 257
80 700 m 257
 165 700 l 257
 165 0 l 257
 80 0 l 257
 80 700 l 257
358 865 m 257
 248 770 l 257
 198 810 l 257
 358 950 l 257
 518 810 l 257
 468 770 l 257
 358 865 l 257
EndSplineSet
EndChar

StartChar: hcircumflex
Encoding: 293 293 282
GlifName: hcircumflex
Width: 525
VWidth: 0
Flags: HMW
LayerCount: 2
Fore
SplineSet
155 780 m 257
 155 0 l 257
 75 0 l 257
 75 780 l 257
 155 780 l 257
370 280 m 258
 370 356 337 395 272 395 c 256
 202 395 155 346 155 280 c 257
 119 280 l 257
 119 389 197 470 292 470 c 256
 387 470 450 409 450 290 c 258
 450 0 l 257
 370 0 l 257
 370 280 l 258
122 935 m 257
 12 840 l 257
 -38 880 l 257
 122 1020 l 257
 282 880 l 257
 232 840 l 257
 122 935 l 257
EndSplineSet
EndChar

StartChar: Itilde
Encoding: 296 296 283
GlifName: I_tilde
Width: 245
VWidth: 0
Flags: HMW
LayerCount: 2
Fore
SplineSet
80 700 m 257
 165 700 l 257
 165 0 l 257
 80 0 l 257
 80 700 l 257
-42 807 m 257
 -32 856 17 889 62 889 c 256
 127 889 132 842 186 842 c 256
 205 842 222 858 242 890 c 257
 288 847 l 257
 272 810 232 774 182 774 c 256
 127 774 106 821 61 821 c 256
 20 821 11 785 11 770 c 257
 -42 807 l 257
EndSplineSet
EndChar

StartChar: itilde
Encoding: 297 297 284
GlifName: itilde
Width: 260
VWidth: 0
Flags: HMW
LayerCount: 2
Fore
SplineSet
90 460 m 257
 170 460 l 257
 170 0 l 257
 90 0 l 257
 90 460 l 257
-35 567 m 257
 -25 616 24 649 69 649 c 256
 134 649 139 602 193 602 c 256
 212 602 229 618 249 650 c 257
 295 607 l 257
 279 570 239 534 189 534 c 256
 134 534 113 581 68 581 c 256
 27 581 18 545 18 530 c 257
 -35 567 l 257
EndSplineSet
EndChar

StartChar: Imacron
Encoding: 298 298 285
GlifName: I_macron
Width: 245
VWidth: 0
Flags: HMW
LayerCount: 2
Fore
SplineSet
80 700 m 257
 165 700 l 257
 165 0 l 257
 80 0 l 257
 80 700 l 257
-52 770 m 257
 -52 845 l 257
 298 845 l 257
 298 770 l 257
 -52 770 l 257
EndSplineSet
EndChar

StartChar: imacron
Encoding: 299 299 286
GlifName: imacron
Width: 260
VWidth: 0
Flags: HMW
LayerCount: 2
Fore
SplineSet
90 460 m 257
 170 460 l 257
 170 0 l 257
 90 0 l 257
 90 460 l 257
-45 530 m 257
 -45 605 l 257
 305 605 l 257
 305 530 l 257
 -45 530 l 257
EndSplineSet
EndChar

StartChar: Ibreve
Encoding: 300 300 287
GlifName: I_breve
Width: 245
VWidth: 0
Flags: HMW
LayerCount: 2
Fore
SplineSet
80 700 m 257
 165 700 l 257
 165 0 l 257
 80 0 l 257
 80 700 l 257
-35 910 m 257
 36 910 l 257
 36 884 53 835 123 835 c 256
 193 835 210 884 210 910 c 257
 281 910 l 257
 281 841 228 770 123 770 c 256
 18 770 -35 841 -35 910 c 257
EndSplineSet
EndChar

StartChar: ibreve
Encoding: 301 301 288
GlifName: ibreve
Width: 260
VWidth: 0
Flags: HMW
LayerCount: 2
Fore
SplineSet
90 460 m 257
 170 460 l 257
 170 0 l 257
 90 0 l 257
 90 460 l 257
-28 670 m 257
 43 670 l 257
 43 644 60 595 130 595 c 256
 200 595 217 644 217 670 c 257
 288 670 l 257
 288 601 235 530 130 530 c 256
 25 530 -28 601 -28 670 c 257
EndSplineSet
EndChar

StartChar: Iogonek
Encoding: 302 302 289
GlifName: I_ogonek
Width: 245
VWidth: 0
Flags: HMW
LayerCount: 2
Fore
SplineSet
80 700 m 257
 165 700 l 257
 165 0 l 257
 80 0 l 257
 80 700 l 257
170 -130 m 257
 203 -180 l 257
 188 -200 158 -220 115 -220 c 256
 31 -220 -8 -179 -8 -120 c 256
 -8 -61 54 -11 124 25 c 257
 165 0 l 257
 113 -22 72 -63 72 -100 c 256
 72 -136 90 -150 120 -150 c 256
 146 -150 156 -143 170 -130 c 257
EndSplineSet
EndChar

StartChar: iogonek
Encoding: 303 303 290
GlifName: iogonek
Width: 260
VWidth: 0
Flags: HMW
LayerCount: 2
Fore
SplineSet
75 650 m 256
 75 680 100 705 130 705 c 256
 160 705 185 680 185 650 c 256
 185 620 160 595 130 595 c 256
 100 595 75 620 75 650 c 256
90 460 m 257
 170 460 l 257
 170 0 l 257
 90 0 l 257
 90 460 l 257
175 -130 m 257
 208 -180 l 257
 193 -200 163 -220 120 -220 c 256
 36 -220 -3 -179 -3 -120 c 256
 -3 -61 59 -11 129 25 c 257
 170 0 l 257
 118 -22 77 -63 77 -100 c 256
 77 -136 95 -150 125 -150 c 256
 151 -150 161 -143 175 -130 c 257
EndSplineSet
EndChar

StartChar: Idotaccent
Encoding: 304 304 291
GlifName: I_dotaccent
Width: 245
VWidth: 0
Flags: HMW
LayerCount: 2
Fore
SplineSet
80 700 m 257
 165 700 l 257
 165 0 l 257
 80 0 l 257
 80 700 l 257
67 825 m 256
 67 855 92 880 122 880 c 256
 152 880 177 855 177 825 c 256
 177 795 152 770 122 770 c 256
 92 770 67 795 67 825 c 256
EndSplineSet
EndChar

StartChar: uni0136
Encoding: 310 310 292
GlifName: uni0136
Width: 565
VWidth: 0
Flags: HMW
LayerCount: 2
Fore
SplineSet
80 700 m 257
 165 700 l 257
 165 0 l 257
 80 0 l 257
 80 700 l 257
440 700 m 257
 545 700 l 257
 242 372 l 257
 560 0 l 257
 455 0 l 257
 139 370 l 257
 440 700 l 257
324 -60 m 257
 404 -90 l 257
 294 -340 l 257
 236 -319 l 257
 324 -60 l 257
EndSplineSet
EndChar

StartChar: uni0137
Encoding: 311 311 293
GlifName: uni0137
Width: 440
VWidth: 0
Flags: HMW
LayerCount: 2
Fore
SplineSet
70 780 m 257
 150 780 l 257
 150 0 l 257
 70 0 l 257
 70 780 l 257
320 460 m 257
 420 460 l 257
 220 270 l 257
 440 0 l 257
 340 0 l 257
 120 270 l 257
 320 460 l 257
259 -60 m 257
 339 -90 l 257
 229 -340 l 257
 171 -319 l 257
 259 -60 l 257
EndSplineSet
EndChar

StartChar: Lacute
Encoding: 313 313 294
GlifName: L_acute
Width: 450
VWidth: 0
Flags: HMW
LayerCount: 2
Fore
SplineSet
80 700 m 257
 165 700 l 257
 165 80 l 257
 440 80 l 257
 440 0 l 257
 80 0 l 257
 80 700 l 257
390 920 m 257
 210 770 l 257
 165 800 l 257
 315 960 l 257
 390 920 l 257
EndSplineSet
EndChar

StartChar: lacute
Encoding: 314 314 295
GlifName: lacute
Width: 230
VWidth: 0
Flags: HMW
LayerCount: 2
Fore
SplineSet
75 780 m 257
 155 780 l 257
 155 0 l 257
 75 0 l 257
 75 780 l 257
245 990 m 257
 65 840 l 257
 20 870 l 257
 170 1030 l 257
 245 990 l 257
EndSplineSet
EndChar

StartChar: uni013B
Encoding: 315 315 296
GlifName: uni013B_
Width: 450
VWidth: 0
Flags: HMW
LayerCount: 2
Fore
SplineSet
80 700 m 257
 165 700 l 257
 165 80 l 257
 440 80 l 257
 440 0 l 257
 80 0 l 257
 80 700 l 257
264 -60 m 257
 344 -90 l 257
 234 -340 l 257
 176 -319 l 257
 264 -60 l 257
EndSplineSet
EndChar

StartChar: uni013C
Encoding: 316 316 297
GlifName: uni013C_
Width: 230
VWidth: 0
Flags: HMW
LayerCount: 2
Fore
SplineSet
75 780 m 257
 155 780 l 257
 155 0 l 257
 75 0 l 257
 75 780 l 257
119 -60 m 257
 199 -90 l 257
 89 -340 l 257
 31 -319 l 257
 119 -60 l 257
EndSplineSet
EndChar

StartChar: Lcaron
Encoding: 317 317 298
GlifName: L_caron
Width: 450
VWidth: 0
Flags: HMW
LayerCount: 2
Fore
SplineSet
80 700 m 257
 165 700 l 257
 165 80 l 257
 440 80 l 257
 440 0 l 257
 80 0 l 257
 80 700 l 257
328 710 m 257
 408 680 l 257
 298 430 l 257
 240 451 l 257
 328 710 l 257
EndSplineSet
EndChar

StartChar: lcaron
Encoding: 318 318 299
GlifName: lcaron
Width: 230
VWidth: 0
Flags: HMW
LayerCount: 2
Fore
SplineSet
75 780 m 257
 155 780 l 257
 155 0 l 257
 75 0 l 257
 75 780 l 257
293 780 m 257
 373 750 l 257
 263 500 l 257
 205 521 l 257
 293 780 l 257
EndSplineSet
EndChar

StartChar: Ldot
Encoding: 319 319 300
GlifName: L_dot
Width: 450
VWidth: 0
Flags: HMW
LayerCount: 2
Fore
SplineSet
80 700 m 257
 165 700 l 257
 165 80 l 257
 440 80 l 257
 440 0 l 257
 80 0 l 257
 80 700 l 257
255 415 m 256
 255 445 280 470 310 470 c 256
 340 470 365 445 365 415 c 256
 365 385 340 360 310 360 c 256
 280 360 255 385 255 415 c 256
EndSplineSet
EndChar

StartChar: ldot
Encoding: 320 320 301
GlifName: ldot
Width: 370
VWidth: 0
Flags: HMW
LayerCount: 2
Fore
SplineSet
75 780 m 257
 155 780 l 257
 155 0 l 257
 75 0 l 257
 75 780 l 257
215 415 m 256
 215 445 240 470 270 470 c 256
 300 470 325 445 325 415 c 256
 325 385 300 360 270 360 c 256
 240 360 215 385 215 415 c 256
EndSplineSet
EndChar

StartChar: eth
Encoding: 240 240 302
GlifName: eth
Width: 576
VWidth: 0
Flags: HMW
LayerCount: 2
Fore
SplineSet
445 230 m 256
 445 326 378 395 288 395 c 256
 198 395 131 326 131 230 c 256
 131 134 198 67 288 67 c 256
 378 67 445 134 445 230 c 256
246 700 m 257
 482 375 l 258
 509 338 526 287 526 230 c 256
 526 86 423 -10 288 -10 c 256
 153 -10 50 86 50 230 c 256
 50 359 143 457 257 457 c 256
 302 457 337 449 364 416 c 257
 358 411 l 257
 139 700 l 257
 246 700 l 257
155 520 m 257
 155 585 l 257
 455 585 l 257
 455 520 l 257
 155 520 l 257
EndSplineSet
EndChar

StartChar: racute
Encoding: 341 341 303
GlifName: racute
Width: 343
VWidth: 0
Flags: HMW
LayerCount: 2
Fore
SplineSet
155 460 m 257
 155 0 l 257
 75 0 l 257
 75 460 l 257
 155 460 l 257
294 372 m 257
 272 388 258 395 232 395 c 256
 172 395 155 346 155 280 c 257
 119 280 l 257
 119 389 187 470 252 470 c 256
 285 470 314 463 338 438 c 257
 294 372 l 257
336 680 m 257
 156 530 l 257
 112 560 l 257
 262 720 l 257
 336 680 l 257
EndSplineSet
EndChar

StartChar: rcaron
Encoding: 345 345 304
GlifName: rcaron
Width: 343
VWidth: 0
Flags: HMW
LayerCount: 2
Fore
SplineSet
155 460 m 257
 155 0 l 257
 75 0 l 257
 75 460 l 257
 155 460 l 257
294 372 m 257
 272 388 258 395 232 395 c 256
 172 395 155 346 155 280 c 257
 119 280 l 257
 119 389 187 470 252 470 c 256
 285 470 314 463 338 438 c 257
 294 372 l 257
206 615 m 257
 316 710 l 257
 366 670 l 257
 206 530 l 257
 46 670 l 257
 96 710 l 257
 206 615 l 257
EndSplineSet
EndChar

StartChar: Rcaron
Encoding: 344 344 305
GlifName: R_caron
Width: 560
VWidth: 0
Flags: HMW
LayerCount: 2
Fore
SplineSet
205 345 m 257
 300 345 l 257
 550 0 l 257
 445 0 l 257
 205 345 l 257
80 700 m 257
 165 700 l 257
 165 0 l 257
 80 0 l 257
 80 700 l 257
127 625 m 257
 127 700 l 257
 270 700 l 258
 405 700 508 619 508 490 c 256
 508 361 405 280 270 280 c 258
 127 280 l 257
 127 355 l 257
 270 355 l 258
 360 355 423 404 423 490 c 256
 423 576 360 625 270 625 c 258
 127 625 l 257
255 855 m 257
 365 950 l 257
 415 910 l 257
 255 770 l 257
 95 910 l 257
 145 950 l 257
 255 855 l 257
EndSplineSet
EndChar

StartChar: uni0213
Encoding: 531 531 306
GlifName: uni0213
Width: 343
VWidth: 0
Flags: HMW
LayerCount: 2
Fore
SplineSet
155 460 m 257
 155 0 l 257
 75 0 l 257
 75 460 l 257
 155 460 l 257
294 372 m 257
 272 388 258 395 232 395 c 256
 172 395 155 346 155 280 c 257
 119 280 l 257
 119 389 187 470 252 470 c 256
 285 470 314 463 338 438 c 257
 294 372 l 257
49 530 m 257
 120 530 l 257
 120 556 137 605 207 605 c 256
 277 605 294 556 294 530 c 257
 365 530 l 257
 365 599 312 670 207 670 c 256
 102 670 49 599 49 530 c 257
EndSplineSet
EndChar

StartChar: uni0212
Encoding: 530 530 307
GlifName: uni0212
Width: 560
VWidth: 0
Flags: HMW
LayerCount: 2
Fore
SplineSet
205 345 m 257
 300 345 l 257
 550 0 l 257
 445 0 l 257
 205 345 l 257
80 700 m 257
 165 700 l 257
 165 0 l 257
 80 0 l 257
 80 700 l 257
127 625 m 257
 127 700 l 257
 270 700 l 258
 405 700 508 619 508 490 c 256
 508 361 405 280 270 280 c 258
 127 280 l 257
 127 355 l 257
 270 355 l 258
 360 355 423 404 423 490 c 256
 423 576 360 625 270 625 c 258
 127 625 l 257
117 770 m 257
 188 770 l 257
 188 796 205 845 275 845 c 256
 345 845 362 796 362 770 c 257
 433 770 l 257
 433 839 380 910 275 910 c 256
 170 910 117 839 117 770 c 257
EndSplineSet
EndChar

StartChar: OE
Encoding: 338 338 308
GlifName: O_E_
Width: 985
VWidth: 0
Flags: HMW
LayerCount: 2
Fore
SplineSet
562 340 m 257
 562 420 l 257
 895 420 l 257
 895 340 l 257
 562 340 l 257
515 670 m 257
 600 670 l 257
 600 30 l 257
 515 30 l 257
 515 670 l 257
916 80 m 257
 916 0 l 257
 390 0 l 258
 187 0 40 141 40 350 c 256
 40 559 186 700 390 700 c 258
 915 700 l 257
 915 620 l 257
 568 620 l 257
 551 620 l 257
 390 620 l 258
 232 620 125 513 125 350 c 256
 125 187 233 80 390 80 c 258
 548 80 l 257
 572 80 l 257
 916 80 l 257
EndSplineSet
EndChar

StartChar: oe
Encoding: 339 339 309
GlifName: oe
Width: 900
VWidth: 0
Flags: HMW
LayerCount: 2
Fore
SplineSet
780 250 m 258
 780 336 738 400 648 400 c 256
 568 400 503 346 503 260 c 257
 501 230 l 257
 501 124 558 65 648 65 c 256
 715 65 761 98 792 148 c 257
 857 107 l 257
 811 37 747 -10 648 -10 c 256
 523 -10 430 91 430 230 c 256
 430 247 431 263 434 279 c 256
 453 392 539 470 658 470 c 256
 768 470 865 379 865 234 c 256
 865 226 865 218 864 210 c 257
 780 230 l 257
 780 250 l 258
481 210 m 257
 481 278 l 257
 844 278 l 257
 864 210 l 257
 481 210 l 257
35 230 m 256
 35 379 138 470 263 470 c 256
 388 470 466 379 466 230 c 256
 466 81 388 -10 263 -10 c 256
 138 -10 35 81 35 230 c 256
116 230 m 256
 116 124 188 65 273 65 c 256
 343 65 410 124 410 230 c 256
 410 336 343 395 273 395 c 256
 188 395 116 336 116 230 c 256
EndSplineSet
EndChar

StartChar: a.alt
Encoding: 65536 -1 310
GlifName: a.alt
Width: 570
VWidth: 0
Flags: HMW
LayerCount: 2
Fore
SplineSet
425 460 m 257
 500 460 l 257
 500 0 l 257
 425 0 l 257
 425 460 l 257
35 230 m 256
 35 379 138 470 263 470 c 256
 378 470 456 379 456 230 c 256
 456 81 378 -10 263 -10 c 256
 138 -10 35 81 35 230 c 256
116 230 m 256
 116 124 188 65 273 65 c 256
 343 65 420 124 420 230 c 256
 420 336 343 395 273 395 c 256
 188 395 116 336 116 230 c 256
EndSplineSet
EndChar

StartChar: Jcircumflex
Encoding: 308 308 312
GlifName: J_circumflex
Width: 240
VWidth: 0
Flags: HMW
LayerCount: 2
Fore
SplineSet
-67 -104 m 257
 -53 -127 -24 -140 12 -140 c 256
 42 -140 80 -116 80 -50 c 258
 80 700 l 257
 160 700 l 257
 160 -60 l 258
 160 -169 101 -220 7 -220 c 256
 -46 -220 -96 -190 -111 -170 c 257
 -67 -104 l 257
120 865 m 257
 10 770 l 257
 -40 810 l 257
 120 950 l 257
 280 810 l 257
 230 770 l 257
 120 865 l 257
EndSplineSet
EndChar

StartChar: jcircumflex
Encoding: 309 309 313
GlifName: jcircumflex
Width: 250
VWidth: 0
Flags: HMW
LayerCount: 2
Fore
SplineSet
-17 -114 m 257
 -3 -137 16 -140 32 -140 c 256
 62 -140 80 -116 80 -50 c 258
 80 460 l 257
 160 460 l 257
 160 -60 l 258
 160 -169 111 -220 27 -220 c 256
 -16 -220 -46 -200 -61 -180 c 257
 -17 -114 l 257
120 625 m 257
 10 530 l 257
 -40 570 l 257
 120 710 l 257
 280 570 l 257
 230 530 l 257
 120 625 l 257
EndSplineSet
EndChar

StartChar: Nacute
Encoding: 323 323 314
GlifName: N_acute
Width: 775
VWidth: 0
Flags: HMW
LayerCount: 2
Fore
SplineSet
610 700 m 257
 695 700 l 257
 695 -35 l 257
 165 521 l 257
 165 0 l 257
 80 0 l 257
 80 735 l 257
 610 179 l 257
 610 700 l 257
560 905 m 257
 380 755 l 257
 335 785 l 257
 485 945 l 257
 560 905 l 257
EndSplineSet
EndChar

StartChar: nacute
Encoding: 324 324 315
GlifName: nacute
Width: 525
VWidth: 0
Flags: HMW
LayerCount: 2
Fore
SplineSet
155 460 m 257
 155 0 l 257
 75 0 l 257
 75 460 l 257
 155 460 l 257
370 280 m 258
 370 356 337 395 272 395 c 256
 202 395 155 346 155 280 c 257
 129 280 l 257
 129 389 197 470 292 470 c 256
 387 470 450 409 450 290 c 258
 450 0 l 257
 370 0 l 257
 370 280 l 258
402 680 m 257
 222 530 l 257
 178 560 l 257
 328 720 l 257
 402 680 l 257
EndSplineSet
EndChar

StartChar: uni0145
Encoding: 325 325 316
GlifName: uni0145
Width: 775
VWidth: 0
Flags: HMW
LayerCount: 2
Fore
SplineSet
399 -35 m 257
 479 -65 l 257
 369 -315 l 257
 311 -294 l 257
 399 -35 l 257
610 700 m 257
 695 700 l 257
 695 -35 l 257
 165 521 l 257
 165 0 l 257
 80 0 l 257
 80 735 l 257
 610 179 l 257
 610 700 l 257
EndSplineSet
EndChar

StartChar: uni0146
Encoding: 326 326 317
GlifName: uni0146
Width: 525
VWidth: 0
Flags: HMW
LayerCount: 2
Fore
SplineSet
155 460 m 257
 155 0 l 257
 75 0 l 257
 75 460 l 257
 155 460 l 257
370 280 m 258
 370 356 337 395 272 395 c 256
 202 395 155 346 155 280 c 257
 119 280 l 257
 119 389 197 470 292 470 c 256
 387 470 450 409 450 290 c 258
 450 0 l 257
 370 0 l 257
 370 280 l 258
266 -60 m 257
 346 -90 l 257
 236 -340 l 257
 178 -319 l 257
 266 -60 l 257
EndSplineSet
EndChar

StartChar: Ncaron
Encoding: 327 327 318
GlifName: N_caron
Width: 775
VWidth: 0
Flags: HMW
LayerCount: 2
Fore
SplineSet
400 880 m 257
 510 975 l 257
 560 935 l 257
 400 795 l 257
 240 935 l 257
 290 975 l 257
 400 880 l 257
610 700 m 257
 695 700 l 257
 695 -35 l 257
 165 521 l 257
 165 0 l 257
 80 0 l 257
 80 735 l 257
 610 179 l 257
 610 700 l 257
EndSplineSet
EndChar

StartChar: ncaron
Encoding: 328 328 319
GlifName: ncaron
Width: 525
VWidth: 0
Flags: HMW
LayerCount: 2
Fore
SplineSet
155 460 m 257
 155 0 l 257
 75 0 l 257
 75 460 l 257
 155 460 l 257
370 280 m 258
 370 356 337 395 272 395 c 256
 202 395 155 346 155 280 c 257
 119 280 l 257
 119 389 197 470 292 470 c 256
 387 470 450 409 450 290 c 258
 450 0 l 257
 370 0 l 257
 370 280 l 258
262 615 m 257
 372 710 l 257
 422 670 l 257
 262 530 l 257
 102 670 l 257
 152 710 l 257
 262 615 l 257
EndSplineSet
EndChar

StartChar: Omacron
Encoding: 332 332 320
GlifName: O_macron
Width: 790
VWidth: 0
Flags: HMW
LayerCount: 2
Fore
SplineSet
130 350 m 256
 130 192 242 75 395 75 c 256
 548 75 660 192 660 350 c 256
 660 508 548 625 395 625 c 256
 242 625 130 508 130 350 c 256
40 350 m 256
 40 554 191 710 395 710 c 256
 599 710 750 554 750 350 c 256
 750 146 599 -10 395 -10 c 256
 191 -10 40 146 40 350 c 256
220 770 m 257
 220 845 l 257
 570 845 l 257
 570 770 l 257
 220 770 l 257
EndSplineSet
EndChar

StartChar: omacron
Encoding: 333 333 321
GlifName: omacron
Width: 546
VWidth: 0
Flags: HMW
LayerCount: 2
Fore
SplineSet
35 230 m 256
 35 369 138 470 273 470 c 256
 408 470 511 369 511 230 c 256
 511 91 408 -10 273 -10 c 256
 138 -10 35 91 35 230 c 256
116 230 m 256
 116 134 183 65 273 65 c 256
 363 65 430 134 430 230 c 256
 430 326 363 395 273 395 c 256
 183 395 116 326 116 230 c 256
98 530 m 257
 98 605 l 257
 448 605 l 257
 448 530 l 257
 98 530 l 257
EndSplineSet
EndChar

StartChar: Obreve
Encoding: 334 334 322
GlifName: O_breve
Width: 790
VWidth: 0
Flags: HMW
LayerCount: 2
Fore
SplineSet
130 350 m 256
 130 192 242 75 395 75 c 256
 548 75 660 192 660 350 c 256
 660 508 548 625 395 625 c 256
 242 625 130 508 130 350 c 256
40 350 m 256
 40 554 191 710 395 710 c 256
 599 710 750 554 750 350 c 256
 750 146 599 -10 395 -10 c 256
 191 -10 40 146 40 350 c 256
237 910 m 257
 308 910 l 257
 308 884 325 835 395 835 c 256
 465 835 482 884 482 910 c 257
 553 910 l 257
 553 841 500 770 395 770 c 256
 290 770 237 841 237 910 c 257
EndSplineSet
EndChar

StartChar: obreve
Encoding: 335 335 323
GlifName: obreve
Width: 546
VWidth: 0
Flags: HMW
LayerCount: 2
Fore
SplineSet
35 230 m 256
 35 369 138 470 273 470 c 256
 408 470 511 369 511 230 c 256
 511 91 408 -10 273 -10 c 256
 138 -10 35 91 35 230 c 256
116 230 m 256
 116 134 183 65 273 65 c 256
 363 65 430 134 430 230 c 256
 430 326 363 395 273 395 c 256
 183 395 116 326 116 230 c 256
115 670 m 257
 186 670 l 257
 186 644 203 595 273 595 c 256
 343 595 360 644 360 670 c 257
 431 670 l 257
 431 601 378 530 273 530 c 256
 168 530 115 601 115 670 c 257
EndSplineSet
EndChar

StartChar: Racute
Encoding: 340 340 324
GlifName: R_acute
Width: 560
VWidth: 0
Flags: HMW
LayerCount: 2
Fore
SplineSet
205 345 m 257
 300 345 l 257
 550 0 l 257
 445 0 l 257
 205 345 l 257
80 700 m 257
 165 700 l 257
 165 0 l 257
 80 0 l 257
 80 700 l 257
127 625 m 257
 127 700 l 257
 270 700 l 258
 405 700 508 619 508 490 c 256
 508 361 405 280 270 280 c 258
 127 280 l 257
 127 355 l 257
 270 355 l 258
 360 355 423 404 423 490 c 256
 423 576 360 625 270 625 c 258
 127 625 l 257
405 920 m 257
 225 770 l 257
 180 800 l 257
 330 960 l 257
 405 920 l 257
EndSplineSet
EndChar

StartChar: uni0156
Encoding: 342 342 325
GlifName: uni0156
Width: 560
VWidth: 0
Flags: HMW
LayerCount: 2
Fore
SplineSet
205 345 m 257
 300 345 l 257
 550 0 l 257
 445 0 l 257
 205 345 l 257
80 700 m 257
 165 700 l 257
 165 0 l 257
 80 0 l 257
 80 700 l 257
127 625 m 257
 127 700 l 257
 270 700 l 258
 405 700 508 619 508 490 c 256
 508 361 405 280 270 280 c 258
 127 280 l 257
 127 355 l 257
 270 355 l 258
 360 355 423 404 423 490 c 256
 423 576 360 625 270 625 c 258
 127 625 l 257
319 -60 m 257
 399 -90 l 257
 289 -340 l 257
 231 -319 l 257
 319 -60 l 257
EndSplineSet
EndChar

StartChar: uni0157
Encoding: 343 343 326
GlifName: uni0157
Width: 343
VWidth: 0
Flags: HMW
LayerCount: 2
Fore
SplineSet
155 460 m 257
 155 0 l 257
 75 0 l 257
 75 460 l 257
 155 460 l 257
294 372 m 257
 272 388 258 395 232 395 c 256
 172 395 155 346 155 280 c 257
 119 280 l 257
 119 389 187 470 252 470 c 256
 285 470 314 463 338 438 c 257
 294 372 l 257
119 -60 m 257
 199 -90 l 257
 89 -340 l 257
 31 -319 l 257
 119 -60 l 257
EndSplineSet
EndChar

StartChar: Scedilla
Encoding: 350 350 327
GlifName: S_cedilla
Width: 548
VWidth: 0
Flags: HMW
LayerCount: 2
Fore
SplineSet
112 226 m 257
 154 130 208 70 295 70 c 256
 375 70 415 113 415 183 c 256
 415 273 331 309 251 338 c 256
 181 363 75 401 75 530 c 256
 75 636 154 710 278 710 c 256
 391 710 457 641 494 560 c 257
 425 514 l 257
 395 572 346 629 269 629 c 256
 199 629 164 590 164 529 c 256
 164 461 241 428 326 396 c 256
 399 369 503 317 503 190 c 256
 503 71 419 -10 290 -10 c 256
 175 -10 84 68 40 183 c 257
 112 226 l 257
300 59 m 257
 360 59 l 257
 297 -53 l 257
 300 -53 303 -53 306 -53 c 256
 339 -53 378 -78 378 -127 c 256
 378 -188 327 -221 272 -221 c 256
 235 -221 210 -211 182 -183 c 257
 216 -143 l 257
 235 -159 246 -167 272 -167 c 256
 306 -167 322 -151 322 -127 c 256
 322 -103 306 -91 272 -91 c 256
 262 -91 235 -95 214 -109 c 257
 300 59 l 257
EndSplineSet
EndChar

StartChar: scedilla
Encoding: 351 351 328
GlifName: scedilla
Width: 403
VWidth: 0
Flags: HMW
LayerCount: 2
Fore
SplineSet
88 163 m 257
 120 107 171 66 215 66 c 256
 258 66 290 83 290 122 c 256
 290 170 239 191 186 212 c 256
 123 237 54 260 54 347 c 256
 54 433 129 471 203 471 c 256
 276 471 341 432 369 381 c 257
 305 340 l 257
 283 371 241 398 204 398 c 256
 164 398 132 386 132 350 c 256
 132 306 195 292 246 271 c 256
 311 244 373 208 373 131 c 256
 373 32 304 -9 215 -9 c 256
 130 -9 59 49 25 124 c 257
 88 163 l 257
224 60 m 257
 286 60 l 257
 222 -52 l 257
 225 -52 227 -52 230 -52 c 256
 263 -52 304 -77 304 -126 c 256
 304 -187 251 -220 196 -220 c 256
 159 -220 136 -210 108 -182 c 257
 140 -142 l 257
 159 -158 170 -166 196 -166 c 256
 230 -166 246 -150 246 -126 c 256
 246 -102 230 -90 196 -90 c 256
 186 -90 161 -94 140 -108 c 257
 224 60 l 257
EndSplineSet
EndChar

StartChar: Zcaron
Encoding: 381 381 329
GlifName: Z_caron
Width: 545
VWidth: 0
Flags: HMW
LayerCount: 2
Fore
SplineSet
35 620 m 257
 35 700 l 257
 525 700 l 257
 157 80 l 257
 505 80 l 257
 505 0 l 257
 15 0 l 257
 383 620 l 257
 35 620 l 257
280 855 m 257
 390 950 l 257
 440 910 l 257
 280 770 l 257
 120 910 l 257
 170 950 l 257
 280 855 l 257
EndSplineSet
EndChar

StartChar: zcaron
Encoding: 382 382 330
GlifName: zcaron
Width: 460
VWidth: 0
Flags: HMW
LayerCount: 2
Fore
SplineSet
245 615 m 257
 355 710 l 257
 405 670 l 257
 245 530 l 257
 85 670 l 257
 135 710 l 257
 245 615 l 257
300 385 m 257
 45 385 l 257
 45 460 l 257
 445 460 l 257
 160 75 l 257
 425 75 l 257
 425 0 l 257
 15 0 l 257
 300 385 l 257
EndSplineSet
EndChar

StartChar: Ydieresis
Encoding: 376 376 331
GlifName: Y_dieresis
Width: 561
VWidth: 0
Flags: HMW
LayerCount: 2
Fore
SplineSet
126 825 m 256
 126 855 150 880 180 880 c 256
 210 880 236 855 236 825 c 256
 236 795 210 770 180 770 c 256
 150 770 126 795 126 825 c 256
326 825 m 256
 326 855 350 880 380 880 c 256
 410 880 436 855 436 825 c 256
 436 795 410 770 380 770 c 256
 350 770 326 795 326 825 c 256
461 700 m 257
 556 700 l 257
 323 302 l 257
 323 0 l 257
 238 0 l 257
 238 301 l 257
 5 700 l 257
 100 700 l 257
 280 376 l 257
 461 700 l 257
EndSplineSet
EndChar

StartChar: Scaron
Encoding: 352 352 332
GlifName: S_caron
Width: 548
VWidth: 0
Flags: HMW
LayerCount: 2
Fore
SplineSet
112 226 m 257
 154 130 208 70 295 70 c 256
 375 70 415 113 415 183 c 256
 415 273 331 309 251 338 c 256
 181 363 75 416 75 535 c 256
 75 641 164 710 278 710 c 256
 391 710 466 631 494 560 c 257
 425 514 l 257
 395 572 356 629 279 629 c 256
 209 629 164 590 164 529 c 256
 164 461 241 428 326 396 c 256
 399 369 503 317 503 190 c 256
 503 71 429 -10 290 -10 c 256
 175 -10 84 68 40 183 c 257
 112 226 l 257
278 855 m 257
 388 950 l 257
 438 910 l 257
 278 770 l 257
 118 910 l 257
 168 950 l 257
 278 855 l 257
EndSplineSet
EndChar

StartChar: scaron
Encoding: 353 353 333
GlifName: scaron
Width: 403
VWidth: 0
Flags: HMW
LayerCount: 2
Fore
SplineSet
91 161 m 257
 103 105 153 65 210 65 c 256
 260 65 290 83 290 123 c 256
 290 173 239 194 186 215 c 256
 123 240 54 272 54 349 c 256
 54 425 129 470 203 470 c 256
 276 470 351 431 369 380 c 257
 305 339 l 257
 283 370 241 394 204 394 c 256
 164 394 134 380 134 344 c 256
 134 308 195 287 246 266 c 256
 311 239 373 197 373 130 c 256
 373 31 304 -10 205 -10 c 256
 120 -10 39 48 25 123 c 257
 91 161 l 257
203 615 m 257
 313 710 l 257
 363 670 l 257
 203 530 l 257
 43 670 l 257
 93 710 l 257
 203 615 l 257
EndSplineSet
EndChar

StartChar: Lslash
Encoding: 321 321 334
GlifName: L_slash
Width: 450
VWidth: 0
Flags: HMW
LayerCount: 2
Fore
SplineSet
5 340 m 257
 -15 395 l 257
 255 565 l 257
 275 510 l 257
 5 340 l 257
80 700 m 257
 165 700 l 257
 165 80 l 257
 440 80 l 257
 440 0 l 257
 80 0 l 257
 80 700 l 257
EndSplineSet
EndChar

StartChar: lslash
Encoding: 322 322 335
GlifName: lslash
Width: 230
VWidth: 0
Flags: HMW
LayerCount: 2
Fore
SplineSet
5 340 m 257
 -15 395 l 257
 235 545 l 257
 255 490 l 257
 5 340 l 257
75 780 m 257
 155 780 l 257
 155 0 l 257
 75 0 l 257
 75 780 l 257
EndSplineSet
EndChar

StartChar: uni0218
Encoding: 536 536 336
GlifName: uni0218
Width: 548
VWidth: 0
Flags: HMW
LayerCount: 2
Fore
SplineSet
112 226 m 257
 154 130 208 70 295 70 c 256
 375 70 415 113 415 183 c 256
 415 273 331 309 251 338 c 256
 181 363 75 416 75 535 c 256
 75 641 164 710 278 710 c 256
 391 710 466 631 494 560 c 257
 425 514 l 257
 395 572 356 629 279 629 c 256
 209 629 164 590 164 529 c 256
 164 461 241 428 326 396 c 256
 399 369 503 317 503 190 c 256
 503 71 429 -10 290 -10 c 256
 175 -10 84 68 40 183 c 257
 112 226 l 257
294 -70 m 257
 374 -100 l 257
 264 -350 l 257
 206 -329 l 257
 294 -70 l 257
EndSplineSet
EndChar

StartChar: uni0219
Encoding: 537 537 337
GlifName: uni0219
Width: 403
VWidth: 0
Flags: HMW
LayerCount: 2
Fore
SplineSet
91 161 m 257
 103 105 153 65 210 65 c 256
 260 65 290 83 290 123 c 256
 290 173 239 194 186 215 c 256
 123 240 54 272 54 349 c 256
 54 425 129 470 203 470 c 256
 276 470 351 431 369 380 c 257
 305 339 l 257
 283 370 241 394 204 394 c 256
 164 394 134 380 134 344 c 256
 134 308 195 287 246 266 c 256
 311 239 373 197 373 130 c 256
 373 31 304 -10 205 -10 c 256
 120 -10 39 48 25 123 c 257
 91 161 l 257
209 -70 m 257
 289 -100 l 257
 179 -350 l 257
 121 -329 l 257
 209 -70 l 257
EndSplineSet
EndChar

StartChar: pi
Encoding: 960 960 338
GlifName: pi
Width: 540
VWidth: 0
Flags: HMW
LayerCount: 2
Fore
SplineSet
90 430 m 257
 170 430 l 257
 170 0 l 257
 90 0 l 257
 90 430 l 257
30 460 m 257
 500 460 l 257
 500 385 l 257
 30 385 l 257
 30 460 l 257
340 430 m 257
 420 430 l 257
 420 141 l 258
 420 75 443 71 473 71 c 257
 473 -9 l 257
 389 -9 340 12 340 121 c 258
 340 430 l 257
EndSplineSet
EndChar

StartChar: trademark
Encoding: 8482 8482 339
GlifName: trademark
Width: 665
VWidth: 0
Flags: HMW
LayerCount: 2
Fore
SplineSet
32 660 m 257
 32 700 l 257
 255 700 l 257
 255 660 l 257
 165 660 l 257
 165 350 l 257
 122 350 l 257
 122 660 l 257
 32 660 l 257
562 602 m 257
 590 717 l 257
 632 350 l 257
 590 350 l 257
 562 602 l 257
310 717 m 257
 338 602 l 257
 310 350 l 257
 268 350 l 257
 310 717 l 257
590 717 m 257
 590 632 l 257
 450 382 l 257
 310 632 l 257
 310 717 l 257
 450 464 l 257
 590 717 l 257
EndSplineSet
EndChar

StartChar: uni2219
Encoding: 8729 8729 340
GlifName: uni2219
Width: 300
VWidth: 0
Flags: HMW
LayerCount: 2
Fore
SplineSet
95 415 m 256
 95 445 120 470 150 470 c 256
 180 470 205 445 205 415 c 256
 205 385 180 360 150 360 c 256
 120 360 95 385 95 415 c 256
EndSplineSet
EndChar

StartChar: agrave.alt
Encoding: 65537 -1 341
GlifName: agrave.alt
Width: 570
VWidth: 0
Flags: HMW
LayerCount: 2
Fore
SplineSet
425 460 m 257
 500 460 l 257
 500 0 l 257
 425 0 l 257
 425 460 l 257
35 230 m 256
 35 379 138 470 263 470 c 256
 378 470 456 379 456 230 c 256
 456 81 378 -10 263 -10 c 256
 138 -10 35 81 35 230 c 256
116 230 m 256
 116 124 188 65 273 65 c 256
 343 65 420 124 420 230 c 256
 420 336 343 395 273 395 c 256
 188 395 116 336 116 230 c 256
113 680 m 257
 188 720 l 257
 338 560 l 257
 293 530 l 257
 113 680 l 257
EndSplineSet
EndChar

StartChar: aacute.alt
Encoding: 65538 -1 342
GlifName: aacute.alt
Width: 570
VWidth: 0
Flags: HMW
LayerCount: 2
Fore
SplineSet
425 460 m 257
 500 460 l 257
 500 0 l 257
 425 0 l 257
 425 460 l 257
35 230 m 256
 35 379 138 470 263 470 c 256
 378 470 456 379 456 230 c 256
 456 81 378 -10 263 -10 c 256
 138 -10 35 81 35 230 c 256
116 230 m 256
 116 124 188 65 273 65 c 256
 343 65 420 124 420 230 c 256
 420 336 343 395 273 395 c 256
 188 395 116 336 116 230 c 256
393 680 m 257
 213 530 l 257
 168 560 l 257
 318 720 l 257
 393 680 l 257
EndSplineSet
EndChar

StartChar: acircumflex.alt
Encoding: 65539 -1 343
GlifName: acircumflex.alt
Width: 570
VWidth: 0
Flags: HMW
LayerCount: 2
Fore
SplineSet
425 460 m 257
 500 460 l 257
 500 0 l 257
 425 0 l 257
 425 460 l 257
35 230 m 256
 35 379 138 470 263 470 c 256
 378 470 456 379 456 230 c 256
 456 81 378 -10 263 -10 c 256
 138 -10 35 81 35 230 c 256
116 230 m 256
 116 124 188 65 273 65 c 256
 343 65 420 124 420 230 c 256
 420 336 343 395 273 395 c 256
 188 395 116 336 116 230 c 256
283 625 m 257
 173 530 l 257
 123 570 l 257
 283 710 l 257
 443 570 l 257
 393 530 l 257
 283 625 l 257
EndSplineSet
EndChar

StartChar: atilde.alt
Encoding: 65540 -1 344
GlifName: atilde.alt
Width: 570
VWidth: 0
Flags: HMW
LayerCount: 2
Fore
SplineSet
425 460 m 257
 500 460 l 257
 500 0 l 257
 425 0 l 257
 425 460 l 257
35 230 m 256
 35 379 138 470 263 470 c 256
 378 470 456 379 456 230 c 256
 456 81 378 -10 263 -10 c 256
 138 -10 35 81 35 230 c 256
116 230 m 256
 116 124 188 65 273 65 c 256
 343 65 420 124 420 230 c 256
 420 336 343 395 273 395 c 256
 188 395 116 336 116 230 c 256
118 567 m 257
 128 616 177 649 222 649 c 256
 287 649 292 602 346 602 c 256
 365 602 382 618 402 650 c 257
 448 607 l 257
 432 570 392 534 342 534 c 256
 287 534 266 581 221 581 c 256
 180 581 171 545 171 530 c 257
 118 567 l 257
EndSplineSet
EndChar

StartChar: adieresis.alt
Encoding: 65541 -1 345
GlifName: adieresis.alt
Width: 570
VWidth: 0
Flags: HMW
LayerCount: 2
Fore
SplineSet
425 460 m 257
 500 460 l 257
 500 0 l 257
 425 0 l 257
 425 460 l 257
35 230 m 256
 35 379 138 470 263 470 c 256
 378 470 456 379 456 230 c 256
 456 81 378 -10 263 -10 c 256
 138 -10 35 81 35 230 c 256
116 230 m 256
 116 124 188 65 273 65 c 256
 343 65 420 124 420 230 c 256
 420 336 343 395 273 395 c 256
 188 395 116 336 116 230 c 256
328 585 m 256
 328 615 353 640 383 640 c 256
 413 640 438 615 438 585 c 256
 438 555 413 530 383 530 c 256
 353 530 328 555 328 585 c 256
128 585 m 256
 128 615 153 640 183 640 c 256
 213 640 238 615 238 585 c 256
 238 555 213 530 183 530 c 256
 153 530 128 555 128 585 c 256
EndSplineSet
EndChar

StartChar: aring.alt
Encoding: 65542 -1 346
GlifName: aring.alt
Width: 570
VWidth: 0
Flags: HMW
LayerCount: 2
Fore
SplineSet
425 460 m 257
 500 460 l 257
 500 0 l 257
 425 0 l 257
 425 460 l 257
35 230 m 256
 35 379 138 470 263 470 c 256
 378 470 456 379 456 230 c 256
 456 81 378 -10 263 -10 c 256
 138 -10 35 81 35 230 c 256
116 230 m 256
 116 124 188 65 273 65 c 256
 343 65 420 124 420 230 c 256
 420 336 343 395 273 395 c 256
 188 395 116 336 116 230 c 256
181 630 m 256
 181 690 231 730 283 730 c 256
 335 730 385 690 385 630 c 256
 385 570 335 530 283 530 c 256
 231 530 181 570 181 630 c 256
232 630 m 256
 232 597 258 577 283 577 c 256
 308 577 334 597 334 630 c 256
 334 663 308 683 283 683 c 256
 258 683 232 663 232 630 c 256
EndSplineSet
EndChar

StartChar: amacron.alt
Encoding: 65543 -1 347
GlifName: amacron.alt
Width: 570
VWidth: 0
Flags: HMW
LayerCount: 2
Fore
SplineSet
425 460 m 257
 500 460 l 257
 500 0 l 257
 425 0 l 257
 425 460 l 257
35 230 m 256
 35 379 138 470 263 470 c 256
 378 470 456 379 456 230 c 256
 456 81 378 -10 263 -10 c 256
 138 -10 35 81 35 230 c 256
116 230 m 256
 116 124 188 65 273 65 c 256
 343 65 420 124 420 230 c 256
 420 336 343 395 273 395 c 256
 188 395 116 336 116 230 c 256
98 530 m 257
 98 605 l 257
 448 605 l 257
 448 530 l 257
 98 530 l 257
EndSplineSet
EndChar

StartChar: abreve.alt
Encoding: 65544 -1 348
GlifName: abreve.alt
Width: 570
VWidth: 0
Flags: HMW
LayerCount: 2
Fore
SplineSet
425 460 m 257
 500 460 l 257
 500 0 l 257
 425 0 l 257
 425 460 l 257
35 230 m 256
 35 379 138 470 263 470 c 256
 378 470 456 379 456 230 c 256
 456 81 378 -10 263 -10 c 256
 138 -10 35 81 35 230 c 256
116 230 m 256
 116 124 188 65 273 65 c 256
 343 65 420 124 420 230 c 256
 420 336 343 395 273 395 c 256
 188 395 116 336 116 230 c 256
105 670 m 257
 176 670 l 257
 176 644 193 595 263 595 c 256
 333 595 350 644 350 670 c 257
 421 670 l 257
 421 601 368 530 263 530 c 256
 158 530 105 601 105 670 c 257
EndSplineSet
EndChar

StartChar: aogonek.alt
Encoding: 65545 -1 349
GlifName: aogonek.alt
Width: 570
VWidth: 0
Flags: HMW
LayerCount: 2
Fore
SplineSet
425 460 m 257
 500 460 l 257
 500 0 l 257
 425 0 l 257
 425 460 l 257
35 230 m 256
 35 379 138 470 263 470 c 256
 378 470 456 379 456 230 c 256
 456 81 378 -10 263 -10 c 256
 138 -10 35 81 35 230 c 256
116 230 m 256
 116 124 188 65 273 65 c 256
 343 65 420 124 420 230 c 256
 420 336 343 395 273 395 c 256
 188 395 116 336 116 230 c 256
505 -130 m 257
 538 -180 l 257
 523 -200 493 -220 450 -220 c 256
 366 -220 327 -179 327 -120 c 256
 327 -61 389 -11 459 25 c 257
 500 0 l 257
 448 -22 407 -63 407 -100 c 256
 407 -136 425 -150 455 -150 c 256
 481 -150 491 -143 505 -130 c 257
EndSplineSet
EndChar

StartChar: dagger
Encoding: 8224 8224 350
GlifName: dagger
Width: 570
VWidth: 0
Flags: HMW
LayerCount: 2
Fore
SplineSet
90 540 m 257
 480 540 l 257
 480 465 l 257
 90 465 l 257
 90 540 l 257
245 700 m 257
 325 700 l 257
 325 -150 l 257
 245 -150 l 257
 245 700 l 257
EndSplineSet
EndChar

StartChar: daggerdbl
Encoding: 8225 8225 351
GlifName: daggerdbl
Width: 570
VWidth: 0
Flags: HMW
LayerCount: 2
Fore
SplineSet
90 120 m 257
 480 120 l 257
 480 45 l 257
 90 45 l 257
 90 120 l 257
90 540 m 257
 480 540 l 257
 480 465 l 257
 90 465 l 257
 90 540 l 257
245 700 m 257
 325 700 l 257
 325 -150 l 257
 245 -150 l 257
 245 700 l 257
EndSplineSet
EndChar

StartChar: ellipsis
Encoding: 8230 8230 352
GlifName: ellipsis
Width: 900
VWidth: 0
Flags: HMW
LayerCount: 2
Fore
SplineSet
95 40 m 256
 95 70 120 95 150 95 c 256
 180 95 205 70 205 40 c 256
 205 10 180 -15 150 -15 c 256
 120 -15 95 10 95 40 c 256
395 40 m 256
 395 70 420 95 450 95 c 256
 480 95 505 70 505 40 c 256
 505 10 480 -15 450 -15 c 256
 420 -15 395 10 395 40 c 256
695 40 m 256
 695 70 720 95 750 95 c 256
 780 95 805 70 805 40 c 256
 805 10 780 -15 750 -15 c 256
 720 -15 695 10 695 40 c 256
EndSplineSet
EndChar

StartChar: uniFF10
Encoding: 65296 65296 353
GlifName: uniF_F_10
Width: 580
VWidth: 0
Flags: HMW
LayerCount: 2
Fore
SplineSet
115 350 m 256
 115 187 182 70 290 70 c 256
 398 70 465 187 465 350 c 256
 465 513 398 630 290 630 c 256
 182 630 115 513 115 350 c 256
30 350 m 256
 30 559 136 710 290 710 c 256
 444 710 550 559 550 350 c 256
 550 141 444 -10 290 -10 c 256
 136 -10 30 141 30 350 c 256
EndSplineSet
EndChar

StartChar: uniFF11
Encoding: 65297 65297 354
GlifName: uniF_F_11
Width: 580
VWidth: 0
Flags: HMW
LayerCount: 2
Fore
SplineSet
115 562 m 257
 115 650 l 257
 355 710 l 257
 355 0 l 257
 270 0 l 257
 270 608 l 257
 115 562 l 257
EndSplineSet
EndChar

StartChar: uniFF12
Encoding: 65298 65298 355
GlifName: uniF_F_12
Width: 580
VWidth: 0
Flags: HMW
LayerCount: 2
Fore
SplineSet
26 0 m 257
 356 353 l 258
 402 402 430 450 430 506 c 256
 430 567 387 631 302 631 c 256
 212 631 150 566 150 460 c 257
 66 460 l 257
 66 609 157 711 302 711 c 256
 456 711 516 593 516 499 c 256
 516 427 479 363 424 307 c 258
 200 80 l 257
 520 80 l 257
 520 0 l 257
 26 0 l 257
EndSplineSet
EndChar

StartChar: uniFF13
Encoding: 65299 65299 356
GlifName: uniF_F_13
Width: 580
VWidth: 0
Flags: HMW
LayerCount: 2
Fore
SplineSet
270 345 m 257
 270 400 l 257
 360 400 411 455 411 521 c 256
 411 587 375 633 305 633 c 256
 240 633 188 587 188 526 c 257
 107 526 l 257
 107 635 189 710 304 710 c 256
 424 710 498 623 498 524 c 256
 498 425 405 345 270 345 c 257
300 -10 m 256
 165 -10 77 76 77 185 c 257
 163 185 l 257
 163 119 220 70 300 70 c 256
 380 70 431 119 431 195 c 256
 431 281 360 325 270 325 c 257
 270 380 l 257
 405 380 518 324 518 185 c 256
 518 66 425 -10 300 -10 c 256
EndSplineSet
EndChar

StartChar: uniFF14
Encoding: 65300 65300 357
GlifName: uniF_F_14
Width: 580
VWidth: 0
Flags: HMW
LayerCount: 2
Fore
SplineSet
18 140 m 257
 88 215 l 257
 391 215 l 256
 408 215 l 256
 551 215 l 257
 551 140 l 257
 18 140 l 257
108 140 m 257
 18 140 l 257
 406 700 l 257
 441 700 l 257
 441 0 l 257
 356 0 l 257
 356 176 l 256
 356 187 l 256
 356 511 l 257
 108 140 l 257
EndSplineSet
EndChar

StartChar: uniFF15
Encoding: 65301 65301 358
GlifName: uniF_F_15
Width: 580
VWidth: 0
Flags: HMW
LayerCount: 2
Fore
SplineSet
532 230 m 256
 532 71 422 -10 287 -10 c 256
 158 -10 84 57 38 137 c 257
 110 186 l 257
 141 126 210 70 287 70 c 256
 387 70 444 134 444 230 c 256
 444 326 377 390 287 390 c 256
 220 390 179 377 108 327 c 257
 158 393 l 257
 204 443 264 466 323 466 c 256
 443 466 532 369 532 230 c 256
266 625 m 257
 213 417 l 257
 108 327 l 257
 200 700 l 257
 530 700 l 257
 530 625 l 257
 266 625 l 257
EndSplineSet
EndChar

StartChar: uniFF16
Encoding: 65302 65302 359
GlifName: uniF_F_16
Width: 580
VWidth: 0
Flags: HMW
LayerCount: 2
Fore
SplineSet
133 230 m 256
 133 134 200 67 290 67 c 256
 380 67 447 134 447 230 c 256
 447 326 380 395 290 395 c 256
 200 395 133 326 133 230 c 256
332 700 m 257
 439 700 l 257
 220 411 l 257
 214 416 l 257
 241 449 276 457 321 457 c 256
 435 457 528 359 528 230 c 256
 528 86 425 -10 290 -10 c 256
 155 -10 52 86 52 230 c 256
 52 287 69 338 96 375 c 258
 332 700 l 257
EndSplineSet
EndChar

StartChar: uniFF17
Encoding: 65303 65303 360
GlifName: uniF_F_17
Width: 580
VWidth: 0
Flags: HMW
LayerCount: 2
Fore
SplineSet
58 620 m 257
 58 700 l 257
 548 700 l 257
 212 0 l 257
 124 0 l 257
 420 620 l 257
 58 620 l 257
EndSplineSet
EndChar

StartChar: uniFF18
Encoding: 65304 65304 361
GlifName: uniF_F_18
Width: 580
VWidth: 0
Flags: HMW
LayerCount: 2
Fore
SplineSet
97 531 m 256
 97 630 180 710 290 710 c 256
 400 710 483 630 483 531 c 256
 483 422 405 355 290 355 c 256
 175 355 97 422 97 531 c 256
178 521 m 256
 178 455 230 410 290 410 c 256
 350 410 402 455 402 521 c 256
 402 587 355 635 290 635 c 256
 225 635 178 587 178 521 c 256
72 190 m 256
 72 319 175 390 290 390 c 256
 405 390 508 319 508 190 c 256
 508 81 415 -10 290 -10 c 256
 165 -10 72 81 72 190 c 256
153 200 m 256
 153 114 220 65 290 65 c 256
 360 65 427 114 427 200 c 256
 427 276 360 335 290 335 c 256
 220 335 153 276 153 200 c 256
EndSplineSet
EndChar

StartChar: uniFF19
Encoding: 65305 65305 362
GlifName: uniF_F_19
Width: 580
VWidth: 0
Flags: HMW
LayerCount: 2
Fore
SplineSet
447 470 m 256
 447 566 380 633 290 633 c 256
 200 633 133 566 133 470 c 256
 133 374 200 305 290 305 c 256
 380 305 447 374 447 470 c 256
248 0 m 257
 141 0 l 257
 360 289 l 257
 366 284 l 257
 339 251 304 243 259 243 c 256
 145 243 52 341 52 470 c 256
 52 614 155 710 290 710 c 256
 425 710 528 614 528 470 c 256
 528 413 511 362 484 325 c 258
 248 0 l 257
EndSplineSet
EndChar

StartChar: caron
Encoding: 711 711 363
GlifName: caron
Width: 480
VWidth: 0
Flags: HMW
LayerCount: 2
Fore
SplineSet
240 655 m 257
 350 750 l 257
 400 710 l 257
 240 570 l 257
 80 710 l 257
 130 750 l 257
 240 655 l 257
EndSplineSet
EndChar

StartChar: napostrophe
Encoding: 329 329 364
GlifName: napostrophe
Width: 635
VWidth: 0
Flags: HMW
LayerCount: 2
Fore
SplineSet
265 460 m 257
 265 0 l 257
 185 0 l 257
 185 460 l 257
 265 460 l 257
480 280 m 258
 480 356 447 395 382 395 c 256
 312 395 265 346 265 280 c 257
 229 280 l 257
 229 389 307 470 402 470 c 256
 497 470 560 409 560 290 c 258
 560 0 l 257
 480 0 l 257
 480 280 l 258
130 700 m 257
 225 700 l 257
 125 470 l 257
 70 470 l 257
 130 700 l 257
EndSplineSet
EndChar

StartChar: IJ
Encoding: 306 306 365
GlifName: I_J_
Width: 490
VWidth: 0
Flags: HMW
LayerCount: 2
Fore
SplineSet
183 -104 m 257
 197 -127 226 -140 262 -140 c 256
 292 -140 330 -116 330 -50 c 258
 330 700 l 257
 410 700 l 257
 410 -60 l 258
 410 -169 351 -220 257 -220 c 256
 204 -220 154 -190 139 -170 c 257
 183 -104 l 257
80 700 m 257
 165 700 l 257
 165 0 l 257
 80 0 l 257
 80 700 l 257
EndSplineSet
EndChar

StartChar: ij
Encoding: 307 307 366
GlifName: ij
Width: 510
VWidth: 0
Flags: HMW
LayerCount: 2
Fore
SplineSet
325 650 m 256
 325 680 350 705 380 705 c 256
 410 705 435 680 435 650 c 256
 435 620 410 595 380 595 c 256
 350 595 325 620 325 650 c 256
243 -114 m 257
 257 -137 276 -140 292 -140 c 256
 322 -140 340 -116 340 -50 c 258
 340 460 l 257
 420 460 l 257
 420 -60 l 258
 420 -169 371 -220 287 -220 c 256
 244 -220 214 -200 199 -180 c 257
 243 -114 l 257
75 650 m 256
 75 680 100 705 130 705 c 256
 160 705 185 680 185 650 c 256
 185 620 160 595 130 595 c 256
 100 595 75 620 75 650 c 256
90 460 m 257
 170 460 l 257
 170 0 l 257
 90 0 l 257
 90 460 l 257
EndSplineSet
EndChar

StartChar: uni0237
Encoding: 567 567 367
GlifName: uni0237
Width: 250
VWidth: 0
Flags: HMW
LayerCount: 2
Fore
SplineSet
-17 -114 m 257
 -3 -137 16 -140 32 -140 c 256
 62 -140 80 -116 80 -50 c 258
 80 460 l 257
 160 460 l 257
 160 -60 l 258
 160 -169 111 -220 27 -220 c 256
 -16 -220 -46 -200 -61 -180 c 257
 -17 -114 l 257
EndSplineSet
EndChar

StartChar: Sacute
Encoding: 346 346 368
GlifName: S_acute
Width: 548
VWidth: 0
Flags: HMW
LayerCount: 2
Fore
SplineSet
112 226 m 257
 154 130 208 70 295 70 c 256
 375 70 415 113 415 183 c 256
 415 273 331 309 251 338 c 256
 181 363 75 416 75 535 c 256
 75 641 164 710 278 710 c 256
 391 710 466 631 494 560 c 257
 425 514 l 257
 395 572 356 629 279 629 c 256
 209 629 164 590 164 529 c 256
 164 461 241 428 326 396 c 256
 399 369 503 317 503 190 c 256
 503 71 429 -10 290 -10 c 256
 175 -10 84 68 40 183 c 257
 112 226 l 257
458 920 m 257
 278 770 l 257
 233 800 l 257
 383 960 l 257
 458 920 l 257
EndSplineSet
EndChar

StartChar: sacute
Encoding: 347 347 369
GlifName: sacute
Width: 403
VWidth: 0
Flags: HMW
LayerCount: 2
Fore
SplineSet
91 161 m 257
 103 105 153 65 210 65 c 256
 260 65 290 83 290 123 c 256
 290 173 239 194 186 215 c 256
 123 240 54 272 54 349 c 256
 54 425 129 470 203 470 c 256
 276 470 351 431 369 380 c 257
 305 339 l 257
 283 370 241 394 204 394 c 256
 164 394 134 380 134 344 c 256
 134 308 195 287 246 266 c 256
 311 239 373 197 373 130 c 256
 373 31 304 -10 205 -10 c 256
 120 -10 39 48 25 123 c 257
 91 161 l 257
383 680 m 257
 203 530 l 257
 158 560 l 257
 308 720 l 257
 383 680 l 257
EndSplineSet
EndChar

StartChar: Scircumflex
Encoding: 348 348 370
GlifName: S_circumflex
Width: 548
VWidth: 0
Flags: HMW
LayerCount: 2
Fore
SplineSet
112 226 m 257
 154 130 208 70 295 70 c 256
 375 70 415 113 415 183 c 256
 415 273 331 309 251 338 c 256
 181 363 75 416 75 535 c 256
 75 641 164 710 278 710 c 256
 391 710 466 631 494 560 c 257
 425 514 l 257
 395 572 356 629 279 629 c 256
 209 629 164 590 164 529 c 256
 164 461 241 428 326 396 c 256
 399 369 503 317 503 190 c 256
 503 71 429 -10 290 -10 c 256
 175 -10 84 68 40 183 c 257
 112 226 l 257
278 865 m 257
 168 770 l 257
 118 810 l 257
 278 950 l 257
 438 810 l 257
 388 770 l 257
 278 865 l 257
EndSplineSet
EndChar

StartChar: scircumflex
Encoding: 349 349 371
GlifName: scircumflex
Width: 403
VWidth: 0
Flags: HMW
LayerCount: 2
Fore
SplineSet
91 161 m 257
 103 105 153 65 210 65 c 256
 260 65 290 83 290 123 c 256
 290 173 239 194 186 215 c 256
 123 240 54 272 54 349 c 256
 54 425 129 470 203 470 c 256
 276 470 351 431 369 380 c 257
 305 339 l 257
 283 370 241 394 204 394 c 256
 164 394 134 380 134 344 c 256
 134 308 195 287 246 266 c 256
 311 239 373 197 373 130 c 256
 373 31 304 -10 205 -10 c 256
 120 -10 39 48 25 123 c 257
 91 161 l 257
203 625 m 257
 93 530 l 257
 43 570 l 257
 203 710 l 257
 363 570 l 257
 313 530 l 257
 203 625 l 257
EndSplineSet
EndChar

StartChar: uni1E9E
Encoding: 7838 7838 372
Width: 716
VWidth: 0
Flags: HMW
LayerCount: 2
Fore
SplineSet
453 -10 m 256
 318 -10 230 76 230 185 c 257
 316 185 l 257
 316 119 373 70 453 70 c 256
 533 70 584 119 584 195 c 256
 584 281 513 325 423 325 c 257
 423 380 l 257
 558 380 671 324 671 185 c 256
 671 66 578 -10 453 -10 c 256
423 345 m 257
 423 400 l 257
 513 400 564 455 564 521 c 256
 564 587 498 633 398 633 c 256
 273 633 165 567 165 386 c 258
 165 0 l 257
 80 0 l 257
 80 386 l 258
 80 615 222 710 397 710 c 256
 537 710 651 648 651 534 c 256
 651 425 558 345 423 345 c 257
EndSplineSet
EndChar

StartChar: Zacute
Encoding: 377 377 373
Width: 545
VWidth: 0
Flags: HW
LayerCount: 2
Fore
SplineSet
35 620 m 257
 35 700 l 257
 525 700 l 257
 157 80 l 257
 505 80 l 257
 505 0 l 257
 15 0 l 257
 383 620 l 257
 35 620 l 257
440 920 m 257
 260 770 l 257
 215 800 l 257
 365 960 l 257
 440 920 l 257
EndSplineSet
EndChar

StartChar: zacute
Encoding: 378 378 374
Width: 460
VWidth: 0
Flags: HW
LayerCount: 2
Fore
SplineSet
300 385 m 257
 45 385 l 257
 45 460 l 257
 445 460 l 257
 160 75 l 257
 425 75 l 257
 425 0 l 257
 15 0 l 257
 300 385 l 257
405 700 m 257
 225 550 l 257
 180 580 l 257
 330 740 l 257
 405 700 l 257
EndSplineSet
EndChar

StartChar: Zdotaccent
Encoding: 379 379 375
Width: 545
VWidth: 0
Flags: HW
LayerCount: 2
Fore
SplineSet
35 620 m 257
 35 700 l 257
 525 700 l 257
 157 80 l 257
 505 80 l 257
 505 0 l 257
 15 0 l 257
 383 620 l 257
 35 620 l 257
225 825 m 256
 225 855 250 880 280 880 c 256
 310 880 335 855 335 825 c 256
 335 795 310 770 280 770 c 256
 250 770 225 795 225 825 c 256
EndSplineSet
EndChar

StartChar: zdotaccent
Encoding: 380 380 376
Width: 460
VWidth: 0
Flags: HW
LayerCount: 2
Fore
SplineSet
300 385 m 257
 45 385 l 257
 45 460 l 257
 445 460 l 257
 160 75 l 257
 425 75 l 257
 425 0 l 257
 15 0 l 257
 300 385 l 257
190 615 m 256
 190 645 215 670 245 670 c 256
 275 670 300 645 300 615 c 256
 300 585 275 560 245 560 c 256
 215 560 190 585 190 615 c 256
EndSplineSet
EndChar

StartChar: Tcaron
Encoding: 356 356 377
Width: 465
VWidth: 0
Flags: HW
LayerCount: 2
Fore
SplineSet
10 620 m 257
 10 700 l 257
 455 700 l 257
 455 620 l 257
 275 620 l 257
 275 0 l 257
 190 0 l 257
 190 620 l 257
 10 620 l 257
232.5 855 m 257
 342.5 950 l 257
 392.5 910 l 257
 232.5 770 l 257
 72.5 910 l 257
 122.5 950 l 257
 232.5 855 l 257
EndSplineSet
EndChar

StartChar: tcaron
Encoding: 357 357 378
Width: 350
VWidth: 0
Flags: HW
LayerCount: 2
Fore
SplineSet
5 460 m 257
 235 460 l 257
 235 385 l 257
 5 385 l 257
 5 460 l 257
80 620 m 257
 160 620 l 257
 160 0 l 257
 80 0 l 257
 80 620 l 257
295 810 m 257
 375 780 l 257
 265 530 l 257
 207 551 l 257
 295 810 l 257
EndSplineSet
EndChar

StartChar: Uring
Encoding: 366 366 379
Width: 626
VWidth: 0
Flags: HW
LayerCount: 2
Fore
SplineSet
75 700 m 257
 160 700 l 257
 160 230 l 258
 160 134 213 70 313 70 c 256
 413 70 466 134 466 230 c 258
 466 700 l 257
 551 700 l 257
 551 230 l 258
 551 91 458 -10 313 -10 c 256
 168 -10 75 91 75 230 c 258
 75 700 l 257
211 870 m 256
 211 930 261 970 313 970 c 256
 365 970 415 930 415 870 c 256
 415 810 365 770 313 770 c 256
 261 770 211 810 211 870 c 256
262 870 m 256
 262 837 288 817 313 817 c 256
 338 817 364 837 364 870 c 256
 364 903 338 923 313 923 c 256
 288 923 262 903 262 870 c 256
EndSplineSet
EndChar

StartChar: uring
Encoding: 367 367 380
Width: 525
VWidth: 0
Flags: HW
LayerCount: 2
Fore
SplineSet
370 0 m 257
 370 460 l 257
 450 460 l 257
 450 0 l 257
 370 0 l 257
155 180 m 258
 155 104 188 65 253 65 c 256
 323 65 370 114 370 180 c 257
 396 180 l 257
 396 71 328 -10 233 -10 c 256
 138 -10 75 51 75 170 c 258
 75 460 l 257
 155 460 l 257
 155 180 l 258
160.5 630 m 256
 160.5 690 210.5 730 262.5 730 c 256
 314.5 730 364.5 690 364.5 630 c 256
 364.5 570 314.5 530 262.5 530 c 256
 210.5 530 160.5 570 160.5 630 c 256
211.5 630 m 256
 211.5 597 237.5 577 262.5 577 c 256
 287.5 577 313.5 597 313.5 630 c 256
 313.5 663 287.5 683 262.5 683 c 256
 237.5 683 211.5 663 211.5 630 c 256
EndSplineSet
EndChar
